<svg id="Layer_1" data-name="Layer 1" xmlns="http://www.w3.org/2000/svg" viewBox="0 0 27.49 27.49"><defs><style>.cls-1{fill:#fff;}.cls-2{fill:#4f4f4f;}.cls-3{fill:#5c5c5c;}.cls-4{fill:#9e9e9e;}.cls-5{fill:gray;}.cls-6{fill:#3d3d3d;}</style></defs><rect class="cls-1" width="27.49" height="27.49" rx="7.34"/><path id="path8" class="cls-2" d="M931.71,538.67h2.43v-5.9l-3.48-2.61v7.47A1,1,0,0,0,931.71,538.67Z" transform="translate(-924.56 -519.2)"/><path id="path10" class="cls-3" d="M942.48,538.67h2.43a1,1,0,0,0,1-1v-7.47l-3.47,2.61Z" transform="translate(-924.56 -519.2)"/><path id="path12" class="cls-4" d="M942.48,528.25v4.52l3.47-2.61v-1.39a1.56,1.56,0,0,0-1.56-1.56,1.58,1.58,0,0,0-.94.31Z" transform="translate(-924.56 -519.2)"/><path id="path14" class="cls-5" d="M934.14,532.77v-4.52l4.17,3.13,4.17-3.13v4.52l-4.17,3.12Z" transform="translate(-924.56 -519.2)"/><path id="path16" class="cls-6" d="M930.66,528.77v1.39l3.48,2.61v-4.52l-1-.73a1.55,1.55,0,0,0-2.18.31A1.53,1.53,0,0,0,930.66,528.77Z" transform="translate(-924.56 -519.2)"/></svg>