<svg id="Layer_1" data-name="Layer 1" xmlns="http://www.w3.org/2000/svg" viewBox="0 0 27.49 27.49"><defs><style>.cls-1{fill:#fff;}.cls-2{fill:#0085f7;}.cls-3{fill:#00a94b;}.cls-4{fill:#ffbc00;}.cls-5{fill:#ff4131;}.cls-6{fill:#e51c19;}</style></defs><rect class="cls-1" width="27.49" height="27.49" rx="7.34"/><path id="path8" class="cls-2" d="M971.36,407h2.44v-5.91l-3.48-2.6V406A1,1,0,0,0,971.36,407Z" transform="translate(-964.22 -387.54)"/><path id="path10" class="cls-3" d="M982.13,407h2.44a1,1,0,0,0,1-1v-7.47l-3.48,2.6Z" transform="translate(-964.22 -387.54)"/><path id="path12" class="cls-4" d="M982.13,396.59v4.52l3.48-2.6v-1.39a1.56,1.56,0,0,0-1.56-1.57,1.53,1.53,0,0,0-.94.32Z" transform="translate(-964.22 -387.54)"/><path id="path14" class="cls-5" d="M973.8,401.11v-4.52l4.16,3.13,4.17-3.13v4.52L978,404.24Z" transform="translate(-964.22 -387.54)"/><path id="path16" class="cls-6" d="M970.32,397.12v1.39l3.48,2.6v-4.52l-1-.72a1.56,1.56,0,0,0-2.19.31A1.58,1.58,0,0,0,970.32,397.12Z" transform="translate(-964.22 -387.54)"/></svg>