<svg id="Layer_1" data-name="Layer 1" xmlns="http://www.w3.org/2000/svg" viewBox="0 0 1798.84 1828.11"><defs><style>.cls-1{fill:#1d71b8;}.cls-2{fill:#fff;}</style></defs><path class="cls-1" d="M1879,954.38q-21.2,64.67-79.71,99.41c-29.12,17.31-60.92,25.44-94.39,25.59-105.69.47-211.38.2-317.06.2q-559.81,0-1119.62-.13c-49.22,0-93.7-14.72-130.21-48.92-37-34.6-57.46-77.73-57.5-128.25q-.65-737.16,0-1474.33c.08-81.76,62.13-158,145.11-171.59a318.89,318.89,0,0,1,51.11-4.57q713.39-.36,1426.77,0c72.43.07,128.11,31.82,163.65,96.15,4.42,8,7.94,16.52,11.88,24.8ZM1578.33,712.9c.61-10.76,1.63-20.43,1.63-30.09q.16-199.14,0-398.27c-.09-51.83-7.27-102.64-25.67-151.4-14.88-39.41-35.61-75.49-67.46-103.53-88.77-78.15-191.28-88.25-300.48-56.48-45.55,13.26-81.68,42.23-111,79.48-4.16,5.28-8.74,10.23-16,18.71-2.87-35.21,1.23-65.48-2.72-94.59-23.12-4.95-238.49-4.11-254.86,1.33q0,359.94.12,721.6c0,4.37,1.79,8.74,2.75,13.14,3.46.81,6,1.92,8.5,1.92q114.92.1,229.81-.09c12.59,0,14.37-2.24,15.23-15.29.34-5.26.08-10.56.08-15.84,0-127.46-.24-254.92.28-382.38.07-17.64,1.14-36.15,6.44-52.76,19.76-61.83,80.71-106.57,159.5-92,43.57,8.07,72.59,34.32,85.49,76.18,6.72,21.82,10.16,45,12.4,67.77,2,20.93.54,42.22.55,63.35q0,164.45.06,328.89c0,20.93,1.1,22.1,18.26,22.1q109,0,217.93-.27C1564.9,714.4,1570.68,713.53,1578.33,712.9ZM681-25.45c-7.11-.3-14.81-.9-22.51-.91q-101-.12-202,0c-28.9,0-28.94.12-28.94,29.84q0,340.56,0,681.14c0,5.28.21,10.56.11,15.84-.18,10,5,14.38,14.64,14.33,3.3,0,6.6,0,9.9,0q105.91.08,211.85.08c5.75,0,11.49-.81,16.7-1.21C685.22,696.37,685.51-5.75,681-25.45ZM558.05-385c-19.92,4.05-40.52,6.07-59.61,12.56-45.92,15.6-76.54,47-84.12,95.89-7.9,51,8.18,93.9,50.56,125.16,52,38.34,138.84,36.12,189.06-4.43,59.67-48.19,63.95-137.64,8.38-190.25C633.45-373.45,597.33-382.41,558.05-385Z" transform="translate(-80.16 748.45)"/><path class="cls-2" d="M1578.33,712.9c-7.65.63-13.43,1.5-19.22,1.51q-109,.26-217.93.27c-17.16,0-18.24-1.17-18.26-22.1q-.15-164.45-.06-328.89c0-21.13,1.5-42.42-.55-63.35-2.24-22.81-5.68-45.95-12.4-67.77-12.9-41.86-41.92-68.11-85.49-76.18-78.79-14.6-139.74,30.14-159.5,92-5.3,16.61-6.37,35.12-6.44,52.76-.52,127.46-.28,254.92-.28,382.38,0,5.28.26,10.58-.08,15.84-.86,13-2.64,15.26-15.23,15.29q-114.9.3-229.81.09c-2.52,0-5-1.11-8.5-1.92-1-4.4-2.75-8.77-2.75-13.14q-.2-361.23-.12-721.6c16.37-5.44,231.74-6.28,254.86-1.33,4,29.11-.15,59.38,2.72,94.59,7.29-8.48,11.87-13.43,16-18.71,29.35-37.25,65.48-66.22,111-79.48,109.2-31.77,211.71-21.67,300.48,56.48,31.85,28,52.58,64.12,67.46,103.53,18.4,48.76,25.58,99.57,25.67,151.4q.36,199.13,0,398.27C1580,692.47,1578.94,702.14,1578.33,712.9Z" transform="translate(-80.16 748.45)"/><path class="cls-2" d="M681-25.45c4.47,19.7,4.18,721.82-.22,739.1-5.21.4-11,1.21-16.7,1.21q-105.93.06-211.85-.08c-3.3,0-6.6,0-9.9,0-9.62,0-14.82-4.31-14.64-14.33.1-5.28-.11-10.56-.11-15.84q0-340.58,0-681.14c0-29.72,0-29.81,28.94-29.84q101-.08,202,0C666.23-26.35,673.93-25.75,681-25.45Z" transform="translate(-80.16 748.45)"/><path class="cls-2" d="M558.05-385c39.28,2.64,75.4,11.6,104.27,38.93,55.57,52.61,51.29,142.06-8.38,190.25-50.22,40.55-137.07,42.77-189.06,4.43-42.38-31.26-58.46-74.21-50.56-125.16,7.58-48.88,38.2-80.29,84.12-95.89C517.53-379,538.13-381,558.05-385Z" transform="translate(-80.16 748.45)"/></svg>