<svg id="Layer_1" data-name="Layer 1" xmlns="http://www.w3.org/2000/svg" viewBox="0 0 1798.84 1828.05"><defs><style>.cls-1{fill:#fff;}.cls-2{fill:#454545;}</style></defs><rect class="cls-1" x="244.63" y="295.93" width="1396.67" height="1316.86"/><path class="cls-2" d="M1798.82,1702.8q-21.21,64.67-79.71,99.41c-29.11,17.31-60.92,25.45-94.39,25.6-105.69.47-211.37.19-317.06.19q-559.8,0-1119.61-.13c-49.22,0-93.71-14.72-130.22-48.91-37-34.61-57.45-77.73-57.5-128.26Q-.33,913.54.33,176.38C.4,94.61,62.45,18.38,145.44,4.78A318.25,318.25,0,0,1,196.54.21q713.37-.36,1426.77,0C1695.75.28,1751.42,32,1787,96.35c4.42,8,7.94,16.52,11.88,24.8Zm-300.66-241.48c.61-10.76,1.62-20.42,1.63-30.09q.15-199.14,0-398.27c-.1-51.83-7.28-102.64-25.68-151.39-14.87-39.42-35.61-75.5-67.46-103.54-88.76-78.15-191.27-88.25-300.47-56.48-45.56,13.26-81.69,42.24-111,79.48-4.16,5.28-8.74,10.23-16,18.72-2.87-35.22,1.23-65.49-2.71-94.6C953.35,720.2,738,721,721.6,726.49q0,359.94.12,721.59c0,4.37,1.79,8.74,2.75,13.14,3.47.81,6,1.92,8.51,1.93q114.9.09,229.81-.1c12.59,0,14.36-2.24,15.22-15.28.35-5.26.08-10.57.08-15.85,0-127.46-.23-254.92.28-382.37.07-17.65,1.14-36.16,6.45-52.77,19.75-61.83,80.7-106.57,159.49-92,43.57,8.07,72.59,34.33,85.49,76.19,6.72,21.82,10.16,45,12.4,67.76,2.06,20.93.55,42.22.55,63.36q0,164.43.06,328.88c0,20.93,1.11,22.1,18.26,22.1q109,0,217.93-.26c5.67,0,11.46-.86,19.11-1.49ZM600.82,723c-7.1-.3-14.81-.9-22.51-.91q-101-.1-202,0c-28.9,0-28.95.12-28.95,29.84V1433c0,5.28.21,10.56.11,15.84-.18,10,5,14.39,14.64,14.34H372q105.93.08,211.85.09c5.75,0,11.49-.82,16.7-1.22C605,1444.79,605.28,742.67,600.82,723Zm-123-359.6c-19.92,4.05-40.52,6.08-59.61,12.56-45.91,15.6-76.54,47-84.12,95.89-7.89,50.91,8.18,93.91,50.57,125.17,52,38.33,138.84,36.12,189.06-4.44,59.66-48.19,63.94-137.64,8.37-190.24C553.22,375,517.11,366,477.82,363.37Z" transform="translate(0 -0.03)"/></svg>