<svg id="Layer_1" data-name="Layer 1" xmlns="http://www.w3.org/2000/svg" viewBox="0 0 59.92 64"><defs><style>.cls-1{fill:#69c773;}</style></defs><path class="cls-1" d="M65.17,22.54l-4.59-2.4c-2.2-1.19-5.59.8-7.79,4.2L49,30.74a7.94,7.94,0,0,0,.6,8.38l.2.2a62.8,62.8,0,0,0,4.79,5.59,5.24,5.24,0,0,1,1,1.8,4.08,4.08,0,0,1-3,5.19,4.65,4.65,0,0,1-5.39-3,5.54,5.54,0,0,1-.2-1.8,4.23,4.23,0,0,0-1.6-3.79c-1.39-1.6-4.19,1.4-5,4.19v.2l-1.2,5.58a.7.7,0,0,0,.2.4,4.67,4.67,0,0,1-2,6.4,4.89,4.89,0,0,1-6.6-2,4.66,4.66,0,0,1,2-6.4c.2,0,.2-.2.4-.2s.6-1.4,1.2-2.8l.8-2.6c0-.2,0-.4.2-.4l2.4-8.38-2.4,5c-.4-1-.8-1-2-.2a21.25,21.25,0,0,0-2.2,1.8,9.55,9.55,0,0,0-2.2,3,3.59,3.59,0,0,1-1,1.4,4.17,4.17,0,0,1-6-.6,3.92,3.92,0,0,1,.8-5.59,3.59,3.59,0,0,1,1.8-.8c1-.2,4.79-2.6,7-4a4.36,4.36,0,0,0,1-.8l5.79-4.18-5.19,2.79H32c-1.59.2-3.59.4-4,1-.2.2-.4.6-.8.8a4.7,4.7,0,0,1-5.39-1.2,3.75,3.75,0,0,1,.8-5.19,4.84,4.84,0,0,1,2.59-.8c1.4,0,5,.8,8,.2l.8-.2c3-.6,6.6-3,8-5.79l3.2-5.39c1.79-3,1.59-6.2-.2-7.39l-3.39-2a7.2,7.2,0,0,0-6.4,0l-23.55,13a7.12,7.12,0,0,0-3.2,5.59V53.29a6.4,6.4,0,0,0,3.2,5.19L35.42,71.66a7.2,7.2,0,0,0,6.4,0L65.18,58.28a6.4,6.4,0,0,0,3.2-5.19V27.73a6.42,6.42,0,0,0-3.2-5.19Z" transform="translate(-8.46 -8.41)"/></svg>