<?xml version="1.0" encoding="utf-8"?>
<!-- Generator: Adobe Illustrator 25.4.1, SVG Export Plug-In . SVG Version: 6.00 Build 0)  -->
<svg version="1.1" id="Layer_1" xmlns="http://www.w3.org/2000/svg" xmlns:xlink="http://www.w3.org/1999/xlink" x="0px" y="0px"
	 viewBox="0 0 400 400" style="enable-background:new 0 0 400 400;" xml:space="preserve">
<style type="text/css">
	.st0{fill:#CFA746;}
	.st1{fill:#FFFFFF;}
</style>
<circle class="st0" cx="200" cy="200" r="200"/>
<path class="st1" d="M200,381.1c-99.9,0-181.1-81.2-181.1-181.1S100.1,18.9,200,18.9S381.1,100.1,381.1,200S299.9,381.1,200,381.1
	L200,381.1z"/>
<path class="st0" d="M253.3,65.9c-0.2,0.1-0.3,0.1-0.4,0.1c-10.4,5.4-24,22.2-24,92.4c0,34.5,14.4,47.8,16.3,51.8
	c7,20.1-2.5,83.5-5.1,106.9c-0.8,7.8,2.8,16.1,9.9,16.1c1.1,0,2.2-0.2,3.3-0.5v-0.1c5.6-1.6,9.8-5.8,9.8-12.4V73.3
	C263.1,67.7,257.9,63.9,253.3,65.9z"/>
<path class="st0" d="M176.2,66.1l-1.1,83.6h-4.5l-3.9-83.6h-1.7l-2.1,83.6H157l-2-83.6h-1.4l-4,83.6h-4.5l-1.2-83.6h-1.4
	c-3,19.4-6.6,54.2-6.4,73.5c0.2,18.7,2.9,22,16.1,29.5c7,26.5-3.3,112.6-5.2,150.1c-0.3,6.6,4.2,12.5,10.7,13.9v0.1
	c0.8,0.2,1.5,0.3,2.3,0.3c7.2,0,13.4-6.4,13.1-14.2c-1.7-37.5-11-122.5-5.2-150.1c13.2-7.3,16-10.4,16-29.5
	c0.1-19.3-3.4-53.6-6.5-73.5L176.2,66.1z"/>
</svg>
