<svg id="Layer_1" data-name="Layer 1" xmlns="http://www.w3.org/2000/svg" viewBox="0 0 400 400"><defs><style>.cls-1{fill:#c2a851;}.cls-2{fill:#fff;}</style></defs><path class="cls-1" d="M960.2,339.73c-110.46,0-200,89.54-200,200s89.54,200,200,200,200-89.54,200-200S1070.65,339.73,960.2,339.73Zm0,352.52c-84.1,0-152.53-68.42-152.53-152.52S876.1,387.2,960.2,387.2s152.52,68.43,152.52,152.53S1044.3,692.25,960.2,692.25Z" transform="translate(-760.2 -339.73)"/><circle class="cls-1" cx="200" cy="200" r="145.4"/><path class="cls-2" d="M1007.78,419.81c-.13.06-.26.07-.38.13-9.3,4.79-21.48,19.85-21.48,82.61,0,30.82,12.88,42.71,14.56,46.34,6.23,18-2.27,74.61-4.53,95.56-.75,7,2.46,14.41,8.88,14.41a10.7,10.7,0,0,0,2.95-.46v-.06c5-1.43,8.73-5.2,8.73-11.09V426.44C1016.51,421.4,1011.87,418.05,1007.78,419.81Z" transform="translate(-760.2 -339.73)"/><path class="cls-2" d="M938.89,419.94l-.95,74.72h-4.05l-3.46-74.72h-1.51L927,494.66h-5.3L920,419.94h-1.23l-3.62,74.72h-4.06L910,419.94h-1.29c-2.69,17.34-5.91,48.46-5.71,65.67.2,16.75,2.61,19.68,14.35,26.33,6.3,23.69-3,100.66-4.62,134.19a12.14,12.14,0,0,0,9.61,12.41v.09a10.1,10.1,0,0,0,2.07.23c6.42,0,12-5.73,11.68-12.73-1.5-33.53-9.84-109.52-4.62-134.19,11.83-6.49,14.26-9.26,14.35-26.33s-3-47.94-5.78-65.67Z" transform="translate(-760.2 -339.73)"/></svg>