<?xml version="1.0" encoding="utf-8"?>
<!-- Generator: Adobe Illustrator 25.4.1, SVG Export Plug-In . SVG Version: 6.00 Build 0)  -->
<svg version="1.1" id="Mono-Icon" xmlns="http://www.w3.org/2000/svg" xmlns:xlink="http://www.w3.org/1999/xlink" x="0px" y="0px"
	 viewBox="0 0 331.1 450" style="enable-background:new 0 0 331.1 450;" xml:space="preserve">
<style type="text/css">
	.st0{fill:#E169FF;}
	.st1{fill:#23D665;}
	.st2{fill:#66C6FF;}
	.st3{fill:#FF676E;}
</style>
<path class="st0" d="M50.4,249.1c9.4,0,18.7-2.1,27.1-6.2v148.5c0,15-12.1,27.1-27.1,27.1s-27.1-12.1-27.1-27.1l0.2-55.8
	c-13,0-23.5-10.5-23.5-23.5l0,0v-18c0-22.2,4.9-41.5,23.2-51.2C31.7,247,41,249.1,50.4,249.1z"/>
<path class="st1" d="M165.5,189.1c33.1,0,59.9-26.8,59.9-59.9s-26.8-59.9-59.9-59.9s-59.9,26.8-59.9,59.9S132.4,189.1,165.5,189.1
	L165.5,189.1z"/>
<path class="st2" d="M160,32.6V7.7c-0.2-4.3,3.2-7.9,7.5-8c4.3-0.2,7.9,3.2,8,7.5c0,0.2,0,0.4,0,0.6v24.9c0.2,4.3-3.2,7.9-7.5,8
	c-4.3,0.2-7.9-3.2-8-7.5C160,33,160,32.8,160,32.6z"/>
<path class="st2" d="M109.5,47.9L97.1,26.3c-2-3.8-0.7-8.5,3.1-10.5c3.6-2,8.1-0.8,10.3,2.8L123,40.2c2,3.8,0.7,8.5-3.1,10.5
	C116.2,52.6,111.7,51.4,109.5,47.9z"/>
<path class="st2" d="M73.5,86.4L51.9,73.9c-3.8-2-5.1-6.7-3.1-10.5s6.7-5.1,10.5-3.1c0.1,0.1,0.2,0.1,0.3,0.2L81.2,73
	c3.6,2.2,4.8,7,2.6,10.6C81.6,87.2,77.1,88.4,73.5,86.4L73.5,86.4z"/>
<path class="st2" d="M249.9,80.8l21.6-12.4c3.8-2,8.5-0.7,10.5,3.1c2,3.6,0.8,8.1-2.8,10.3l-21.6,12.5c-3.6,2.2-8.4,1.1-10.6-2.6
	c-2.2-3.6-1.1-8.4,2.6-10.6C249.6,80.9,249.7,80.8,249.9,80.8L249.9,80.8z"/>
<path class="st2" d="M211.4,44.7l12.5-21.6c2-3.8,6.7-5.1,10.5-3.1s5.1,6.7,3.1,10.5c-0.1,0.1-0.1,0.2-0.2,0.3l-12.5,21.6
	c-2.1,3.7-6.9,5-10.6,2.8C210.5,53.1,209.3,48.4,211.4,44.7L211.4,44.7L211.4,44.7z"/>
<path class="st0" d="M50.4,134.8c-27.2,0-49.2,22.1-49.2,49.2c0,27.2,22.1,49.2,49.2,49.2c27.2,0,49.2-22.1,49.2-49.2l0,0
	C99.6,156.8,77.6,134.8,50.4,134.8z"/>
<path class="st3" d="M307.8,242.9c-17.1,8.3-37.1,8.3-54.3,0v148.5c0,15,12.1,27.1,27.1,27.1s27.1-12.1,27.1-27.1l-0.2-55.8
	c13,0,23.5-10.5,23.5-23.5v-18C331.1,271.9,326.2,252.6,307.8,242.9z"/>
<path class="st3" d="M329.9,184c0-27.2-22-49.2-49.2-49.3c-27.2,0-49.2,22-49.3,49.2c0,27.2,22,49.2,49.2,49.3l0,0
	C307.9,233.2,329.9,211.2,329.9,184z"/>
<path class="st1" d="M198.5,198.1c-20.8,10.1-45.2,10.1-66,0C109.4,210.3,95,234.3,95,260.4v49.7c0,15.8,12.8,28.5,28.5,28.5h5.6v75
	c0,20.1,16.3,36.4,36.4,36.4s36.4-16.3,36.4-36.4v-75h5.6c15.8,0,28.5-12.8,28.5-28.5v-49.7C236.1,234.3,221.6,210.3,198.5,198.1z"
	/>
</svg>
