<svg id="Layer_1" data-name="Layer 1" xmlns="http://www.w3.org/2000/svg" viewBox="0 0 1214.45 1125.88"><defs><style>.cls-1{fill:#ff1a3e;}</style></defs><path class="cls-1" d="M1116.93,133.77l-14-14c-62.93-62.93-147-97.54-236.8-97.54H865c-90.19.29-174.85,35.44-238.39,99l-26.28,26.29-61.41-67.8-.7-.74C425.82-33.44,234.24-24.81,111.14,98.25l-13,13.06C39,170.43,4.31,247.31.42,327.84-3.51,409.11,24.36,483.9,78.9,538.44L225,684.57,210,703a88.1,88.1,0,0,0,83.63,142.21,88.11,88.11,0,0,0,103,93.11,89.61,89.61,0,0,0,.25,15.54,88.11,88.11,0,0,0,102.82,77.55A88.06,88.06,0,0,0,656,1093.21l71.23-88a87.94,87.94,0,0,0,16.4-31.72l14.73,15.85a96.89,96.89,0,0,0,70.94,31.21,90.12,90.12,0,0,0,61.71-24c23.73-22,32.79-54.23,27-84.65,1.17.19,2.33.38,3.51.53a96.68,96.68,0,0,0,12.26.78c21.63,0,41.41-7.49,56.65-21.65,28.75-26.71,33.37-70.84,14.72-108.76h.91c21,0,41.19-7,56.78-21.52,29.64-27.54,33.64-73.6,12.9-112.29l39.59-38.81.14-.15c63.54-63.54,98.7-148.2,99-238.38S1180.12,196.94,1116.93,133.77Zm-867.82,661a46.75,46.75,0,0,1-6.91-65.69l26.61-32.87.07-.09,44.55-55A46.71,46.71,0,1,1,386.79,699l-.76.93-71.23,88a46.71,46.71,0,0,1-65.69,6.92Zm103,93.1a46.7,46.7,0,0,1-6.92-65.68h0l71.23-88A46.7,46.7,0,1,1,489,793L417.8,881a46.7,46.7,0,0,1-65.68,6.92h0Zm103,93.11a46.71,46.71,0,0,1-6.91-65.69l71.23-88A46.7,46.7,0,0,1,592,886.06h0l-71.23,88A46.71,46.71,0,0,1,455.11,981Zm250.13-36a46.37,46.37,0,0,1-10.15,34.27l-71.23,88a46.71,46.71,0,0,1-72.61-58.78l71.24-88a46.62,46.62,0,0,1,64.77-7.59l10.61,11.41A46.54,46.54,0,0,1,705.24,944.94ZM1034.68,731c-19.51,18.14-54.3,12.55-77.55-12.47l-180-189.72c-.21-.21-.43-.4-.65-.61s-.52-.52-.79-.76-.52-.42-.78-.62-.56-.46-.85-.66-.57-.37-.85-.55-.58-.38-.88-.55-.6-.31-.91-.47-.59-.31-.89-.44-.64-.25-1-.38l-.91-.35-1-.28c-.31-.09-.62-.18-.93-.25s-.67-.13-1-.19-.63-.12-1-.16l-1-.09c-.33,0-.66-.06-1-.07h-2l-1,.1a5.47,5.47,0,0,0-1,.13l-.94.19c-.31.07-.68.13-1,.21l-.93.29c-.33.1-.66.2-1,.32s-.61.25-.91.38-.64.25-1,.41a8.1,8.1,0,0,0-.89.48c-.29.17-.61.32-.9.5s-.58.38-.87.58-.57.38-.85.59-.54.45-.8.68-.49.38-.72.59l-.1.1-.1.09c-.22.2-.4.43-.61.63s-.52.53-.76.81-.41.51-.61.76-.47.58-.68.87-.35.55-.53.82-.39.6-.56.91-.31.58-.45.87-.33.62-.47.93-.24.61-.36.92-.25.63-.36,1-.18.63-.27.94-.19.65-.27,1-.12.64-.18,1-.12.66-.17,1,0,.64-.08,1a5.93,5.93,0,0,0-.08,1c0,.32,0,.63,0,1v1c0,.31.07.63.1.94s.07.7.12,1,.13.61.19.92.13.69.22,1,.19.61.28.91.2.68.32,1,.25.6.38.9.26.64.41,1a9.14,9.14,0,0,0,.48.89c.16.3.32.61.51.9s.38.58.58.86.38.58.59.85.45.54.67.81.39.49.6.72L955.3,783.12c23.24,25,26.27,60.12,6.75,78.26-8.93,8.3-21.55,11.9-35.54,10.12-15.36-2-30.29-10-42-22.59L701.72,656.17c-.21-.22-.44-.42-.66-.63s-.51-.51-.77-.74-.53-.42-.8-.63-.55-.45-.84-.65-.56-.37-.85-.55-.57-.38-.87-.55-.61-.32-.91-.47-.59-.31-.89-.44-.64-.26-1-.38-.6-.25-.9-.35-.67-.19-1-.28l-.92-.26-1-.18-.94-.17-1-.09c-.32,0-.64-.06-1-.07h-2c-.34,0-.65.07-1,.1s-.67.07-1,.12-.64.13-1,.19-.66.13-1,.22-.62.19-.93.28-.66.2-1,.32-.61.25-.92.38-.63.26-.94.41-.6.32-.91.48-.59.32-.89.5-.58.39-.87.59-.57.37-.84.58-.55.46-.82.69-.48.37-.7.58l-.1.1-.11.09c-.22.21-.41.44-.62.66s-.51.51-.75.78-.41.52-.62.78-.45.56-.66.85-.36.55-.54.83-.39.59-.56.9-.3.58-.45.87-.32.62-.46.93-.25.61-.36.92-.26.63-.37,1-.18.64-.27,1-.19.64-.26,1-.13.66-.18,1-.13.65-.17,1-.06.65-.09,1-.06.67-.07,1,0,.65,0,1v1a9.53,9.53,0,0,0,.11,1c0,.36.06.68.11,1s.13.64.19,1,.14.67.22,1,.19.63.29.94.19.65.31,1,.26.63.39.94.25.62.4.92.33.62.49.92.31.59.49.88.4.59.6.89.37.55.57.82.46.56.7.84.37.46.57.68L863.24,891.94c20.34,21.89,20.17,55.23-.38,74.32s-53.81,16.81-74.15-5.08l-58.4-62.85A88.91,88.91,0,0,0,714.9,881.9l-.19-.16-.49-.42A88,88,0,0,0,643.64,863a89.61,89.61,0,0,0-.26-15.54A88.11,88.11,0,0,0,540.62,769.9a88.11,88.11,0,0,0-103-93.1,89.61,89.61,0,0,0-.26-15.54A88.09,88.09,0,0,0,281.24,615l-30.1,37.18-143-143C62,463,38.37,399.35,41.73,329.89c3.4-70.22,33.81-137.44,85.65-189.27l13-13C247.24,20.72,412.29,11.94,508.65,107.94l62.43,68.92-9.46,9.46c-.46.46-.89.94-1.3,1.43-.26.23-.53.43-.78.67L388,348.83a103.31,103.31,0,0,0,67.7,178.49h3.2a102.55,102.55,0,0,0,70.71-28.06L724.94,316.14l302.77,336.37.22.24c23.25,25,26.31,60.12,6.75,78.25Zm51.62-150.26-35.85,35.16L741.58,272.75l-.16-.15a1,1,0,0,0-.13-.16c-.19-.2-.4-.38-.59-.57s-.52-.52-.79-.76-.51-.42-.76-.63-.57-.46-.86-.67l-.82-.55c-.3-.19-.59-.39-.89-.56s-.59-.32-.89-.47-.6-.32-.91-.46-.63-.26-.94-.39l-.92-.35-1-.3c-.31-.09-.61-.18-.92-.25l-1-.21c-.31,0-.62-.12-.93-.16l-1-.11c-.31,0-.63-.06-.94-.07h-2l-1,.09a7.44,7.44,0,0,0-1,.11c-.36.05-.67.12-1,.19s-.63.12-.94.2l-1,.29c-.33.1-.62.18-.92.29l-1,.39c-.34.13-.6.24-.89.38l-1,.5c-.36.17-.58.3-.86.46s-.61.4-.91.6-.55.37-.82.57-.56.45-.84.68-.43.34-.64.53c-.06,0-.1.1-.15.14l-.16.14L501.29,469.15a61.93,61.93,0,1,1-85-90.14h0L587.81,218.64a22.7,22.7,0,0,0,1.71-1.82c.47-.39.93-.8,1.37-1.24l65-65c115.57-115.58,303-116.22,417.77-1.44l14,14c114.76,114.66,114.13,302-1.36,417.6Z" transform="translate(-0.05 0)"/></svg>