<?xml version="1.0" encoding="utf-8"?>
<!-- Generator: Adobe Illustrator 25.4.1, SVG Export Plug-In . SVG Version: 6.00 Build 0)  -->
<svg version="1.1" id="Layer_1" xmlns="http://www.w3.org/2000/svg" xmlns:xlink="http://www.w3.org/1999/xlink" x="0px" y="0px"
	 viewBox="0 0 716 650.5" style="enable-background:new 0 0 716 650.5;" xml:space="preserve">
<style type="text/css">
	.st0{clip-path:url(#SVGID_00000030468787912757713400000005160954179500538291_);}
	.st1{fill:none;}
	.st2{fill:#B46E11;}
	.st3{fill:#A1A1A1;}
</style>
<g>
	<defs>
		<path id="SVGID_1_" d="M230.7,581c18.5-31.2,25.7-67.3,0-93c-27.4-27.4-96.6-41.2-141.8,50.5c-27.6,56-60.4,78-81.1,86.8
			c-2.1,0.9-3.1,3.3-2.2,5.4c0,0,0,0,0,0c0.6,1.3,1.7,2.2,3.1,2.5C62.1,642.1,176.5,672.3,230.7,581z"/>
	</defs>
	<clipPath id="SVGID_00000160912024526092131370000001206778291107025312_">
		<use xlink:href="#SVGID_1_"  style="overflow:visible;"/>
	</clipPath>
	<g style="clip-path:url(#SVGID_00000160912024526092131370000001206778291107025312_);">
		<rect x="0.2" y="462.5" class="st1" width="252.1" height="187.7"/>
		<g>
			
				<image style="overflow:visible;enable-background:new    ;" width="526" height="392" xlink:href="DEFD59F61DB0D5BE.png"  transform="matrix(0.48 0 0 0.48 0 462.37)">
			</image>
		</g>
	</g>
</g>
<path class="st2" d="M340.9,375.1c12.8,12.8,22.4,28.4,28,45.6c35.3-33.2,79.5-82,151.1-162.1C628.1,137.6,689.4,49.3,715,9.8
	c1.9-2.9,1.1-6.7-1.8-8.6c0,0-0.1-0.1-0.1-0.1c-2.1-1.4-4.8-1.4-6.9,0c-39.5,25.6-127.8,86.9-248.8,195
	c-80.1,71.4-128.8,115.7-162.1,151C312.5,352.6,328.1,362.2,340.9,375.1z"/>
<path class="st3" d="M253.5,465.1c7.3,7.3,13.3,15.7,17.7,25c28.4-14.5,50.8-28.7,76.5-50.6c-6.9-36.2-35.3-64.6-71.5-71.5
	c-22.1,26-36.3,48.6-51,77.4C235.7,450.4,245.2,457,253.5,465.1z"/>
</svg>
