<svg id="Layer_1" data-name="Layer 1" xmlns="http://www.w3.org/2000/svg" xmlns:xlink="http://www.w3.org/1999/xlink" viewBox="0 0 710.76 645.2"><defs><style>.cls-1{fill:url(#radial-gradient);}.cls-2{fill:#b46e11;}.cls-3{fill:#a1a1a1;}</style><radialGradient id="radial-gradient" cx="76.46" cy="613.82" fx="-92.44793679591572" fy="754.0350522516651" r="219.52" gradientUnits="userSpaceOnUse"><stop offset="0.07" stop-color="#c206bc"/><stop offset="0.24" stop-color="#da3aaa"/><stop offset="0.41" stop-color="#ee679b"/><stop offset="0.54" stop-color="#fa8291"/><stop offset="0.61" stop-color="#ff8c8e"/><stop offset="0.69" stop-color="#fc8b8b"/><stop offset="0.75" stop-color="#f28783"/><stop offset="0.81" stop-color="#e18176"/><stop offset="0.86" stop-color="#c97963"/><stop offset="0.92" stop-color="#ab6e4b"/><stop offset="0.96" stop-color="#8a6230"/></radialGradient></defs><path class="cls-1" d="M225.4,581.2c18.5-31.2,25.7-67.3,0-93C198,460.8,128.8,447,83.6,538.7c-27.6,56-60.4,78-81.1,86.8a4.11,4.11,0,0,0-2.2,5.4,4.37,4.37,0,0,0,3.1,2.5C56.8,642.3,171.2,672.5,225.4,581.2Z" transform="translate(0.03 -0.15)"/><path class="cls-2" d="M335.6,375.2a114.7,114.7,0,0,1,28,45.6c35.3-33.2,79.5-82,151.1-162.1,108.1-121,169.4-209.3,195-248.8a6.22,6.22,0,0,0-1.9-8.7,6.19,6.19,0,0,0-6.9,0c-39.5,25.6-127.8,86.9-248.8,195C372,267.6,323.3,311.9,290,347.2A114,114,0,0,1,335.6,375.2Z" transform="translate(0.03 -0.15)"/><path class="cls-3" d="M248.2,465.3a89.45,89.45,0,0,1,17.7,25c28.4-14.5,50.8-28.7,76.5-50.6a90,90,0,0,0-71.5-71.5c-22.1,26-36.3,48.6-51,77.4A102,102,0,0,1,248.2,465.3Z" transform="translate(0.03 -0.15)"/></svg>