<svg id="Layer_1" data-name="Layer 1" xmlns="http://www.w3.org/2000/svg" xmlns:xlink="http://www.w3.org/1999/xlink" viewBox="0 0 710.79 645.33"><defs><style>.cls-1{fill:url(#linear-gradient);}.cls-2{fill:#b46e11;}.cls-3{fill:#a1a1a1;}</style><linearGradient id="linear-gradient" x1="21.81" y1="640.79" x2="226.39" y2="507.74" gradientUnits="userSpaceOnUse"><stop offset="0" stop-color="#54e8d1"/><stop offset="0.48" stop-color="#55bccd"/><stop offset="1" stop-color="#5688c9"/></linearGradient></defs><path class="cls-1" d="M225.37,581.19c18.54-31.25,25.69-67.34,0-93C197.94,460.76,128.75,447,83.6,538.72c-27.57,56-60.44,78-81.12,86.81a4.14,4.14,0,0,0,.94,7.89C56.83,642.31,171.23,672.54,225.37,581.19Z" transform="translate(0.03 -0.05)"/><path class="cls-2" d="M335.64,375.18a114.67,114.67,0,0,1,28,45.6c35.26-33.25,79.52-82,151.1-162.13,108.1-121,169.36-209.3,195-248.85A6.32,6.32,0,0,0,701,1.06c-39.55,25.61-127.81,86.88-248.85,195C372,267.64,323.27,311.91,290,347.16A114.86,114.86,0,0,1,335.64,375.18Z" transform="translate(0.03 -0.05)"/><path class="cls-3" d="M248.22,465.34A89.3,89.3,0,0,1,266,490.39c28.39-14.53,50.84-28.7,76.54-50.56A90,90,0,0,0,271,368.31c-22.07,26-36.3,48.59-51,77.37A100.1,100.1,0,0,1,248.22,465.34Z" transform="translate(0.03 -0.05)"/></svg>