<svg id="Layer_1" data-name="Layer 1" xmlns="http://www.w3.org/2000/svg" viewBox="0 0 540 558"><defs><style>.cls-1{fill:#fff;stroke:#d8d8d8;stroke-width:90px;}.cls-2{fill:#efefef;}.cls-3{fill:#d0891f;}.cls-4{fill:#eab25e;}.cls-5{fill:#f9f9f9;fill-rule:evenodd;}</style></defs><path class="cls-1" d="M94.86,513,49.57,45H491.23L453.48,513Z" transform="translate(0)"/><path class="cls-2" d="M31.25,0h485L459,472.5H90Z" transform="translate(0)"/><path class="cls-3" d="M63,252c23.67-.64-9,2.47,76.5-7.76S497.17,149.78,486,252C473,371.42,463.5,450,459,472.5s-364.5,27-369,0S63,252,63,252Z" transform="translate(0)"/><rect class="cls-4" x="302.35" y="302.35" width="144" height="144" rx="9" transform="translate(-74.62 93.81) rotate(-13)"/><path class="cls-4" d="M118,243.38l75.53-96.94a8.37,8.37,0,0,1,12.28-1.15l93.34,82.23a9.69,9.69,0,0,1,1.22,13L224.85,337.5a8.37,8.37,0,0,1-12.29,1.15l-93.33-82.22A9.68,9.68,0,0,1,118,243.38Z" transform="translate(0)"/><path class="cls-5" d="M116.25,247.15l170-31-80.42-70.85a8.37,8.37,0,0,0-12.28,1.15L118,243.38A9.18,9.18,0,0,0,116.25,247.15Z" transform="translate(0)"/></svg>