<svg id="Layer_1" data-name="Layer 1" xmlns="http://www.w3.org/2000/svg" viewBox="0 0 3047.11 1608"><defs><style>.cls-1{fill:#fff;}</style></defs><rect y="1484.31" width="3047.11" height="123.69"/><rect class="cls-1" y="1360.62" width="3047.11" height="123.69"/><rect y="1236.92" width="3047.11" height="123.69"/><rect class="cls-1" y="1113.23" width="3047.11" height="123.69"/><rect y="989.54" width="3047.11" height="123.69"/><rect class="cls-1" y="865.85" width="3047.11" height="123.69"/><rect y="742.15" width="3047.11" height="123.69"/><rect class="cls-1" y="618.46" width="3047.11" height="123.69"/><rect y="494.77" width="3047.11" height="123.69"/><rect class="cls-1" y="371.08" width="3047.11" height="123.69"/><rect y="247.38" width="3047.11" height="123.69"/><rect class="cls-1" y="123.69" width="3047.11" height="123.69"/><rect width="3047.11" height="123.69"/><rect width="1219.19" height="865.58"/><polygon class="cls-1" points="112.87 67.33 142.94 71.86 121.09 93.16 126.11 123.39 99.25 109.02 72.28 123.18 77.54 92.99 55.86 71.5 85.96 67.22 99.53 39.79 112.87 67.33"/><polygon class="cls-1" points="316.95 67.33 347.02 71.86 325.17 93.16 330.18 123.39 303.33 109.02 276.36 123.18 281.62 92.99 259.94 71.5 290.04 67.22 303.61 39.79 316.95 67.33"/><polygon class="cls-1" points="521.03 67.33 551.1 71.86 529.24 93.16 534.26 123.39 507.41 109.02 480.44 123.18 485.7 92.99 464.02 71.5 494.12 67.22 507.69 39.79 521.03 67.33"/><polygon class="cls-1" points="725.11 67.33 755.18 71.86 733.32 93.16 738.34 123.39 711.49 109.02 684.52 123.18 689.78 92.99 668.1 71.5 698.2 67.22 711.76 39.79 725.11 67.33"/><polygon class="cls-1" points="929.19 67.33 959.26 71.86 937.4 93.16 942.42 123.39 915.57 109.02 888.6 123.18 893.86 92.99 872.17 71.5 902.28 67.22 915.84 39.79 929.19 67.33"/><polygon class="cls-1" points="213.15 159.56 243.22 164.09 221.37 185.4 226.38 215.63 199.53 201.26 172.56 215.41 177.82 185.22 156.14 163.74 186.24 159.45 199.81 132.02 213.15 159.56"/><polygon class="cls-1" points="417.23 159.56 447.3 164.09 425.44 185.4 430.46 215.63 403.61 201.26 376.64 215.41 381.9 185.22 360.22 163.74 390.32 159.45 403.89 132.02 417.23 159.56"/><polygon class="cls-1" points="621.31 159.56 651.38 164.09 629.52 185.4 634.54 215.63 607.69 201.26 580.72 215.41 585.98 185.22 564.3 163.74 594.4 159.45 607.97 132.02 621.31 159.56"/><polygon class="cls-1" points="825.39 159.56 855.46 164.09 833.6 185.4 838.62 215.63 811.77 201.26 784.8 215.41 790.06 185.22 768.38 163.74 798.48 159.45 812.04 132.02 825.39 159.56"/><polygon class="cls-1" points="1029.47 159.56 1059.54 164.09 1037.68 185.4 1042.7 215.63 1015.85 201.26 988.88 215.41 994.14 185.22 972.45 163.74 1002.56 159.45 1016.12 132.02 1029.47 159.56"/><polygon class="cls-1" points="1133.27 67.33 1163.34 71.86 1141.48 93.16 1146.5 123.39 1119.65 109.02 1092.68 123.18 1097.94 92.99 1076.25 71.5 1106.36 67.22 1119.92 39.79 1133.27 67.33"/><polygon class="cls-1" points="112.87 242.93 142.94 247.46 121.09 268.76 126.11 298.99 99.25 284.62 72.28 298.78 77.54 268.59 55.86 247.1 85.96 242.82 99.53 215.38 112.87 242.93"/><polygon class="cls-1" points="316.95 242.93 347.02 247.46 325.17 268.76 330.18 298.99 303.33 284.62 276.36 298.78 281.62 268.59 259.94 247.1 290.04 242.82 303.61 215.38 316.95 242.93"/><polygon class="cls-1" points="521.03 242.93 551.1 247.46 529.24 268.76 534.26 298.99 507.41 284.62 480.44 298.78 485.7 268.59 464.02 247.1 494.12 242.82 507.69 215.38 521.03 242.93"/><polygon class="cls-1" points="725.11 242.93 755.18 247.46 733.32 268.76 738.34 298.99 711.49 284.62 684.52 298.78 689.78 268.59 668.1 247.1 698.2 242.82 711.76 215.38 725.11 242.93"/><polygon class="cls-1" points="929.19 242.93 959.26 247.46 937.4 268.76 942.42 298.99 915.57 284.62 888.6 298.78 893.86 268.59 872.17 247.1 902.28 242.82 915.84 215.38 929.19 242.93"/><polygon class="cls-1" points="213.15 335.16 243.22 339.69 221.37 361 226.38 391.23 199.53 376.86 172.56 391.01 177.82 360.82 156.14 339.34 186.24 335.05 199.81 307.62 213.15 335.16"/><polygon class="cls-1" points="417.23 335.16 447.3 339.69 425.44 361 430.46 391.23 403.61 376.86 376.64 391.01 381.9 360.82 360.22 339.34 390.32 335.05 403.89 307.62 417.23 335.16"/><polygon class="cls-1" points="621.31 335.16 651.38 339.69 629.52 361 634.54 391.23 607.69 376.86 580.72 391.01 585.98 360.82 564.3 339.34 594.4 335.05 607.97 307.62 621.31 335.16"/><polygon class="cls-1" points="825.39 335.16 855.46 339.69 833.6 361 838.62 391.23 811.77 376.86 784.8 391.01 790.06 360.82 768.38 339.34 798.48 335.05 812.04 307.62 825.39 335.16"/><polygon class="cls-1" points="1029.47 335.16 1059.54 339.69 1037.68 361 1042.7 391.23 1015.85 376.86 988.88 391.01 994.14 360.82 972.45 339.34 1002.56 335.05 1016.12 307.62 1029.47 335.16"/><polygon class="cls-1" points="1133.27 242.93 1163.34 247.46 1141.48 268.76 1146.5 298.99 1119.65 284.62 1092.68 298.78 1097.94 268.59 1076.25 247.1 1106.36 242.82 1119.92 215.38 1133.27 242.93"/><polygon class="cls-1" points="1133.27 242.93 1163.34 247.46 1141.48 268.76 1146.5 298.99 1119.65 284.62 1092.68 298.78 1097.94 268.59 1076.25 247.1 1106.36 242.82 1119.92 215.38 1133.27 242.93"/><polygon class="cls-1" points="112.87 418.52 142.94 423.05 121.09 444.36 126.11 474.59 99.25 460.22 72.28 474.37 77.54 444.19 55.86 422.7 85.96 418.42 99.53 390.98 112.87 418.52"/><polygon class="cls-1" points="316.95 418.52 347.02 423.05 325.17 444.36 330.18 474.59 303.33 460.22 276.36 474.37 281.62 444.19 259.94 422.7 290.04 418.42 303.61 390.98 316.95 418.52"/><polygon class="cls-1" points="521.03 418.52 551.1 423.05 529.24 444.36 534.26 474.59 507.41 460.22 480.44 474.37 485.7 444.19 464.02 422.7 494.12 418.42 507.69 390.98 521.03 418.52"/><polygon class="cls-1" points="725.11 418.52 755.18 423.05 733.32 444.36 738.34 474.59 711.49 460.22 684.52 474.37 689.78 444.19 668.1 422.7 698.2 418.42 711.76 390.98 725.11 418.52"/><polygon class="cls-1" points="929.19 418.52 959.26 423.05 937.4 444.36 942.42 474.59 915.57 460.22 888.6 474.37 893.86 444.19 872.17 422.7 902.28 418.42 915.84 390.98 929.19 418.52"/><polygon class="cls-1" points="213.15 510.76 243.22 515.29 221.37 536.59 226.38 566.83 199.53 552.45 172.56 566.61 177.82 536.42 156.14 514.93 186.24 510.65 199.81 483.22 213.15 510.76"/><polygon class="cls-1" points="417.23 510.76 447.3 515.29 425.44 536.59 430.46 566.83 403.61 552.45 376.64 566.61 381.9 536.42 360.22 514.93 390.32 510.65 403.89 483.22 417.23 510.76"/><polygon class="cls-1" points="621.31 510.76 651.38 515.29 629.52 536.59 634.54 566.83 607.69 552.45 580.72 566.61 585.98 536.42 564.3 514.93 594.4 510.65 607.97 483.22 621.31 510.76"/><polygon class="cls-1" points="825.39 510.76 855.46 515.29 833.6 536.59 838.62 566.83 811.77 552.45 784.8 566.61 790.06 536.42 768.38 514.93 798.48 510.65 812.04 483.22 825.39 510.76"/><polygon class="cls-1" points="1029.47 510.76 1059.54 515.29 1037.68 536.59 1042.7 566.83 1015.85 552.45 988.88 566.61 994.14 536.42 972.45 514.93 1002.56 510.65 1016.12 483.22 1029.47 510.76"/><polygon class="cls-1" points="1133.27 418.52 1163.34 423.05 1141.48 444.36 1146.5 474.59 1119.65 460.22 1092.68 474.37 1097.94 444.19 1076.25 422.7 1106.36 418.42 1119.92 390.98 1133.27 418.52"/><polygon class="cls-1" points="112.87 594.12 142.94 598.65 121.09 619.96 126.11 650.19 99.25 635.82 72.28 649.97 77.54 619.78 55.86 598.3 85.96 594.01 99.53 566.58 112.87 594.12"/><polygon class="cls-1" points="316.95 594.12 347.02 598.65 325.17 619.96 330.18 650.19 303.33 635.82 276.36 649.97 281.62 619.78 259.94 598.3 290.04 594.01 303.61 566.58 316.95 594.12"/><polygon class="cls-1" points="521.03 594.12 551.1 598.65 529.24 619.96 534.26 650.19 507.41 635.82 480.44 649.97 485.7 619.78 464.02 598.3 494.12 594.01 507.69 566.58 521.03 594.12"/><polygon class="cls-1" points="725.11 594.12 755.18 598.65 733.32 619.96 738.34 650.19 711.49 635.82 684.52 649.97 689.78 619.78 668.1 598.3 698.2 594.01 711.76 566.58 725.11 594.12"/><polygon class="cls-1" points="929.19 594.12 959.26 598.65 937.4 619.96 942.42 650.19 915.57 635.82 888.6 649.97 893.86 619.78 872.17 598.3 902.28 594.01 915.84 566.58 929.19 594.12"/><polygon class="cls-1" points="213.15 686.36 243.22 690.89 221.37 712.19 226.38 742.42 199.53 728.05 172.56 742.21 177.82 712.02 156.14 690.53 186.24 686.25 199.81 658.82 213.15 686.36"/><polygon class="cls-1" points="417.23 686.36 447.3 690.89 425.44 712.19 430.46 742.42 403.61 728.05 376.64 742.21 381.9 712.02 360.22 690.53 390.32 686.25 403.89 658.82 417.23 686.36"/><polygon class="cls-1" points="621.31 686.36 651.38 690.89 629.52 712.19 634.54 742.42 607.69 728.05 580.72 742.21 585.98 712.02 564.3 690.53 594.4 686.25 607.97 658.82 621.31 686.36"/><polygon class="cls-1" points="825.39 686.36 855.46 690.89 833.6 712.19 838.62 742.42 811.77 728.05 784.8 742.21 790.06 712.02 768.38 690.53 798.48 686.25 812.04 658.82 825.39 686.36"/><polygon class="cls-1" points="1029.47 686.36 1059.54 690.89 1037.68 712.19 1042.7 742.42 1015.85 728.05 988.88 742.21 994.14 712.02 972.45 690.53 1002.56 686.25 1016.12 658.82 1029.47 686.36"/><polygon class="cls-1" points="1133.27 594.12 1163.34 598.65 1141.48 619.96 1146.5 650.19 1119.65 635.82 1092.68 649.97 1097.94 619.78 1076.25 598.3 1106.36 594.01 1119.92 566.58 1133.27 594.12"/><polygon class="cls-1" points="112.87 769.72 142.94 774.25 121.09 795.56 126.11 825.79 99.25 811.42 72.28 825.57 77.54 795.38 55.86 773.9 85.96 769.61 99.53 742.18 112.87 769.72"/><polygon class="cls-1" points="316.95 769.72 347.02 774.25 325.17 795.56 330.18 825.79 303.33 811.42 276.36 825.57 281.62 795.38 259.94 773.9 290.04 769.61 303.61 742.18 316.95 769.72"/><polygon class="cls-1" points="521.03 769.72 551.1 774.25 529.24 795.56 534.26 825.79 507.41 811.42 480.44 825.57 485.7 795.38 464.02 773.9 494.12 769.61 507.69 742.18 521.03 769.72"/><polygon class="cls-1" points="725.11 769.72 755.18 774.25 733.32 795.56 738.34 825.79 711.49 811.42 684.52 825.57 689.78 795.38 668.1 773.9 698.2 769.61 711.76 742.18 725.11 769.72"/><polygon class="cls-1" points="929.19 769.72 959.26 774.25 937.4 795.56 942.42 825.79 915.57 811.42 888.6 825.57 893.86 795.38 872.17 773.9 902.28 769.61 915.84 742.18 929.19 769.72"/><polygon class="cls-1" points="1133.27 769.72 1163.34 774.25 1141.48 795.56 1146.5 825.79 1119.65 811.42 1092.68 825.57 1097.94 795.38 1076.25 773.9 1106.36 769.61 1119.92 742.18 1133.27 769.72"/></svg>