<svg id="Layer_1" data-name="Layer 1" xmlns="http://www.w3.org/2000/svg" viewBox="0 0 400 400"><defs><style>.cls-1{fill:#fff;}.cls-2{fill:#454545;}</style></defs><circle class="cls-1" cx="200.25" cy="199.27" r="183"/><path class="cls-2" d="M200,0C89.54,0,0,89.54,0,200S89.54,400,200,400s200-89.54,200-200S310.45,0,200,0Zm0,352.52C115.9,352.52,47.47,284.1,47.47,200S115.9,47.47,200,47.47,352.52,115.9,352.52,200,284.1,352.52,200,352.52Z"/><circle class="cls-2" cx="200" cy="200" r="145.4"/><path class="cls-1" d="M247.58,80.08c-.13.06-.26.07-.38.14-9.3,4.78-21.48,19.84-21.48,82.61,0,30.81,12.88,42.7,14.56,46.33,6.23,18-2.27,74.61-4.53,95.57-.75,7,2.46,14.4,8.88,14.4a10.7,10.7,0,0,0,3-.46v-.05c5-1.44,8.73-5.21,8.73-11.1V86.71C256.31,81.67,251.67,78.32,247.58,80.08Z"/><path class="cls-1" d="M178.69,80.22l-.95,74.72h-4.05l-3.46-74.72h-1.51l-1.89,74.72h-5.3l-1.76-74.72h-1.23l-3.62,74.72h-4.06l-1.09-74.72h-1.29c-2.69,17.33-5.91,48.45-5.71,65.66.2,16.75,2.61,19.68,14.35,26.33,6.31,23.7-3,100.67-4.62,134.19a12.13,12.13,0,0,0,9.61,12.41v.09a10.1,10.1,0,0,0,2.07.23c6.42,0,12-5.73,11.68-12.73-1.5-33.53-9.84-109.52-4.62-134.19,11.83-6.49,14.26-9.26,14.35-26.33s-3-47.94-5.78-65.66Z"/></svg>