<svg id="Layer_1" data-name="Layer 1" xmlns="http://www.w3.org/2000/svg" viewBox="0 0 400 400"><style>.cls-2{fill:#3A3A3A;}</style><path class="cls-2" d="M960.34,339.59c-110.28,0-200,89.72-200,200s89.72,200,200,200,200-89.72,200-200S1070.62,339.59,960.34,339.59Zm0,381.11c-99.86,0-181.11-81.25-181.11-181.11s81.25-181.11,181.11-181.11,181.11,81.25,181.11,181.11S1060.2,720.7,960.34,720.7Z" transform="translate(-760.34 -339.59)"/><path class="cls-2" d="M1013.64,405.49c-.15.07-.29.08-.44.15-10.4,5.35-24,22.21-24,92.43,0,34.48,14.41,47.78,16.28,51.84,7,20.09-2.53,83.49-5.06,106.93-.84,7.79,2.75,16.12,9.93,16.12a11.75,11.75,0,0,0,3.31-.52v-.06c5.59-1.6,9.77-5.83,9.77-12.41V412.91C1023.41,407.27,1018.21,403.53,1013.64,405.49Z" transform="translate(-760.34 -339.59)"/><path  class="cls-2" d="M936.55,405.64l-1.06,83.6H931l-3.87-83.6H925.4l-2.11,83.6h-5.94l-2-83.6H914l-4,83.6h-4.54l-1.22-83.6h-1.44c-3,19.4-6.62,54.21-6.39,73.48.21,18.73,2.91,22,16.06,29.45,7.05,26.52-3.33,112.64-5.18,150.15A13.57,13.57,0,0,0,918,672.6v.1a11.22,11.22,0,0,0,2.32.26c7.19,0,13.42-6.41,13.07-14.24-1.68-37.52-11-122.55-5.17-150.15,13.24-7.26,16-10.36,16-29.45.1-19.27-3.39-53.65-6.46-73.48Z" transform="translate(-760.34 -339.59)"/></svg>