<svg id="_ÎÓÈ_1" data-name="—ÎÓÈ_1" xmlns="http://www.w3.org/2000/svg" viewBox="0 0 570 300"><defs><style>.cls-1{fill:#fff;}.cls-2{fill:#b12332;}.cls-3{fill:#002664;}</style></defs><rect class="cls-1" width="570" height="300"/><rect class="cls-2" width="570" height="23.07"/><rect class="cls-2" y="46.16" width="570" height="23.07"/><rect class="cls-2" y="92.31" width="570" height="23.07"/><rect class="cls-2" y="138.46" width="570" height="23.07"/><rect class="cls-2" y="184.62" width="570" height="23.07"/><rect class="cls-2" y="230.77" width="570" height="23.07"/><rect class="cls-2" y="276.93" width="570" height="23.07"/><rect class="cls-3" width="228" height="161.54"/><g id="stars"><polygon class="cls-1" points="19 6.91 21.07 13.3 27.79 13.3 22.36 17.24 24.43 23.63 19 19.68 13.57 23.63 15.64 17.24 10.21 13.3 16.93 13.3 19 6.91"/><polygon class="cls-1" points="38 23.07 40.07 29.45 46.79 29.45 41.36 33.4 43.43 39.78 38 35.84 32.57 39.78 34.64 33.4 29.21 29.45 35.93 29.45 38 23.07"/><polygon class="cls-1" points="57 6.91 59.07 13.3 65.79 13.3 60.36 17.24 62.43 23.63 57 19.68 51.57 23.63 53.64 17.24 48.21 13.3 54.93 13.3 57 6.91"/><polygon class="cls-1" points="76 23.07 78.07 29.45 84.79 29.45 79.36 33.4 81.43 39.78 76 35.84 70.57 39.78 72.64 33.4 67.21 29.45 73.93 29.45 76 23.07"/><polygon class="cls-1" points="95 6.91 97.07 13.3 103.79 13.3 98.36 17.24 100.43 23.63 95 19.68 89.57 23.63 91.64 17.24 86.21 13.3 92.93 13.3 95 6.91"/><polygon class="cls-1" points="114 23.07 116.07 29.45 122.79 29.45 117.36 33.4 119.43 39.78 114 35.84 108.57 39.78 110.64 33.4 105.21 29.45 111.93 29.45 114 23.07"/><polygon class="cls-1" points="133 6.91 135.07 13.3 141.79 13.3 136.36 17.24 138.43 23.63 133 19.68 127.57 23.63 129.64 17.24 124.21 13.3 130.93 13.3 133 6.91"/><polygon class="cls-1" points="152 23.07 154.07 29.45 160.79 29.45 155.36 33.4 157.43 39.78 152 35.84 146.57 39.78 148.64 33.4 143.21 29.45 149.93 29.45 152 23.07"/><polygon class="cls-1" points="171 6.91 173.07 13.3 179.79 13.3 174.36 17.24 176.43 23.63 171 19.68 165.57 23.63 167.64 17.24 162.21 13.3 168.93 13.3 171 6.91"/><polygon class="cls-1" points="190 23.07 192.07 29.45 198.79 29.45 193.36 33.4 195.43 39.78 190 35.84 184.57 39.78 186.64 33.4 181.21 29.45 187.93 29.45 190 23.07"/><polygon class="cls-1" points="209 6.91 211.07 13.3 217.79 13.3 212.36 17.24 214.43 23.63 209 19.68 203.57 23.63 205.64 17.24 200.21 13.3 206.93 13.3 209 6.91"/><polygon class="cls-1" points="19 39.22 21.07 45.61 27.79 45.61 22.36 49.55 24.43 55.94 19 51.99 13.57 55.94 15.64 49.55 10.21 45.61 16.93 45.61 19 39.22"/><polygon class="cls-1" points="38 55.38 40.07 61.76 46.79 61.76 41.36 65.71 43.43 72.09 38 68.15 32.57 72.09 34.64 65.71 29.21 61.76 35.93 61.76 38 55.38"/><polygon class="cls-1" points="57 39.22 59.07 45.61 65.79 45.61 60.36 49.55 62.43 55.94 57 51.99 51.57 55.94 53.64 49.55 48.21 45.61 54.93 45.61 57 39.22"/><polygon class="cls-1" points="76 55.38 78.07 61.76 84.79 61.76 79.36 65.71 81.43 72.09 76 68.15 70.57 72.09 72.64 65.71 67.21 61.76 73.93 61.76 76 55.38"/><polygon class="cls-1" points="95 39.22 97.07 45.61 103.79 45.61 98.36 49.55 100.43 55.94 95 51.99 89.57 55.94 91.64 49.55 86.21 45.61 92.93 45.61 95 39.22"/><polygon class="cls-1" points="114 55.38 116.07 61.76 122.79 61.76 117.36 65.71 119.43 72.09 114 68.15 108.57 72.09 110.64 65.71 105.21 61.76 111.93 61.76 114 55.38"/><polygon class="cls-1" points="133 39.22 135.07 45.61 141.79 45.61 136.36 49.55 138.43 55.94 133 51.99 127.57 55.94 129.64 49.55 124.21 45.61 130.93 45.61 133 39.22"/><polygon class="cls-1" points="152 55.38 154.07 61.76 160.79 61.76 155.36 65.71 157.43 72.09 152 68.15 146.57 72.09 148.64 65.71 143.21 61.76 149.93 61.76 152 55.38"/><polygon class="cls-1" points="171 39.22 173.07 45.61 179.79 45.61 174.36 49.55 176.43 55.94 171 51.99 165.57 55.94 167.64 49.55 162.21 45.61 168.93 45.61 171 39.22"/><polygon class="cls-1" points="190 55.38 192.07 61.76 198.79 61.76 193.36 65.71 195.43 72.09 190 68.15 184.57 72.09 186.64 65.71 181.21 61.76 187.93 61.76 190 55.38"/><polygon class="cls-1" points="209 39.22 211.07 45.61 217.79 45.61 212.36 49.55 214.43 55.94 209 51.99 203.57 55.94 205.64 49.55 200.21 45.61 206.93 45.61 209 39.22"/><polygon class="cls-1" points="19 71.53 21.07 77.92 27.79 77.92 22.36 81.86 24.43 88.25 19 84.3 13.57 88.25 15.64 81.86 10.21 77.92 16.93 77.92 19 71.53"/><polygon class="cls-1" points="38 87.69 40.07 94.07 46.79 94.07 41.36 98.02 43.43 104.4 38 100.46 32.57 104.4 34.64 98.02 29.21 94.07 35.93 94.07 38 87.69"/><polygon class="cls-1" points="57 71.53 59.07 77.92 65.79 77.92 60.36 81.86 62.43 88.25 57 84.3 51.57 88.25 53.64 81.86 48.21 77.92 54.93 77.92 57 71.53"/><polygon class="cls-1" points="76 87.69 78.07 94.07 84.79 94.07 79.36 98.02 81.43 104.4 76 100.46 70.57 104.4 72.64 98.02 67.21 94.07 73.93 94.07 76 87.69"/><polygon class="cls-1" points="95 71.53 97.07 77.92 103.79 77.92 98.36 81.86 100.43 88.25 95 84.3 89.57 88.25 91.64 81.86 86.21 77.92 92.93 77.92 95 71.53"/><polygon class="cls-1" points="114 87.69 116.07 94.07 122.79 94.07 117.36 98.02 119.43 104.4 114 100.46 108.57 104.4 110.64 98.02 105.21 94.07 111.93 94.07 114 87.69"/><polygon class="cls-1" points="133 71.53 135.07 77.92 141.79 77.92 136.36 81.86 138.43 88.25 133 84.3 127.57 88.25 129.64 81.86 124.21 77.92 130.93 77.92 133 71.53"/><polygon class="cls-1" points="152 87.69 154.07 94.07 160.79 94.07 155.36 98.02 157.43 104.4 152 100.46 146.57 104.4 148.64 98.02 143.21 94.07 149.93 94.07 152 87.69"/><polygon class="cls-1" points="171 71.53 173.07 77.92 179.79 77.92 174.36 81.86 176.43 88.25 171 84.3 165.57 88.25 167.64 81.86 162.21 77.92 168.93 77.92 171 71.53"/><polygon class="cls-1" points="190 87.69 192.07 94.07 198.79 94.07 193.36 98.02 195.43 104.4 190 100.46 184.57 104.4 186.64 98.02 181.21 94.07 187.93 94.07 190 87.69"/><polygon class="cls-1" points="209 71.53 211.07 77.92 217.79 77.92 212.36 81.86 214.43 88.25 209 84.3 203.57 88.25 205.64 81.86 200.21 77.92 206.93 77.92 209 71.53"/><polygon class="cls-1" points="19 103.84 21.07 110.23 27.79 110.23 22.36 114.17 24.43 120.56 19 116.61 13.57 120.56 15.64 114.17 10.21 110.23 16.93 110.23 19 103.84"/><polygon class="cls-1" points="38 120 40.07 126.38 46.79 126.38 41.36 130.33 43.43 136.71 38 132.77 32.57 136.71 34.64 130.33 29.21 126.38 35.93 126.38 38 120"/><polygon class="cls-1" points="57 103.84 59.07 110.23 65.79 110.23 60.36 114.17 62.43 120.56 57 116.61 51.57 120.56 53.64 114.17 48.21 110.23 54.93 110.23 57 103.84"/><polygon class="cls-1" points="76 120 78.07 126.38 84.79 126.38 79.36 130.33 81.43 136.71 76 132.77 70.57 136.71 72.64 130.33 67.21 126.38 73.93 126.38 76 120"/><polygon class="cls-1" points="95 103.84 97.07 110.23 103.79 110.23 98.36 114.17 100.43 120.56 95 116.61 89.57 120.56 91.64 114.17 86.21 110.23 92.93 110.23 95 103.84"/><polygon class="cls-1" points="114 120 116.07 126.38 122.79 126.38 117.36 130.33 119.43 136.71 114 132.77 108.57 136.71 110.64 130.33 105.21 126.38 111.93 126.38 114 120"/><polygon class="cls-1" points="133 103.84 135.07 110.23 141.79 110.23 136.36 114.17 138.43 120.56 133 116.61 127.57 120.56 129.64 114.17 124.21 110.23 130.93 110.23 133 103.84"/><polygon class="cls-1" points="152 120 154.07 126.38 160.79 126.38 155.36 130.33 157.43 136.71 152 132.77 146.57 136.71 148.64 130.33 143.21 126.38 149.93 126.38 152 120"/><polygon class="cls-1" points="171 103.84 173.07 110.23 179.79 110.23 174.36 114.17 176.43 120.56 171 116.61 165.57 120.56 167.64 114.17 162.21 110.23 168.93 110.23 171 103.84"/><polygon class="cls-1" points="190 120 192.07 126.38 198.79 126.38 193.36 130.33 195.43 136.71 190 132.77 184.57 136.71 186.64 130.33 181.21 126.38 187.93 126.38 190 120"/><polygon class="cls-1" points="209 103.84 211.07 110.23 217.79 110.23 212.36 114.17 214.43 120.56 209 116.61 203.57 120.56 205.64 114.17 200.21 110.23 206.93 110.23 209 103.84"/><polygon class="cls-1" points="19 136.15 21.07 142.54 27.79 142.54 22.36 146.48 24.43 152.87 19 148.92 13.57 152.87 15.64 146.48 10.21 142.54 16.93 142.54 19 136.15"/><polygon class="cls-1" points="57 136.15 59.07 142.54 65.79 142.54 60.36 146.48 62.43 152.87 57 148.92 51.57 152.87 53.64 146.48 48.21 142.54 54.93 142.54 57 136.15"/><polygon class="cls-1" points="95 136.15 97.07 142.54 103.79 142.54 98.36 146.48 100.43 152.87 95 148.92 89.57 152.87 91.64 146.48 86.21 142.54 92.93 142.54 95 136.15"/><polygon class="cls-1" points="133 136.15 135.07 142.54 141.79 142.54 136.36 146.48 138.43 152.87 133 148.92 127.57 152.87 129.64 146.48 124.21 142.54 130.93 142.54 133 136.15"/><polygon class="cls-1" points="171 136.15 173.07 142.54 179.79 142.54 174.36 146.48 176.43 152.87 171 148.92 165.57 152.87 167.64 146.48 162.21 142.54 168.93 142.54 171 136.15"/><polygon class="cls-1" points="209 136.15 211.07 142.54 217.79 142.54 212.36 146.48 214.43 152.87 209 148.92 203.57 152.87 205.64 146.48 200.21 142.54 206.93 142.54 209 136.15"/></g></svg>