<svg id="Layer_1" data-name="Layer 1" xmlns="http://www.w3.org/2000/svg" viewBox="0 0 791.57 791.57"><defs><style>.cls-1{fill:#FFF;}.cls-2{fill:#454545;}</style></defs><path class="cls-1" d="M922.22,954.7h0c-218.59,0-395.79-177.2-395.79-395.79h0c0-218.58,177.2-395.78,395.79-395.78h0c218.58,0,395.78,177.2,395.78,395.78h0C1318,777.5,1140.8,954.7,922.22,954.7Z" transform="translate(-526.43 -163.13)"/><path class="cls-2" d="M1066.89,641.58c0,23.58-12.3,62-41.35,62s-41.37-38.44-41.37-62,12.29-62,41.37-62S1066.89,618,1066.89,641.58Zm-248-62c-29,0-41.35,38.47-41.35,62s12.3,62,41.35,62,41.34-38.44,41.34-62S847.94,579.57,818.89,579.57Zm372,5.18c0,35.88-3.54,74-19.69,106.9-42.64,86.23-159.85,94.61-243.8,94.61-85.25,0-209.57-7.4-253.82-94.61-16.5-32.62-20-71-20-106.9,0-47.16,12.93-91.69,43.94-127.85A177.38,177.38,0,0,1,688.75,402a157.44,157.44,0,0,1,16.47-70.39c51,0,83.64,22.28,122.39,52.63a431.86,431.86,0,0,1,99.79-11.29,388,388,0,0,1,90.43,10.34c38.44-30,71-51.68,121.41-51.68A157.35,157.35,0,0,1,1155.71,402a171.76,171.76,0,0,1-8.73,54.27C1178,492.71,1190.89,537.59,1190.89,584.75Zm-72.35,56.83c0-49.4-30-93-82.66-93-21.3,0-41.63,3.89-63,6.8a364.83,364.83,0,0,1-101.4,0c-21-2.91-41.66-6.8-63-6.8-52.63,0-82.66,43.59-82.66,93,0,98.81,90.41,114,169.21,114h54.27C1028.17,755.6,1118.54,740.39,1118.54,641.58Z" transform="translate(-526.43 -163.13)"/></svg>