<?xml version="1.0" encoding="utf-8"?>
<!-- Generator: Adobe Illustrator 25.4.1, SVG Export Plug-In . SVG Version: 6.00 Build 0)  -->
<svg version="1.1" id="Layer_1" xmlns="http://www.w3.org/2000/svg" xmlns:xlink="http://www.w3.org/1999/xlink" x="0px" y="0px"
	 viewBox="0 0 540 558" style="enable-background:new 0 0 540 558;" xml:space="preserve">
<style type="text/css">
	.st0{fill:#FFFFFF;stroke:#D8D8D8;stroke-width:90;}
	.st1{fill:#EFEFEF;}
	.st2{fill:#6E6E6E;}
	.st3{fill:#999999;}
	.st4{fill-rule:evenodd;clip-rule:evenodd;fill:#F9F9F9;}
</style>
<path class="st0" d="M94.9,513L49.6,45h441.6l-37.7,468H94.9z"/>
<path class="st1" d="M31.2,0h485L459,472.5H90L31.2,0z"/>
<path class="st2" d="M63,253c23.7-0.6-9,2.5,76.5-7.8S497.2,150.8,486,253c-13,119.4-22.5,198-27,220.5s-364.5,27-369,0
	S63,253,63,253z"/>
<path class="st3" d="M296.8,318.4L419.5,290c4.8-1.1,9.7,1.9,10.8,6.7l28.3,122.8c1.1,4.8-1.9,9.7-6.7,10.8l-122.8,28.3
	c-4.8,1.1-9.7-1.9-10.8-6.7L290,329.2C288.9,324.3,291.9,319.5,296.8,318.4z"/>
<path class="st3" d="M118,244.4l75.5-95.9c2.8-3.7,8.1-4.4,11.8-1.5c0.2,0.1,0.3,0.3,0.5,0.4l93.3,81.4c3.7,3.3,4.3,9,1.2,12.9
	l-75.5,95.9c-2.8,3.7-8.1,4.4-11.8,1.5c-0.2-0.1-0.3-0.3-0.5-0.4l-93.3-81.4C115.5,254,114.9,248.4,118,244.4z"/>
<path class="st4" d="M116.2,247.1l170-31l-80.4-70.9c-3.4-3.1-8.7-2.8-11.8,0.6c-0.2,0.2-0.3,0.4-0.5,0.6l-75.5,97
	C117.1,244.5,116.5,245.8,116.2,247.1z"/>
</svg>
