<svg id="Layer_1" data-name="Layer 1" xmlns="http://www.w3.org/2000/svg" viewBox="0 0 549.94 564"><defs><style>.cls-1{fill:#303030;stroke:#000;stroke-miterlimit:10;}.cls-2,.cls-5{fill:#e3e3e3;}.cls-2{stroke:#d8d8d8;stroke-width:90px;}.cls-3{fill:#ccc;}.cls-4{fill:#f2f2f2;}.cls-6{fill:#e6e6e6;}.cls-7{fill:#fff;fill-rule:evenodd;}</style></defs><rect class="cls-1" x="0.5" y="0.5" width="548.94" height="563"/><path class="cls-2" d="M94.87,513,49.57,45h441.6l-37.7,468Z" transform="translate(4.6 0.5)"/><path class="cls-3" d="M31.17,0h485L459,472.5H90Z" transform="translate(4.6 0.5)"/><path class="cls-4" d="M63,252c23.7-.6-9,2.5,76.5-7.8S497.17,149.8,486,252c-13,119.4-22.5,198-27,220.5s-364.5,27-369,0S63,252,63,252Z" transform="translate(4.6 0.5)"/><path class="cls-5" d="M296.77,318.4,419.47,290a9,9,0,0,1,10.8,6.7l28.3,122.8a9,9,0,0,1-6.7,10.8l-122.8,28.3a9,9,0,0,1-10.8-6.7L290,329.2a9,9,0,0,1,6.75-10.79Z" transform="translate(4.6 0.5)"/><path class="cls-6" d="M118,244.4l75.5-95.9a8.33,8.33,0,0,1,11.67-1.6l.13.1c.2.1.3.3.5.4l93.3,81.4a9.48,9.48,0,0,1,1.2,12.9l-75.5,95.9a8.33,8.33,0,0,1-11.67,1.6l-.13-.1c-.2-.1-.3-.3-.5-.4l-93.3-81.4A9.47,9.47,0,0,1,118,244.4Z" transform="translate(4.6 0.5)"/><path class="cls-7" d="M116.17,247.1l170-31-80.4-70.9a8.37,8.37,0,0,0-11.8.6c-.2.2-.3.4-.5.6l-75.5,97A9.19,9.19,0,0,0,116.17,247.1Z" transform="translate(4.6 0.5)"/></svg>