<svg id="Layer_1" data-name="Layer 1" xmlns="http://www.w3.org/2000/svg" viewBox="0 0 539.94 558"><defs><style>.cls-1{fill:#e3e3e3;stroke:#d8d8d8;stroke-width:90px;}.cls-2{fill:#c7c7c7;}.cls-3,.cls-6{fill:#fff;}.cls-4{fill:#f0f0f0;}.cls-5{fill:#ededed;}.cls-6{fill-rule:evenodd;}</style></defs><path class="cls-1" d="M94.9,513,49.6,45H491.2L453.5,513Z" transform="translate(-0.03)"/><path class="cls-2" d="M31.2,0h485L459,472.5H90Z" transform="translate(-0.03)"/><path class="cls-3" d="M63,252c23.7-.6-9,2.5,76.5-7.8S497.2,149.8,486,252c-13,119.4-22.5,198-27,220.5s-364.5,27-369,0S63,252,63,252Z" transform="translate(-0.03)"/><path class="cls-4" d="M296.8,318.4,419.5,290a9,9,0,0,1,10.8,6.7l28.3,122.8a9,9,0,0,1-6.7,10.8L329.1,458.6a9,9,0,0,1-10.8-6.7L290,329.2A9,9,0,0,1,296.8,318.4Z" transform="translate(-0.03)"/><path class="cls-5" d="M118,244.4l75.5-95.9a8.33,8.33,0,0,1,11.8-1.5c.2.1.3.3.5.4l93.3,81.4a9.48,9.48,0,0,1,1.2,12.9l-75.5,95.9a8.33,8.33,0,0,1-11.8,1.5c-.2-.1-.3-.3-.5-.4l-93.3-81.4A9.47,9.47,0,0,1,118,244.4Z" transform="translate(-0.03)"/><path class="cls-6" d="M116.2,247.1l170-31-80.4-70.9a8.37,8.37,0,0,0-11.8.6c-.2.2-.3.4-.5.6l-75.5,97A9.12,9.12,0,0,0,116.2,247.1Z" transform="translate(-0.03)"/></svg>