<svg id="Layer_1" data-name="Layer 1" xmlns="http://www.w3.org/2000/svg" viewBox="0 0 1221.5 1667.74"><defs><style>.cls-1{fill:#231f20;}.cls-2{fill:#fff;}.cls-3{fill:none;stroke:#fff;stroke-linecap:round;stroke-linejoin:round;stroke-width:91.07px;}</style></defs><path class="cls-1" d="M640,1078.06c-29.07,108.15-94.09,278.63-121.39,348.67a15.6,15.6,0,0,0,19.69,20.39l156.29-54.68L784,1545.34a15.6,15.6,0,0,0,27.6-1.27c20.22-43.25,61.71-139,106.37-283l29.77-122.49Z" transform="translate(-309.72 -25.61)"/><path class="cls-2" d="M1014.84,1627.43c-1.53-2.54-38.12-63.7-91.12-209.5-23.27-64-46.4-135.29-68.74-211.79l-11.63-39.84,390.75-151.58,5.68,59.49c3.42,35.8,20.11,108.55,80.25,251.82,36.83,87.75,72.64,160.12,73,160.84l54,108.9-271.69-114.23-120.62,211.82Z" transform="translate(-309.72 -25.61)"/><path class="cls-1" d="M898.4,1193.46c24.46,83.78,47.44,152.92,67.83,209,32.83,90.32,59,146.85,73.8,176.3a15.6,15.6,0,0,0,27.49.7l88.37-155.19L1314.56,1491c13.19,5.55,26.26-8.1,20.16-21-39.07-82.88-129.77-284.56-140-391.47Z" transform="translate(-309.72 -25.61)"/><path class="cls-2" d="M920.47,1247.12c-39.31,0-68.05-23.73-89-41-6.68-5.52-17.74-14.65-22.53-16.52-5.56,0-17.29,3.81-26.72,6.85-17,5.49-36.33,11.72-57.81,11.72a97,97,0,0,1-37.28-7.19c-36.59-15.14-53.37-47.4-65.63-71-4-7.61-10.52-20.23-14.16-23.45-4.76-2.1-19.32-3.57-28.11-4.46-26.59-2.69-63-6.36-89.65-32.88-27.31-27.2-31.12-62.92-33.9-89-1-8.95-2.55-23.91-4.93-28-3-4.07-17.06-12.12-25.46-16.94-23.44-13.42-55.55-31.82-70.14-67.4-13.84-33.78-4.52-66.87,3-93.47,2.45-8.71,6.53-23.19,6.19-28.31-1.26-4.35-10.17-15.34-15.52-22-16.48-20.33-39-48.17-39-87.75,0-38.65,23-67,39.8-87.64,5.32-6.55,14.13-17.4,15.87-22,.29-5-4-18.82-6.55-27.16-7.7-25-18.25-59.15-3.88-94.28,14.67-35.87,47.87-53.45,72.1-66.29,7.87-4.16,20.86-11,24.64-14.88,1.88-4.57,2.73-18.27,3.25-26.56,1.67-26.63,3.95-63.11,31.76-91.16,26.87-27.11,63-30.73,92-33.65,9-.91,23.88-2.4,29.32-4.54,3-3.68,7.84-14.51,10.82-21.15,10.83-24.13,25.65-57.18,62.59-72.9a101.3,101.3,0,0,1,39.9-7.7C742.7,66.46,763.57,72,782,77c12.16,3.25,25.94,6.93,33.45,6.93H816C819.76,82,828.08,74,833.13,69.13c18-17.33,45.27-43.52,87.34-43.52,39.66,0,68.1,23.59,88.87,40.82,6.69,5.55,17.83,14.79,22.39,16.35a7.75,7.75,0,0,0,.84,0c6.52,0,18.48-3.44,29-6.47,17-4.89,36.23-10.42,57.09-10.42a100.92,100.92,0,0,1,39.53,7.71c35.78,15.13,52,47.5,63.88,71.13,3.64,7.25,9.65,19.22,13.05,22.72,4.8,2.14,19.25,3.59,28,4.47,26.61,2.66,63,6.31,90,33.4,26.23,26.34,30,61.89,33.11,90.45,1,9,2.55,23.71,4.67,29,3.37,3,14.34,8.17,21,11.3,23.59,11,55.89,26.16,71.46,63.09,14.34,34,6.09,68-.53,95.33-2.42,10-6.46,26.63-5.44,31.93,1,4.24,10,15.63,15.43,22.44,16.18,20.32,38.32,48.14,38.32,87.49,0,38.44-22.48,67-38.9,87.8-5.46,6.92-14.55,18.46-16,23-.85,5,3.39,20.37,5.94,29.57,7,25.28,16.56,59.9,1.9,95-14.9,35.63-46.15,52.55-69,64.91-7.63,4.13-20.39,11-23.15,14.62-2.81,4.42-5.21,20.84-6.64,30.66-4.08,27.92-9.15,62.68-35.94,89.12-27.74,27.38-62.38,29.69-87.67,31.37-7.66.51-20.4,1.36-24.19,3.13-4.4,3.48-13,17.81-18.14,26.41-14.91,24.87-33.46,55.82-68.22,70a94,94,0,0,1-35.73,6.87c-21.72,0-41.18-7-56.82-12.55-7.67-2.74-18.07-6.46-22.63-6.7-5.35,1.93-17.69,11.49-25.17,17.28C987.78,1224.81,959,1247.12,920.47,1247.12Z" transform="translate(-309.72 -25.61)"/><path class="cls-1" d="M1485.75,636.37c0,37.59-47.54,66.26-54.54,101.8-7.38,37.45,25.42,81.65,11,116-14.47,34.63-67.53,40.5-88.29,71.23-21,31.09-9.79,87-36.41,113.26-26.11,25.77-74.5,8-105.21,28.36s-43.75,78.74-78.26,92.84c-32.69,13.35-71.26-22.67-106.67-15.6-36,7.19-68.84,57.35-106.94,57.35s-66.62-50.18-102.56-57.35c-36.32-7.24-80,28.46-113.43,14.62-35.38-14.64-40.17-69.51-71.5-90.69-29.65-20-86.07-6.11-111.35-31.27-26.49-26.38-11.73-79.17-32.61-110.35s-77.41-40.82-91.83-76C384,818.45,416.54,771.8,409.43,737c-7.49-36.71-54.24-61.71-54.24-100.63,0-37.28,48.53-65.42,55.42-100.68C417.7,499.35,383.35,456,397,422.5c14-34.22,73-42.43,93.15-72.91,20.65-31.26,2.54-84.68,28.81-111.18,25.59-25.81,85.17-11.63,115.32-32.15s31-75.79,65-90.26,89.4,20.63,126.39,13,55.55-57.94,94.8-57.94c38.55,0,65.66,49.51,102,56.86,37.28,7.53,83.76-26.91,118-12.43,33.78,14.28,38.67,69.83,68.72,90.12,30.42,20.54,85.94,5.9,111.75,31.81,24.87,25,11.94,84.09,31.82,113.32,20.83,30.63,74.2,31.56,88.76,66.1,14.23,33.74-16.66,82.12-9.17,118.83S1485.75,597.44,1485.75,636.37Z" transform="translate(-309.72 -25.61)"/><circle class="cls-2" cx="610.75" cy="610.75" r="405.33"/><circle class="cls-1" cx="610.75" cy="610.75" r="354.7"/><polyline class="cls-3" points="782.65 534.05 565.04 751.65 444.88 631.49"/></svg>