<svg id="Layer_1" data-name="Layer 1" xmlns="http://www.w3.org/2000/svg" viewBox="0 0 1168.73 1596.5"><defs><style>.cls-1,.cls-3{fill:none;stroke:#231f20;stroke-linecap:round;stroke-linejoin:round;}.cls-1{stroke-width:52.77px;}.cls-2{fill:#231f20;}.cls-3{stroke-width:98px;}</style></defs><path class="cls-1" d="M1478.45,645.6c0,37.12-46.93,65.41-53.84,100.49-7.28,37,25.09,80.6,10.9,114.55-14.29,34.17-66.66,40-87.15,70.3-20.74,30.7-9.67,85.87-35.94,111.8-25.78,25.44-73.53,7.93-103.85,28s-43.18,77.73-77.25,91.64C1099.06,1175.55,1061,1140,1026,1147c-35.52,7.1-67.95,56.61-105.56,56.61s-65.76-49.53-101.24-56.61c-35.85-7.14-78.94,28.09-112,14.43-34.92-14.45-39.65-68.61-70.57-89.52-29.27-19.79-85-6-109.92-30.87-26.15-26-11.58-78.14-32.18-108.92s-76.41-40.3-90.65-75c-13-31.74,19.1-77.78,12.09-112.13-7.4-36.24-53.55-60.91-53.55-99.34,0-36.79,47.9-64.57,54.7-99.37,7-35.87-26.91-78.68-13.39-111.73,13.82-33.78,72.08-41.88,91.95-72,20.38-30.85,2.51-83.58,28.44-109.74,25.25-25.48,84.06-11.48,113.82-31.74s30.57-74.81,64.12-89.09,88.25,20.36,124.76,12.85,54.84-57.19,93.58-57.19c38,0,64.81,48.87,100.72,56.12,36.8,7.44,82.69-26.56,116.47-12.27,33.34,14.1,38.17,68.94,67.83,89,30,20.28,84.83,5.82,110.31,31.4,24.55,24.64,11.79,83,31.41,111.86,20.55,30.23,73.23,31.15,87.61,65.24,14,33.31-16.45,81.06-9,117.3S1478.45,607.18,1478.45,645.6Z" transform="translate(-336.1 -61.24)"/><circle class="cls-1" cx="584.37" cy="584.37" r="382.9"/><path class="cls-2" d="M1247.54,1195.55q-2.11-7-4-13.66a9.6,9.6,0,0,0-17.28-2.58c-5.79,9-12.71,19.09-18.17,25.52a26.29,26.29,0,0,0-5.09,25.06c29,89.9,72.89,190.19,102,253.27l-132.85-55.86a26.39,26.39,0,0,0-33.16,11.26L1060.74,1576c-15-31.64-37.17-82.26-63.68-155.19-14.13-38.88-28.22-80.54-42.12-124.51a16.07,16.07,0,0,0-17-11.14,106.65,106.65,0,0,1-11.42.61,110,110,0,0,1-11.62-.62,12.85,12.85,0,0,0-13.53,16.65c15.18,48.52,30.62,94.4,46.12,137,52.37,144.09,88,203.72,89.53,206.18a26.38,26.38,0,0,0,22.58,12.73h.34a26.4,26.4,0,0,0,22.59-13.32L1173.27,1485l175,73.6a26.39,26.39,0,0,0,33.86-36C1381.26,1520.72,1290.14,1336.37,1247.54,1195.55Z" transform="translate(-336.1 -61.24)"/><path class="cls-2" d="M870.16,1365.48a6.67,6.67,0,0,0-12.64-.09q-2.14,6.22-4.29,12.37c-25.84,73.78-48.85,128.82-64.45,163.65l-79-135a26.38,26.38,0,0,0-31.48-11.57l-134.24,47c20.74-53.77,53.17-139.86,80.1-220.09a38.74,38.74,0,0,0-4.15-33.13c-5.75-9.06-10.43-18-14.61-26.09-.85-1.64-2.23-3.9-3.67-6.3a6.7,6.7,0,0,0-12.19,1.42q-3.81,12.13-8.07,25.17c-43.14,132.07-106.75,291.5-107.39,293.09a26.39,26.39,0,0,0,33.22,34.7l167.91-58.75,93.23,159.29a26.38,26.38,0,0,0,22.77,13.06h.58a26.38,26.38,0,0,0,22.76-14.06c1.39-2.65,30.56-58.34,70.23-164.5a52.5,52.5,0,0,0,.44-35.53Q877.67,1388.26,870.16,1365.48Z" transform="translate(-336.1 -61.24)"/><polyline class="cls-3" points="775.37 502.45 541.22 736.61 411.92 607.31"/></svg>