<svg id="Mono-Icon" xmlns="http://www.w3.org/2000/svg" viewBox="0 0 331.06 450"><defs><style>.cls-1{fill:#454545;}</style></defs><path class="cls-1" d="M284.85,424.14a62.22,62.22,0,0,0,27.1-6.25V566.42a27.1,27.1,0,1,1-54.2,0l.19-55.83a23.47,23.47,0,0,1-23.47-23.47v-18c0-22.22,4.9-41.5,23.24-51.23A62.4,62.4,0,0,0,284.85,424.14ZM400,364.1a59.88,59.88,0,1,0-59.89-59.88A59.88,59.88,0,0,0,400,364.1Zm-5.48-156.46v-24.9a7.74,7.74,0,1,1,15.47,0v24.9a7.74,7.74,0,1,1-15.47,0ZM344,222.9l-12.45-21.57a7.74,7.74,0,0,1,13.4-7.74l12.45,21.57A7.74,7.74,0,0,1,344,222.9Zm-36.1,38.45L286.36,248.9a7.74,7.74,0,1,1,7.74-13.4L315.67,248a7.74,7.74,0,0,1-7.74,13.4Zm176.4-5.57,21.57-12.45a7.74,7.74,0,0,1,7.74,13.4l-21.57,12.45a7.74,7.74,0,1,1-7.74-13.4Zm-38.45-36.1,12.45-21.57a7.74,7.74,0,1,1,13.4,7.74l-12.46,21.57a7.73,7.73,0,1,1-13.39-7.74Zm-161,90.1A49.23,49.23,0,1,0,334.09,359,49.24,49.24,0,0,0,284.85,309.78ZM542.29,417.89a62.05,62.05,0,0,1-54.28,0V566.42a27.12,27.12,0,0,0,54.24,0l-.19-55.83a23.48,23.48,0,0,0,23.47-23.47v-18C565.53,446.9,560.64,427.62,542.29,417.89ZM564.38,359a49.24,49.24,0,1,0-49.23,49.22A49.23,49.23,0,0,0,564.38,359ZM433,373.06a75.49,75.49,0,0,1-66,0,70.51,70.51,0,0,0-37.53,62.32v49.68A28.55,28.55,0,0,0,358,513.61h5.58v75a36.41,36.41,0,0,0,72.82,0v-75H442a28.55,28.55,0,0,0,28.55-28.55V435.38A70.51,70.51,0,0,0,433,373.06Z" transform="translate(-234.47 -175)"/></svg>