<svg id="Layer_1" data-name="Layer 1" xmlns="http://www.w3.org/2000/svg" viewBox="0 0 1214.47 1125.88"><defs><style>.cls-1{fill:#FFF;}</style></defs><path class="cls-1" d="M1659.69,620.83l-14-14c-62.93-62.93-147-97.54-236.8-97.54h-1.12c-90.19.29-174.85,35.44-238.39,99l-26.28,26.29-61.41-67.8-.7-.74C968.58,453.62,777,462.25,653.9,585.31l-13,13.06c-59.12,59.12-93.83,136-97.72,216.53-3.93,81.27,23.94,156.06,78.48,210.6l146.12,146.13-15,18.47a88.1,88.1,0,0,0,83.63,142.21,88.8,88.8,0,0,0,.25,15.54,88.12,88.12,0,0,0,87.58,78.88,89.08,89.08,0,0,0,15.19-1.31,89.79,89.79,0,0,0,.25,15.54,88.1,88.1,0,0,0,87.57,78.87,88.69,88.69,0,0,0,15.25-1.32,88.06,88.06,0,0,0,156.29,61.76l71.23-88a87.87,87.87,0,0,0,16.4-31.72l14.73,15.85a96.9,96.9,0,0,0,70.94,31.21,90.12,90.12,0,0,0,61.71-24c23.73-22.05,32.79-54.23,27-84.65,1.17.19,2.33.38,3.51.53a98.35,98.35,0,0,0,12.26.78c21.63,0,41.41-7.49,56.65-21.65,28.75-26.71,33.37-70.84,14.72-108.76l.91,0c21,0,41.19-7,56.78-21.52,29.64-27.54,33.64-73.6,12.9-112.29l39.59-38.81.14-.15c63.54-63.54,98.7-148.2,99-238.38S1722.88,684,1659.69,620.83Zm-867.82,661a46.75,46.75,0,0,1-6.91-65.69l26.61-32.87.07-.09,44.55-55a46.71,46.71,0,1,1,72.6,58.78l-71.23,88a46.71,46.71,0,0,1-65.69,6.92Zm103,93.1a46.7,46.7,0,0,1-6.91-65.69l71.23-88a46.7,46.7,0,1,1,72.6,58.77l-71.23,88a46.7,46.7,0,0,1-65.69,6.91Zm103,93.11a46.71,46.71,0,0,1-6.91-65.69l71.23-88a46.7,46.7,0,1,1,72.6,58.77l-71.23,88a46.71,46.71,0,0,1-65.69,6.92ZM1248,1432a46.37,46.37,0,0,1-10.15,34.27l-71.23,88a46.71,46.71,0,0,1-72.61-58.78l71.24-88a46.62,46.62,0,0,1,64.77-7.59l10.61,11.41A46.48,46.48,0,0,1,1248,1432Zm329.44-213.9c-19.51,18.14-54.3,12.55-77.55-12.47l-180-189.72c-.21-.21-.43-.4-.65-.61s-.52-.52-.79-.76-.52-.42-.78-.62-.56-.46-.85-.66-.57-.37-.85-.55-.58-.38-.88-.55-.6-.31-.91-.47-.59-.31-.89-.44-.64-.25-1-.38l-.91-.35-1-.28c-.31-.09-.62-.18-.93-.25s-.67-.13-1-.19-.63-.12-1-.16-.67-.06-1-.09-.66-.06-1-.07-.66,0-1,0l-1,0-1,.1c-.34,0-.68.07-1,.13s-.63.12-.94.19-.68.13-1,.21l-.93.29c-.33.1-.66.2-1,.32s-.61.25-.91.38-.64.25-1,.41-.6.31-.89.48-.61.32-.9.5-.58.38-.87.58-.57.38-.85.59-.54.45-.8.68-.49.38-.72.59l-.1.1-.1.09c-.22.2-.4.43-.61.63s-.52.53-.76.81-.41.51-.61.76-.47.58-.68.87-.35.55-.53.82-.39.6-.56.91-.31.58-.45.87-.33.62-.47.93-.24.61-.36.92-.25.63-.36,1-.18.63-.27.94-.19.65-.27,1-.12.64-.18,1-.12.66-.17,1,0,.64-.08,1-.06.68-.08,1,0,.63,0,1,0,.69,0,1,.07.63.1.94.07.7.12,1,.13.61.19.92.13.69.22,1,.19.61.28.91.2.68.32,1,.25.6.38.9.26.64.41,1,.32.59.48.89.32.61.51.9.38.58.58.86.38.58.59.85.45.54.67.81.39.49.6.72l208.61,225.9c23.24,25,26.27,60.12,6.75,78.26-8.93,8.3-21.55,11.9-35.54,10.12-15.36-2-30.29-10-42-22.59l-182.79-192.74c-.21-.22-.44-.42-.66-.63s-.51-.51-.77-.74-.53-.42-.8-.63-.55-.45-.84-.65-.56-.37-.85-.55-.57-.38-.87-.55-.61-.32-.91-.47-.59-.31-.89-.44-.64-.26-1-.38-.6-.25-.9-.35-.67-.19-1-.28l-.92-.26q-.51-.11-1-.18l-.94-.17-1-.09c-.32,0-.64-.06-1-.07s-.67,0-1,0-.66,0-1,0-.65.07-1,.1-.67.07-1,.12-.64.13-1,.19-.66.13-1,.22-.62.19-.93.28-.66.2-1,.32-.61.25-.92.38-.63.26-.94.41-.6.32-.91.48-.59.32-.89.5-.58.39-.87.59-.57.37-.84.58-.55.46-.82.69-.48.37-.7.58c0,0-.06.07-.1.1l-.11.09c-.22.21-.41.44-.62.66s-.51.51-.75.78-.41.52-.62.78-.45.56-.66.85-.36.55-.54.83-.39.59-.56.9-.3.58-.45.87-.32.62-.46.93-.25.61-.36.92-.26.63-.37,1-.18.64-.27,1-.19.64-.26,1-.13.66-.18,1-.13.65-.17,1-.06.65-.09,1-.06.67-.07,1,0,.65,0,1,0,.68,0,1,.07.64.11,1,.06.68.11,1,.13.64.19,1,.14.67.22,1,.19.63.29.94.19.65.31,1,.26.63.39.94.25.62.4.92.33.62.49.92.31.59.49.88.4.59.6.89.37.55.57.82.46.56.7.84.37.46.57.68L1406,1379c20.34,21.89,20.17,55.23-.38,74.32s-53.81,16.81-74.15-5.08l-58.4-62.85a88.62,88.62,0,0,0-15.41-16.43l-.19-.16-.49-.42a88,88,0,0,0-70.58-18.31,89.79,89.79,0,0,0-.26-15.54,88.1,88.1,0,0,0-87.57-78.88,89.08,89.08,0,0,0-15.19,1.31,88.81,88.81,0,0,0-.26-15.54,88.08,88.08,0,0,0-87.57-78.87,89.08,89.08,0,0,0-15.19,1.31,89.79,89.79,0,0,0-.26-15.54A88.09,88.09,0,0,0,824,1102.1l-30.1,37.18-143-143c-46.18-46.18-69.77-109.87-66.41-179.33,3.4-70.22,33.81-137.44,85.65-189.27l13-13C790,507.78,955.05,499,1051.41,595l62.43,68.92-9.46,9.46c-.46.46-.89.94-1.3,1.43-.26.23-.53.43-.78.67L930.78,835.89a103.31,103.31,0,0,0,67.7,178.49c1.07,0,2.13,0,3.2,0a102.56,102.56,0,0,0,70.71-28.06L1267.7,803.2l302.77,336.37.22.24C1593.94,1164.82,1597,1199.93,1577.44,1218.06Zm51.62-150.26L1593.21,1103,1284.34,759.81l-.16-.15a1.83,1.83,0,0,0-.13-.16c-.19-.2-.4-.38-.59-.57s-.52-.52-.79-.76-.51-.42-.76-.63-.57-.46-.86-.67l-.82-.55c-.3-.19-.59-.39-.89-.56s-.59-.32-.89-.47-.6-.32-.91-.46-.63-.26-.94-.39l-.92-.35-1-.3c-.31-.09-.61-.18-.92-.25l-1-.21c-.31-.05-.62-.12-.93-.16s-.69-.07-1-.11-.63-.06-.94-.07-.69,0-1,0-.63,0-1,0l-1,.09c-.32,0-.64.06-1,.11s-.67.12-1,.19-.63.12-.94.2-.67.19-1,.29-.62.18-.92.29-.66.26-1,.39-.6.24-.89.38-.64.33-1,.5-.58.3-.86.46-.61.4-.91.6-.55.37-.82.57-.56.45-.84.68-.43.34-.64.53c-.06,0-.1.1-.15.14l-.16.14L1044.05,956.21a61.93,61.93,0,0,1-84.95-90.14L1130.57,705.7a22.48,22.48,0,0,0,1.71-1.82c.47-.39.93-.8,1.37-1.24l65-65c115.57-115.58,303-116.22,417.77-1.44l14,14C1745.18,764.86,1744.55,952.21,1629.06,1067.8Z" transform="translate(-542.76 -487.06)"/></svg>