<svg id="Layer_1" data-name="Layer 1" xmlns="http://www.w3.org/2000/svg" viewBox="0 0 710.82 645.37"><defs><style>.cls-1{fill:#231f20;}</style></defs><path class="cls-1" d="M366,755.65c18.54-31.25,25.69-67.34,0-93-27.43-27.43-96.62-41.15-141.77,50.53-27.57,56-60.44,78-81.12,86.81a4.14,4.14,0,0,0,.94,7.89C197.46,816.77,311.86,847,366,755.65Z" transform="translate(-140.63 -174.46)"/><path class="cls-1" d="M476.27,549.64a114.69,114.69,0,0,1,28,45.6c35.26-33.25,79.52-82,151.1-162.13,108.1-121,169.36-209.3,195-248.85a6.32,6.32,0,0,0-8.74-8.74c-39.55,25.61-127.81,86.88-248.85,195-80.16,71.58-128.88,115.85-162.13,151.1A114.82,114.82,0,0,1,476.27,549.64Z" transform="translate(-140.63 -174.46)"/><path class="cls-1" d="M388.85,639.8a89.32,89.32,0,0,1,17.74,25.05c28.39-14.53,50.84-28.7,76.54-50.56a90,90,0,0,0-71.52-71.52c-22.07,26-36.3,48.59-51,77.37A100.1,100.1,0,0,1,388.85,639.8Z" transform="translate(-140.63 -174.46)"/></svg>