<svg id="Layer_1" data-name="Layer 1" xmlns="http://www.w3.org/2000/svg" viewBox="0 0 1069.7 1069.7"><defs><style>.cls-1{fill:#fff;}.cls-1,.cls-2,.cls-3,.cls-4,.cls-5,.cls-6,.cls-7,.cls-8{fill-rule:evenodd;}.cls-2{fill:#e81313;}.cls-3{fill:#fdfdfd;}.cls-4{fill:#fefefe;}.cls-5{fill:#fcfcfc;}.cls-6{fill:#f9f9f9;}.cls-7{fill:#fafafa;}.cls-8{fill:#050505;}</style></defs><path class="cls-1" d="M503.66,5.15h1069.7v1069.7H503.66Zm756.38,852a4.52,4.52,0,0,1,.6-.7c4.5-3,7.41-7.27,9.61-12.12.83-1.84,1.81-3.6,2.74-5.39q4.1-7.9,8.21-15.8c3.17-6.11,6.37-12.21,9.51-18.33a102.9,102.9,0,0,0,5-10.23c5.15-13.64,2.07-25.86-6.91-36.9a14.75,14.75,0,0,0-2.08-1.94,61.64,61.64,0,0,1-5.65-5.43c-.89-1-1.86-1.84-2.8-2.74l-13.46-12.74c-.34-.32-.64-.69-1-1-1.45-1.4-2.92-2.79-4.37-4.18l-4.87-4.71c-.94-.9-1.85-1.84-2.8-2.74l-13.21-12.47c-.69-.66-1.29-1.4-2-2.07-.84-.84-1.69-1.67-2.56-2.48l-13.21-12.46a3.07,3.07,0,0,1-.25-.26,60.34,60.34,0,0,0-6.42-6.17,38.63,38.63,0,0,1-4.93-5.14,7.46,7.46,0,0,1-1.74-5.28,23.37,23.37,0,0,1,2.35-8.89,69.85,69.85,0,0,0,3-7.6c.41-1.24.92-2.45,1.41-3.66,2.18-5.38,4.38-10.76,6.56-16.14.22-.55.36-1.14.57-1.69l2.59-6.63c.69-1.76,1.39-3.53,2.07-5.3.59-1.55,1.15-3.12,1.77-4.66,2.18-5.38,4.38-10.76,6.56-16.15.13-.33.19-.69.31-1q1.42-3.65,2.86-7.29c.57-1.43,1.17-2.85,1.72-4.29,2-5.31,4.06-10.63,6.1-16,.26-.66.61-1.29.88-1.95.71-1.75,1.4-3.52,2.1-5.28q1.32-3.32,2.63-6.61,1.1-2.82,2.17-5.65c.5-1.33,1-2.68,1.5-4q3.27-8.07,6.57-16.14c.22-.55.37-1.13.59-1.68.9-2.32,1.82-4.63,2.73-7,.7-1.77,1.39-3.53,2.06-5.31.55-1.44,1-2.94,1.63-4.32a79.5,79.5,0,0,0,3.29-8.27c.47-1.34,1-2.64,1.57-4,.88-2.2,1.75-4.41,2.62-6.61.61-1.55,1.12-3.14,1.81-4.64a69.21,69.21,0,0,0,2.75-6.95c.53-1.57,1.17-3.11,1.84-4.63a64.06,64.06,0,0,0,2.58-6.63c.5-1.57,1.22-3.08,1.84-4.63q1.37-3.46,2.74-6.95c.65-1.65,1.31-3.3,2-5,.75-1.87,1.51-3.74,2.25-5.61.83-2.1,1.65-4.19,2.47-6.29q1.1-2.82,2.17-5.64c.51-1.33,1-2.68,1.51-4,2.23-5.49,4.48-11,6.71-16.47.36-.88.6-1.8.93-2.69.49-1.34,1-2.68,1.51-4,2.17-5.39,4.36-10.77,6.52-16.16.31-.77.52-1.58.81-2.36.49-1.33,1-2.67,1.52-4,2.22-5.5,4.47-11,6.71-16.48a20.79,20.79,0,0,0,.7-2,47,47,0,0,1,2.3-6c.79-1.85,1.47-3.75,2.21-5.63.64-1.65,1.3-3.31,2-5l2.76-7c.65-1.65,1.3-3.31,2-5,.75-1.87,1.61-3.71,2.24-5.62.7-2.15,1.55-4.23,2.45-6.3.75-1.74,1.41-3.52,2.09-5.29.55-1.44,1-2.91,1.61-4.34q3.34-8.24,6.72-16.47c.22-.55.35-1.13.57-1.68q1.35-3.48,2.73-7c.53-1.32,1.16-2.6,1.59-4a60.73,60.73,0,0,1,3-7.61,30.94,30.94,0,0,0,1.55-4,69.94,69.94,0,0,1,2.85-7.28c.78-1.73,1.4-3.53,2.07-5.31.51-1.33,1-2.68,1.48-4q3.33-8.25,6.67-16.49c.18-.44.34-.89.49-1.34,2.29-6.62,5.32-12.94,8.09-19.37a3.33,3.33,0,0,1,3-2.18c4.36-.52,8.7-1.19,13.06-1.75,11.78-1.53,23.56-3,35.34-4.55,12.48-1.63,25-3.35,37.44-4.89a25.21,25.21,0,0,0,21.92-20,11.86,11.86,0,0,0,.08-5.3c-2.37-10.28-8.53-17-18.78-19.83a11.92,11.92,0,0,0-4.93-.34c-5.88.81-11.77,1.64-17.65,2.44L1428.57,177l-24,3.19q-12.18,1.63-24.37,3.27c-6.47.88-12.94,1.8-19.41,2.65a13.5,13.5,0,0,0-4.06,1.25c-5.69,2.69-9.92,6.64-12.23,12.73-4.75,12.54-9.79,25-14.71,37.44q-2.92,7.44-5.83,14.91c-2,5.09-3.93,10.18-5.94,15.25-2.27,5.74-4.62,11.44-6.9,17.17q-3.94,9.93-7.84,19.86c-1.82,4.64-3.78,9.23-5.42,13.93-1.41,4-3.27,7.89-4.74,11.9-1.73,4.72-.58,4.08-5.93,4.11-15.21.1-30.42.12-45.63.17-15.57.05-31.13,0-46.69.24s-31.13.16-46.7.2l-63.11.12q-15.15,0-30.3.14c-16.52.11-33-.06-49.55.21-18.3.3-36.6.17-54.91.21q-49,.13-98,.24-22.29.06-44.57.17c-16.16.09-32.33-.13-48.49.19-8.55.17-17.11,0-25.67,0-11.17,0-22.34.09-33.51.12a30,30,0,0,0-10.85,1.77A83.1,83.1,0,0,0,677,344.36a25.2,25.2,0,0,0-11.14,14.3,13.15,13.15,0,0,0-.83,5.6c.72,6.61,1.42,13.22,2.17,19.83.63,5.54,1.35,11.08,2,16.62.75,6.61,1.42,13.23,2.19,19.84.61,5.31,1.35,10.6,2,15.91s1.1,10.87,1.72,16.3c1.1,9.67,2.28,19.34,3.4,29,.75,6.49,1.42,13,2.17,19.48.65,5.66,1.4,11.32,2,17s1.2,11.1,1.83,16.64c.77,6.73,1.62,13.44,2.38,20.17.6,5.31,1.09,10.63,1.69,15.94.64,5.67,1.37,11.32,2,17,.77,6.61,1.49,13.22,2.26,19.83.6,5.19,1.26,10.37,1.87,15.56.72,6.14,1.32,12.28,2.12,18.4a25.77,25.77,0,0,0,10,17.48c2.61,2.06,5.33,4,8.06,5.88a27.22,27.22,0,0,0,12.88,4.8c4.61.47,9.22.94,13.83,1.36,5.79.53,11.6,1,17.39,1.54,9.46.91,18.91,1.88,28.37,2.8,6.73.66,13.47,1.29,20.21,1.94,5.32.51,10.64,1.06,16,1.55,5.92.54,11.84,1,17.75,1.55,9.7.92,19.39,1.92,29.08,2.85,5.44.52,10.89.93,16.33,1.47,5.91.58,11.8,1.3,17.71,1.87,9.46.91,18.92,1.75,28.39,2.62l20.57,1.91c5.33.5,10.65,1,16,1.48,5.79.57,11.57,1.25,17.37,1.81,6.15.59,12.31,1.05,18.45,1.64,8.87.85,17.73,1.78,26.59,2.65,7.57.74,15.14,1.44,22.71,2.16s15.13,1.45,22.7,2.16l23.77,2.21,21.28,2,18.45,1.71c5.09.47,10.19.83,15.26,1.42a158.07,158.07,0,0,0,16.69,1.29,7.63,7.63,0,0,1,5.1,2.05c3.27,2.78,6.11,6,9.23,8.91,4.34,4,8.65,8.14,13,12.22.43.4.82.85,1.25,1.27,4,3.89,8,7.82,12,11.67,4.3,4.1,8.66,8.12,13,12.17.26.25.5.51.75.76,4.24,4.17,8.46,8.34,12.71,12.49.68.66,1.45,1.22,2.17,1.85a35.4,35.4,0,0,1,4.72,4.84,8.07,8.07,0,0,1,1.67,6,15.56,15.56,0,0,1-2,5.66c-3,5.78-6.16,11.51-9,17.41-1.74,3.67-4.08,5.31-8.29,5.22-11.41-.24-22.82-.07-34.23-.07H864.15l-52.41,0q-31.9,0-63.82,0a24.36,24.36,0,0,0-6.36.62q-14.79,4-19.26,18.69a13.91,13.91,0,0,0-.3,7.4,26.24,26.24,0,0,0,26,20.64c7.48-.11,15,0,22.46,0,.78,0,1.62-.29,2.54.43A19.15,19.15,0,0,1,770,864.9c-13.15,12.07-18.38,27-15,44.44A46.54,46.54,0,1,0,830.08,864c-.66-.55-1.58-.93-1.89-1.88.39-.19.58-.35.77-.35q192.18,0,384.36,0c.07,0,.13.17.43.59a52.44,52.44,0,0,0-7.67,7.09,47.39,47.39,0,0,0-6.2,9.11,44.33,44.33,0,0,0-3.78,10,48.35,48.35,0,0,0-1.48,10.92,46.23,46.23,0,0,0,1.14,10.61,45.1,45.1,0,0,0,3.62,10.39,47.12,47.12,0,0,0,5.75,9,46.05,46.05,0,0,0,7.93,7.67A46.62,46.62,0,0,0,1279.91,926C1295,903.65,1288.53,870.82,1260,857.13Z" transform="translate(-503.66 -5.15)"/><path class="cls-2" d="M1260,857.13c28.49,13.69,34.94,46.52,19.87,68.84a46.62,46.62,0,0,1-66.85,11.12,46.05,46.05,0,0,1-7.93-7.67,47.12,47.12,0,0,1-5.75-9,45.1,45.1,0,0,1-3.62-10.39,46.23,46.23,0,0,1-1.14-10.61,48.35,48.35,0,0,1,1.48-10.92,44.33,44.33,0,0,1,3.78-10,47.39,47.39,0,0,1,6.2-9.11,52.44,52.44,0,0,1,7.67-7.09c-.3-.42-.36-.59-.43-.59q-192.18,0-384.36,0c-.19,0-.38.16-.77.35.31.95,1.23,1.33,1.89,1.88A46.57,46.57,0,1,1,755,909.34c-3.41-17.45,1.82-32.37,15-44.44a19.15,19.15,0,0,0,3.08-2.77c-.92-.72-1.76-.43-2.54-.43-7.49,0-15-.1-22.46,0a26.24,26.24,0,0,1-26-20.64,13.91,13.91,0,0,1,.3-7.4Q726.8,819,741.56,815a24.36,24.36,0,0,1,6.36-.62q31.91,0,63.82,0l52.41,0h330.52c11.41,0,22.82-.17,34.23.07,4.21.09,6.55-1.55,8.29-5.22,2.79-5.9,5.94-11.63,9-17.41a15.56,15.56,0,0,0,2-5.66,8.07,8.07,0,0,0-1.67-6,35.4,35.4,0,0,0-4.72-4.84c-.72-.63-1.49-1.19-2.17-1.85-4.25-4.15-8.47-8.32-12.71-12.49-.25-.25-.49-.51-.75-.76-4.34-4.05-8.7-8.07-13-12.17-4-3.85-8-7.78-12-11.67-.43-.42-.82-.87-1.25-1.27-4.31-4.08-8.62-8.17-13-12.22-3.12-2.92-6-6.13-9.23-8.91a7.63,7.63,0,0,0-5.1-2.05,158.07,158.07,0,0,1-16.69-1.29c-5.07-.59-10.17-1-15.26-1.42l-18.45-1.71-21.28-2-23.77-2.21q-11.36-1.07-22.7-2.16c-7.57-.72-15.14-1.42-22.71-2.16-8.86-.87-17.72-1.8-26.59-2.65-6.14-.59-12.3-1-18.45-1.64-5.8-.56-11.58-1.24-17.37-1.81-5.32-.53-10.64-1-16-1.48l-20.57-1.91c-9.47-.87-18.93-1.71-28.39-2.62-5.91-.57-11.8-1.29-17.71-1.87-5.44-.54-10.89-1-16.33-1.47-9.69-.93-19.38-1.93-29.08-2.85-5.91-.56-11.83-1-17.75-1.55-5.32-.49-10.64-1-16-1.55-6.74-.65-13.48-1.28-20.21-1.94-9.46-.92-18.91-1.89-28.37-2.8-5.79-.55-11.6-1-17.39-1.54-4.61-.42-9.22-.89-13.83-1.36a27.22,27.22,0,0,1-12.88-4.8c-2.73-1.89-5.45-3.82-8.06-5.88a25.77,25.77,0,0,1-10-17.48c-.8-6.12-1.4-12.26-2.12-18.4-.61-5.19-1.27-10.37-1.87-15.56-.77-6.61-1.49-13.22-2.26-19.83-.66-5.66-1.39-11.31-2-17-.6-5.31-1.09-10.63-1.69-15.94-.76-6.73-1.61-13.44-2.38-20.17-.63-5.54-1.19-11.1-1.83-16.64s-1.4-11.32-2-17c-.75-6.49-1.42-13-2.17-19.48-1.12-9.67-2.3-19.34-3.4-29-.62-5.43-1.1-10.87-1.72-16.3s-1.34-10.6-2-15.91c-.77-6.61-1.44-13.23-2.19-19.84-.64-5.54-1.36-11.08-2-16.62-.75-6.61-1.45-13.22-2.17-19.83a13.15,13.15,0,0,1,.83-5.6A25.2,25.2,0,0,1,677,344.36a83.1,83.1,0,0,1,12.16-5.89A30,30,0,0,1,700,336.7c11.17,0,22.34-.09,33.51-.12,8.56,0,17.12.13,25.67,0,16.16-.32,32.33-.1,48.49-.19q22.27-.11,44.57-.17,49-.14,98-.24c18.31,0,36.61.09,54.91-.21,16.52-.27,33-.1,49.55-.21q15.15-.11,30.3-.14l63.11-.12c15.57,0,31.14.05,46.7-.2s31.12-.19,46.69-.24c15.21-.05,30.42-.07,45.63-.17,5.35,0,4.2.61,5.93-4.11,1.47-4,3.33-7.86,4.74-11.9,1.64-4.7,3.6-9.29,5.42-13.93q3.92-9.93,7.84-19.86c2.28-5.73,4.63-11.43,6.9-17.17,2-5.07,4-10.16,5.94-15.25s3.88-10,5.83-14.91c4.92-12.48,10-24.9,14.71-37.44,2.31-6.09,6.54-10,12.23-12.73a13.5,13.5,0,0,1,4.06-1.25c6.47-.85,12.94-1.77,19.41-2.65q12.18-1.65,24.37-3.27l24-3.19,23.31-3.12c5.88-.8,11.77-1.63,17.65-2.44a11.92,11.92,0,0,1,4.93.34c10.25,2.84,16.41,9.55,18.78,19.83a11.86,11.86,0,0,1-.08,5.3,25.21,25.21,0,0,1-21.92,20c-12.49,1.54-25,3.26-37.44,4.89-11.78,1.53-23.56,3-35.34,4.55-4.36.56-8.7,1.23-13.06,1.75a3.33,3.33,0,0,0-3,2.18c-2.77,6.43-5.8,12.75-8.09,19.37-.15.45-.31.9-.49,1.34q-3.33,8.25-6.67,16.49c-.52,1.32-1,2.67-1.48,4-.67,1.78-1.29,3.58-2.07,5.31a69.94,69.94,0,0,0-2.85,7.28,30.94,30.94,0,0,1-1.55,4,60.73,60.73,0,0,0-3,7.61c-.43,1.36-1.06,2.64-1.59,4q-1.38,3.48-2.73,7c-.22.55-.35,1.13-.57,1.68q-3.36,8.24-6.72,16.47c-.58,1.43-1.06,2.9-1.61,4.34-.68,1.77-1.34,3.55-2.09,5.29-.9,2.07-1.75,4.15-2.45,6.3-.63,1.91-1.49,3.75-2.24,5.62-.66,1.65-1.31,3.31-2,5l-2.76,7c-.65,1.65-1.31,3.31-2,5-.74,1.88-1.42,3.78-2.21,5.63a47,47,0,0,0-2.3,6,20.79,20.79,0,0,1-.7,2c-2.24,5.5-4.49,11-6.71,16.48-.54,1.32-1,2.66-1.52,4-.29.78-.5,1.59-.81,2.36-2.16,5.39-4.35,10.77-6.52,16.16-.53,1.32-1,2.66-1.51,4-.33.89-.57,1.81-.93,2.69-2.23,5.49-4.48,11-6.71,16.47-.54,1.32-1,2.67-1.51,4q-1.08,2.82-2.17,5.64c-.82,2.1-1.64,4.19-2.47,6.29-.74,1.87-1.5,3.74-2.25,5.61-.65,1.66-1.31,3.31-2,5q-1.38,3.48-2.74,6.95c-.62,1.55-1.34,3.06-1.84,4.63a64.06,64.06,0,0,1-2.58,6.63c-.67,1.52-1.31,3.06-1.84,4.63a69.21,69.21,0,0,1-2.75,6.95c-.69,1.5-1.2,3.09-1.81,4.64-.87,2.2-1.74,4.41-2.62,6.61-.52,1.33-1.1,2.63-1.57,4a79.5,79.5,0,0,1-3.29,8.27c-.65,1.38-1.08,2.88-1.63,4.32-.67,1.78-1.36,3.54-2.06,5.31-.91,2.32-1.83,4.63-2.73,7-.22.55-.37,1.13-.59,1.68q-3.29,8.07-6.57,16.14c-.53,1.32-1,2.67-1.5,4q-1.08,2.83-2.17,5.65-1.3,3.3-2.63,6.61c-.7,1.76-1.39,3.53-2.1,5.28-.27.66-.62,1.29-.88,1.95-2,5.32-4.06,10.64-6.1,16-.55,1.44-1.15,2.86-1.72,4.29q-1.44,3.65-2.86,7.29c-.12.33-.18.69-.31,1-2.18,5.39-4.38,10.77-6.56,16.15-.62,1.54-1.18,3.11-1.77,4.66-.68,1.77-1.38,3.54-2.07,5.3l-2.59,6.63c-.21.55-.35,1.14-.57,1.69-2.18,5.38-4.38,10.76-6.56,16.14-.49,1.21-1,2.42-1.41,3.66a69.85,69.85,0,0,1-3,7.6,23.37,23.37,0,0,0-2.35,8.89,7.46,7.46,0,0,0,1.74,5.28,38.63,38.63,0,0,0,4.93,5.14,60.34,60.34,0,0,1,6.42,6.17,3.07,3.07,0,0,0,.25.26l13.21,12.46c.87.81,1.72,1.64,2.56,2.48.67.67,1.27,1.41,2,2.07l13.21,12.47c1,.9,1.86,1.84,2.8,2.74l4.87,4.71c1.45,1.39,2.92,2.78,4.37,4.18.35.33.65.7,1,1l13.46,12.74c.94.9,1.91,1.78,2.8,2.74a61.64,61.64,0,0,0,5.65,5.43,14.75,14.75,0,0,1,2.08,1.94c9,11,12.06,23.26,6.91,36.9a102.9,102.9,0,0,1-5,10.23c-3.14,6.12-6.34,12.22-9.51,18.33q-4.11,7.89-8.21,15.8c-.93,1.79-1.91,3.55-2.74,5.39-2.2,4.85-5.11,9.11-9.61,12.12A4.52,4.52,0,0,0,1260,857.13ZM959.26,472.84a30.07,30.07,0,0,0,.51-5.62q0-12.47,0-24.94,0-29,0-58.07c0-4.1.25-3.76-3.59-3.73-10.21.07-20.42,0-30.64.21-11.87.26-23.75.07-35.63.07-.84,0-1.67,0-2.5.05a.85.85,0,0,0-.87.9c0,.48,0,1,0,1.43q0,42.76,0,85.53c0,3.9-.25,4.22,4.08,4.22q32.43,0,64.86.11C956.64,473,957.81,472.9,959.26,472.84Zm108,0a9,9,0,0,0,4,.6q31.17.08,62.36.17c6.18,0,5.45.67,5.47-5.57q.06-32.07,0-64.15c0-7.36,0-14.73,0-22.09,0-1.89-.1-2-2.06-2-4.16.05-8.31.23-12.46.25-13.43,0-26.85,0-40.27,0-5.11,0-10.22.11-15.32.13-2.08,0-2.16.22-2.07,2.26,0,.24,0,.48,0,.72q0,41.32,0,82.66A28.57,28.57,0,0,0,1067.27,472.79ZM869,426.31q0-20.67,0-41.34c0-1.26.7-2.8-.38-3.72s-2.51-.32-3.79-.32q-32.61,0-65.23.1c-.59,0-1.19,0-1.78,0-1.22.06-1.51.26-1.53,1.45-.06,3.33-.06,6.65-.07,10-.14,25.19-.33,50.37-.35,75.56,0,4.43-.66,4.56,4.44,4.58q32.26.15,64.51.24c4.16,0,4.2,0,4.2-4.13Q869,447.51,869,426.31Zm108.21-.08h0c0,14.25,0,28.5,0,42.75,0,4.16-.4,4.08,4.1,4.09l64.12.24a23.19,23.19,0,0,0,2.48-.19,1.3,1.3,0,0,0,1.33-1.35c0-1.31.15-2.61.15-3.91q0-19.41,0-38.83,0-23.32,0-46.65a5.58,5.58,0,0,0-.06-1.42c-.07-.27-.4-.66-.65-.68a27.05,27.05,0,0,0-2.85-.07l-41.68.11H981c-4.26,0-3.79-.31-3.8,3.87Q977.13,405.21,977.16,426.23Zm246.73-46.62h-4.05l-59.17.16c-4.52,0-4-.46-4.05,4q0,42.4,0,84.82c0,1.3.12,2.61.23,3.91a1,1,0,0,0,.9.95,34.88,34.88,0,0,0,3.54.24q28.88.08,57.74.11c1.28,0,2.86.57,3.78-.29,1.08-1,.28-2.7.44-4.08a15.08,15.08,0,0,0,0-1.78V385.27A17.24,17.24,0,0,1,1223.89,379.61Zm-85.14,285a2.31,2.31,0,0,0,.34-1.72c0-2.38,0-4.75,0-7.13q0-35.61,0-71.23c0-4.43.15-3.87-3.8-4h-.36l-63.39-.14c-1,0-1.9,0-2.85.09-1.44.11-1.63.3-1.69,1.67-.06,1.54-.1,3.08-.1,4.63q0,31.68,0,63.38c0,2,0,4,0,6.06,0,1.66.24,1.87,1.79,2s3.09.13,4.62.28q14.54,1.41,29,2.86l18.78,1.83c4.95.49,9.91,1,14.87,1.46A5.1,5.1,0,0,0,1138.75,664.65ZM778.28,426.51h.23q.15-21,.3-42c0-3.43.16-3.33-3.26-3.32l-57,.24c-1.55,0-3.09.12-4.63.25-1.17.09-1.47.38-1.49,1.53a97.8,97.8,0,0,0,.25,12.81q1.14,10.26,2.34,20.52,1.66,14.33,3.34,28.64,1.46,12.74,2.91,25.47c.17,1.49.31,1.63,1.7,1.7.6,0,1.19,0,1.79,0l49.52.13c.83,0,1.66,0,2.48-.1a1.27,1.27,0,0,0,1.36-1.31c0-1.19.15-2.38.15-3.56Q778.29,447,778.28,426.51Zm271.08,192.25h.05q0-14.43,0-28.84,0-3.93-.11-7.84c0-1.36-.28-1.59-1.7-1.69s-3.09-.16-4.63-.17l-60.2-.18c-6.35,0-5.55,0-5.57,5.62-.06,15,0,29.92,0,44.89,0,5.58,0,11.16,0,16.74,0,2.23,0,2.23,2.07,2.42l17,1.63q10.29,1,20.56,1.95c5.2.5,10.39,1,15.59,1.54q5.67.55,11.34,1.07c1.3.12,2.6.23,3.9.29,1.66.07,1.71,0,1.73-1.82,0-.24,0-.48,0-.71Zm-90-127.12a12.19,12.19,0,0,0-4.16-.53q-32.06-.09-64.1-.2c-4.62,0-4.64-.21-4.64,4.75q0,20.29,0,40.59c0,7.6,0,15.2,0,22.8,0,2.23.3,2.47,2.38,2.68.7.07,1.42,0,2.13,0l64.1.21c.83,0,1.66,0,2.49,0,1.53-.1,1.86-.37,1.92-1.89.12-3,.21-5.93.21-8.89,0-14.95,0-29.91,0-44.86C959.73,501.48,960.06,496.62,959.4,491.64ZM832.08,561.48v.21c10.93,0,21.86,0,32.79,0,4,0,4.07,0,4.08-4.19q0-31.18,0-62.38c0-4.14-.11-4.28-4.09-4.29l-65.24-.13c-.48,0-1,0-1.43,0-2.27.11-2.47.24-2.54,2.43-.11,3.56-.14,7.13-.15,10.69-.09,17.71-.23,35.41-.21,53.12,0,4.92-.81,4.47,4.69,4.52C810.69,561.55,821.38,561.48,832.08,561.48Zm271.22.77v.17h7.12c8,0,15.92.24,23.87.09,5.42-.11,4.76.92,4.79-4.71.06-11.28,0-22.57,0-33.85,0-9.63,0-19.25,0-28.87,0-3,.37-3.48-3.28-3.48q-32.79,0-65.58-.12c-3.18,0-3.19,0-3.27,3.07,0,1.31,0,2.62,0,3.92q0,15.15,0,30.29c0,9.86-.09,19.72,0,29.57,0,3.95-.54,3.88,3.93,3.9C1081.68,562.28,1092.49,562.25,1103.3,562.25Zm-89.6-.16v.13H1045c1.07,0,2.14-.05,3.2-.12a.93.93,0,0,0,.93-.89c.08-1.54.2-3.08.21-4.62q0-19.94,0-39.88,0-11.22-.07-22.43c0-2.73-.13-2.78-2.79-2.89h-1.07l-63.75-.22c-5.26,0-4.51.14-4.52,4.42q-.09,31,0,62c0,4.19-.89,4.53,4.44,4.53ZM923.36,580v-.13H890.93c-.83,0-1.66,0-2.49,0-1.34.1-1.71.43-1.83,1.68-.09.94-.1,1.89-.1,2.84q0,26.71,0,53.44c0,.59,0,1.19,0,1.78a1.17,1.17,0,0,0,1.06,1.2c.82.14,1.64.26,2.47.34l23.4,2.21,20.55,2,21.62,2.07c.83.08,1.66.16,2.49.2,1.34.06,1.58-.19,1.65-1.64,0-.36,0-.71,0-1.07q0-29.91,0-59.83a32.64,32.64,0,0,0-.28-3.55c-.12-1.07-.48-1.41-1.58-1.5-.83-.07-1.66-.05-2.49-.05ZM1157,562.07a10.72,10.72,0,0,0,4.5.59q8.91,0,17.82,0c6.3,0,12.6.09,18.89.07,4,0,3.33.68,4.71-3.21.52-1.45,1.12-2.87,1.69-4.3l2.86-7.29c.52-1.32,1-2.66,1.53-4,2.13-5.27,4.32-10.53,6.4-15.82,2.43-6.18,4.75-12.41,7.19-18.58a9,9,0,0,0,.66-3.45c0-4,0-8.08,0-12.12,0-.47-.06-.94-.08-1.41a.77.77,0,0,0-.69-.71c-.82-.09-1.66-.08-2.49-.09-6.18,0-12.36,0-18.53,0q-20-.07-39.92-.16c-1.53,0-3.1-.23-4.5.63C1156.47,496,1156.45,558.11,1157,562.07ZM795.27,580.13c0,2.31-.09,4.67-.11,7-.14,13.77-.29,27.55-.38,41.32,0,3.88-.79,3.61,3.86,4.1,7.68.82,15.37,1.47,23.05,2.18q14.37,1.34,28.73,2.67c5.55.53,11.1,1.1,16.66,1.64.35,0,.71,0,1.06,0a.75.75,0,0,0,.76-.6,3.74,3.74,0,0,0,.06-1.06q0-27.09,0-54.17c0-3.39-.11-3.48-3.71-3.49q-32.6-.15-65.21-.27A13.54,13.54,0,0,0,795.27,580.13Zm-63.16-18.94c.41,0,.88.11,1.35.11l41.31.11,1.42,0c.83,0,1.35-.31,1.38-1.22,0-1.3.15-2.61.17-3.91q.18-20.29.33-40.59c0-7.6,0-15.2,0-22.79,0-2-.51-2.06-2-2.18-.59,0-1.19,0-1.78,0q-15.14-.09-30.26-.17-9.27,0-18.52,0c-1.72,0-1.86.16-1.69,1.82.6,5.9,1.18,11.8,1.86,17.7,1.09,9.54,2.27,19.08,3.37,28.62.74,6.48,1.41,13,2.12,19.46A5.34,5.34,0,0,0,732.11,561.19Zm1.82,18.41c0,.68,0,1.27,0,1.84.36,3.43.75,6.85,1.13,10.27.85,7.55,1.67,15.1,2.56,22.64.33,2.83.75,5.65,1.24,8.46.55,3.09,1.49,3.89,4.7,4.35.82.11,1.64.23,2.47.31l23,2.25c1.66.16,3.32.26,5,.51,3.63.55,3.35.32,3.36-2.88q.09-21.57.18-43.12c0-1.19,0-2.38-.08-3.57a1.08,1.08,0,0,0-1.14-1.09c-.48,0-1-.06-1.42-.06q-19.79-.09-39.56-.16A8.83,8.83,0,0,0,733.93,579.6Zm460.25,1.11h-2.86l-27.81,0c-1.78,0-3.56.07-5.34.1a1.21,1.21,0,0,0-1.36,1.28c-.07,1.42-.19,2.84-.19,4.26q0,34.23,0,68.44c0,3.33,0,6.65,0,10a2.13,2.13,0,0,0,.42,1.67c1,1,3.81.54,4.21-.79,1.33-4.45,3.46-8.57,5.08-12.91,2-5.44,4.15-10.85,6.24-16.27.26-.66.59-1.29.86-1.95l2.21-5.63c.64-1.66,1.27-3.32,1.93-5,2.17-5.4,4.36-10.78,6.51-16.17,2.71-6.83,5.39-13.68,8.09-20.52A26.41,26.41,0,0,0,1194.18,580.71Zm47.06-119.93c1.1-.23,1.09-.9,1.29-1.43,1-2.55,1.92-5.1,2.9-7.64.77-2,1.55-4,2.33-6l2.25-5.62c.66-1.65,1.32-3.3,2-4.95,2.1-5.42,4.15-10.85,6.3-16.25s4.6-10.93,6.67-16.48c2.58-6.88,5.24-13.73,8.07-20.51.29-.68.92-1.44.27-2.27-5.31-.42-29.79-.29-32.26.16.44,13.4.12,26.8.2,40.19C1241.31,433.56,1241.24,447.09,1241.24,460.78ZM777.44,899.91a23.25,23.25,0,1,0,46.5.18,23.3,23.3,0,0,0-23.38-23.27C786.51,876.89,777.1,888.74,777.44,899.91Zm487.19.26a23.31,23.31,0,1,0-23.47,23.19A23.3,23.3,0,0,0,1264.63,900.17Z" transform="translate(-503.66 -5.15)"/><path class="cls-3" d="M959.26,472.84c-1.45.06-2.62.16-3.8.16q-32.43,0-64.86-.11c-4.33,0-4.08-.32-4.08-4.22q0-42.76,0-85.53c0-.48,0-.95,0-1.43a.85.85,0,0,1,.87-.9c.83,0,1.66-.05,2.5-.05,11.88,0,23.76.19,35.63-.07,10.22-.22,20.43-.14,30.64-.21,3.84,0,3.59-.37,3.59,3.73q0,29,0,58.07,0,12.47,0,24.94A30.07,30.07,0,0,1,959.26,472.84Z" transform="translate(-503.66 -5.15)"/><path class="cls-4" d="M1067.27,472.79a28.57,28.57,0,0,1-.36-7q0-41.32,0-82.66c0-.24,0-.48,0-.72-.09-2,0-2.25,2.07-2.26,5.1,0,10.21-.13,15.32-.13,13.42,0,26.84,0,40.27,0,4.15,0,8.3-.2,12.46-.25,2,0,2,.08,2.06,2,0,7.36,0,14.73,0,22.09q0,32.07,0,64.15c0,6.24.71,5.58-5.47,5.57q-31.18,0-62.36-.17A9,9,0,0,1,1067.27,472.79Z" transform="translate(-503.66 -5.15)"/><path class="cls-4" d="M869,426.31q0,21.19,0,42.41c0,4.11,0,4.15-4.2,4.13q-32.25-.09-64.51-.24c-5.1,0-4.44-.15-4.44-4.58,0-25.19.21-50.37.35-75.56,0-3.33,0-6.65.07-10,0-1.19.31-1.39,1.53-1.45.59,0,1.19,0,1.78,0q32.63-.06,65.23-.1c1.28,0,2.79-.53,3.79.32s.38,2.46.38,3.72Q869,405.64,869,426.31Z" transform="translate(-503.66 -5.15)"/><path class="cls-4" d="M977.16,426.23q0-21,0-42c0-4.18-.46-3.86,3.8-3.87h23.16l41.68-.11a27.05,27.05,0,0,1,2.85.07c.25,0,.58.41.65.68a5.58,5.58,0,0,1,.06,1.42q0,23.33,0,46.65,0,19.41,0,38.83c0,1.3-.1,2.6-.15,3.91a1.3,1.3,0,0,1-1.33,1.35,23.19,23.19,0,0,1-2.48.19l-64.12-.24c-4.5,0-4.08.07-4.1-4.09-.06-14.25,0-28.5,0-42.75Z" transform="translate(-503.66 -5.15)"/><path class="cls-4" d="M1223.89,379.61a17.24,17.24,0,0,0-.64,5.66V467.6a15.08,15.08,0,0,1,0,1.78c-.16,1.38.64,3.08-.44,4.08-.92.86-2.5.29-3.78.29q-28.87,0-57.74-.11a34.88,34.88,0,0,1-3.54-.24,1,1,0,0,1-.9-.95c-.11-1.3-.23-2.61-.23-3.91q0-42.41,0-84.82c0-4.41-.47-3.94,4.05-4l59.17-.16Z" transform="translate(-503.66 -5.15)"/><path class="cls-4" d="M1138.75,664.65a5.1,5.1,0,0,1-2.74.05c-5-.46-9.92-1-14.87-1.46l-18.78-1.83q-14.52-1.42-29-2.86c-1.53-.15-3.08-.16-4.62-.28s-1.76-.32-1.79-2c0-2,0-4,0-6.06q0-31.69,0-63.38c0-1.55,0-3.09.1-4.63.06-1.37.25-1.56,1.69-1.67,1-.08,1.9-.1,2.85-.09l63.39.14h.36c4,.1,3.79-.46,3.8,4q0,35.61,0,71.23c0,2.38,0,4.75,0,7.13A2.31,2.31,0,0,1,1138.75,664.65Z" transform="translate(-503.66 -5.15)"/><path class="cls-4" d="M778.82,415.29c0,13.65-.54,38.53-.55,52.19,0,1.18-.1,2.37-.15,3.56a1.27,1.27,0,0,1-1.36,1.31c-.82.06-1.65.1-2.48.1l-49.52-.13c-.6,0-1.19,0-1.79,0-1.39-.07-1.53-.21-1.7-1.7q-1.47-12.74-2.91-25.47Q716.7,430.81,715,416.5q-1.18-10.26-2.34-20.52a97.8,97.8,0,0,1-.25-12.81c0-1.15.32-1.44,1.49-1.53,1.54-.13,3.08-.24,4.63-.25l57-.24c3.42,0,3.29-.11,3.26,3.32q-.13,21-.3,42C778.43,426.51,778.9,415.29,778.82,415.29Z" transform="translate(-503.66 -5.15)"/><path class="cls-3" d="M1049.36,618.76v34.9c0,.23,0,.47,0,.71,0,1.81-.07,1.89-1.73,1.82-1.3-.06-2.6-.17-3.9-.29q-5.67-.52-11.34-1.07c-5.2-.51-10.39-1-15.59-1.54q-10.27-1-20.56-1.95l-17-1.63c-2-.19-2.06-.19-2.07-2.42,0-5.58,0-11.16,0-16.74,0-15,0-29.93,0-44.89,0-5.65-.78-5.64,5.57-5.62l60.2.18c1.54,0,3.09.07,4.63.17s1.66.33,1.7,1.69q.11,3.92.11,7.84,0,14.42,0,28.84Z" transform="translate(-503.66 -5.15)"/><path class="cls-5" d="M959.4,491.64c.66,5,.33,9.84.35,14.68.06,14.95,0,29.91,0,44.86,0,3-.09,5.93-.21,8.89-.06,1.52-.39,1.79-1.92,1.89-.83,0-1.66,0-2.49,0l-64.1-.21c-.71,0-1.43,0-2.13,0-2.08-.21-2.37-.45-2.38-2.68,0-7.6,0-15.2,0-22.8q0-20.29,0-40.59c0-5,0-4.77,4.64-4.75q32.05.12,64.1.2A12.19,12.19,0,0,1,959.4,491.64Z" transform="translate(-503.66 -5.15)"/><path class="cls-4" d="M832.08,561.48c-10.7,0-21.39.07-32.09,0-5.5-.05-4.68.4-4.69-4.52,0-17.71.12-35.41.21-53.12,0-3.56,0-7.13.15-10.69.07-2.19.27-2.32,2.54-2.43.48,0,.95,0,1.43,0l65.24.13c4,0,4.09.15,4.09,4.29q0,31.2,0,62.38c0,4.14,0,4.18-4.08,4.19-10.93,0-21.86,0-32.79,0Z" transform="translate(-503.66 -5.15)"/><path class="cls-4" d="M1103.3,562.25c-10.81,0-21.62,0-32.43,0-4.47,0-3.89,0-3.93-3.9-.13-9.85,0-19.71,0-29.57q0-15.13,0-30.29c0-1.3,0-2.61,0-3.92.08-3,.09-3.08,3.27-3.07q32.79,0,65.58.12c3.65,0,3.26.44,3.28,3.48.05,9.62,0,19.24,0,28.87,0,11.28,0,22.57,0,33.85,0,5.63.63,4.6-4.79,4.71-8,.15-15.91,0-23.87-.09h-7.12Z" transform="translate(-503.66 -5.15)"/><path class="cls-4" d="M1013.7,562.09H981.64c-5.33,0-4.43-.34-4.44-4.53q-.11-31,0-62c0-4.28-.74-4.43,4.52-4.42l63.75.22h1.07c2.66.11,2.76.16,2.79,2.89q.08,11.22.07,22.43,0,19.93,0,39.88c0,1.54-.13,3.08-.21,4.62a.93.93,0,0,1-.93.89c-1.06.07-2.13.12-3.2.12H1013.7Z" transform="translate(-503.66 -5.15)"/><path class="cls-3" d="M923.36,580h32.06c.83,0,1.66,0,2.49.05,1.1.09,1.46.43,1.58,1.5a32.64,32.64,0,0,1,.28,3.55q0,29.91,0,59.83c0,.36,0,.71,0,1.07-.07,1.45-.31,1.7-1.65,1.64-.83,0-1.66-.12-2.49-.2L934,645.4l-20.55-2-23.4-2.21c-.83-.08-1.65-.2-2.47-.34a1.17,1.17,0,0,1-1.06-1.2c0-.59,0-1.19,0-1.78q0-26.71,0-53.44c0-1,0-1.9.1-2.84.12-1.25.49-1.58,1.83-1.68.83-.06,1.66,0,2.49,0h32.43Z" transform="translate(-503.66 -5.15)"/><path class="cls-3" d="M1157,562.07c-.56-4-.54-66.05,0-69.82,1.4-.86,3-.63,4.5-.63q20,.06,39.92.16c6.17,0,12.35,0,18.53,0,.83,0,1.67,0,2.49.09a.77.77,0,0,1,.69.71c0,.47.08.94.08,1.41,0,4,0,8.08,0,12.12a9,9,0,0,1-.66,3.45c-2.44,6.17-4.76,12.4-7.19,18.58-2.08,5.29-4.27,10.55-6.4,15.82-.53,1.32-1,2.66-1.53,4l-2.86,7.29c-.57,1.43-1.17,2.85-1.69,4.3-1.38,3.89-.67,3.19-4.71,3.21-6.29,0-12.59-.06-18.89-.07q-8.91,0-17.82,0A10.72,10.72,0,0,1,1157,562.07Z" transform="translate(-503.66 -5.15)"/><path class="cls-3" d="M795.27,580.13a13.54,13.54,0,0,1,4.77-.6q32.61.13,65.21.27c3.6,0,3.71.1,3.71,3.49q0,27.09,0,54.17a3.74,3.74,0,0,1-.06,1.06.75.75,0,0,1-.76.6c-.35,0-.71,0-1.06,0-5.56-.54-11.11-1.11-16.66-1.64q-14.35-1.35-28.73-2.67c-7.68-.71-15.37-1.36-23.05-2.18-4.65-.49-3.88-.22-3.86-4.1.09-13.77.24-27.55.38-41.32C795.18,584.8,795.23,582.44,795.27,580.13Z" transform="translate(-503.66 -5.15)"/><path class="cls-3" d="M732.11,561.19a5.34,5.34,0,0,1-.9-3.09c-.71-6.48-1.38-13-2.12-19.46-1.1-9.54-2.28-19.08-3.37-28.62-.68-5.9-1.26-11.8-1.86-17.7-.17-1.66,0-1.81,1.69-1.82q9.26,0,18.52,0,15.13.06,30.26.17c.59,0,1.19,0,1.78,0,1.5.12,2,.22,2,2.18,0,7.59,0,15.19,0,22.79q-.14,20.3-.33,40.59c0,1.3-.12,2.61-.17,3.91,0,.91-.55,1.22-1.38,1.22l-1.42,0-41.31-.11C733,561.3,732.52,561.22,732.11,561.19Z" transform="translate(-503.66 -5.15)"/><path class="cls-5" d="M733.93,579.6a8.83,8.83,0,0,1,1.45-.25q19.79.06,39.56.16c.47,0,.94,0,1.42.06a1.08,1.08,0,0,1,1.14,1.09c0,1.19.09,2.38.08,3.57q-.08,21.56-.18,43.12c0,3.2.27,3.43-3.36,2.88-1.64-.25-3.3-.35-5-.51l-23-2.25c-.83-.08-1.65-.2-2.47-.31-3.21-.46-4.15-1.26-4.7-4.35-.49-2.81-.91-5.63-1.24-8.46-.89-7.54-1.71-15.09-2.56-22.64-.38-3.42-.77-6.84-1.13-10.27C733.88,580.87,733.93,580.28,733.93,579.6Z" transform="translate(-503.66 -5.15)"/><path class="cls-3" d="M1194.18,580.71a26.41,26.41,0,0,1-2,6.48c-2.7,6.84-5.38,13.69-8.09,20.52-2.15,5.39-4.34,10.77-6.51,16.17-.66,1.65-1.29,3.31-1.93,5l-2.21,5.63c-.27.66-.6,1.29-.86,1.95-2.09,5.42-4.21,10.83-6.24,16.27-1.62,4.34-3.75,8.46-5.08,12.91-.4,1.33-3.25,1.78-4.21.79a2.13,2.13,0,0,1-.42-1.67c0-3.33,0-6.65,0-10q0-34.21,0-68.44c0-1.42.12-2.84.19-4.26a1.21,1.21,0,0,1,1.36-1.28c1.78,0,3.56-.1,5.34-.1l27.81,0Z" transform="translate(-503.66 -5.15)"/><path class="cls-6" d="M1241.24,460.78c0-13.69.07-27.22,0-40.76-.08-13.39.24-26.79-.2-40.19,2.47-.45,27-.58,32.26-.16.65.83,0,1.59-.27,2.27-2.83,6.78-5.49,13.63-8.07,20.51-2.07,5.55-4.48,11-6.67,16.48s-4.2,10.83-6.3,16.25c-.64,1.65-1.3,3.3-2,4.95l-2.25,5.62c-.78,2-1.56,4-2.33,6-1,2.54-1.93,5.09-2.9,7.64C1242.33,459.88,1242.34,460.55,1241.24,460.78Z" transform="translate(-503.66 -5.15)"/><path class="cls-7" d="M777.44,899.91c-.34-11.17,9.07-23,23.12-23.09a23.27,23.27,0,1,1,0,46.53A22.87,22.87,0,0,1,777.44,899.91Zm23.13,11.69c5,.38,11.52-3.88,11.65-11.44a11.61,11.61,0,0,0-11.67-11.88,11.75,11.75,0,0,0-11.68,11.54C788.78,906.69,794.65,911.92,800.57,911.6Z" transform="translate(-503.66 -5.15)"/><path class="cls-7" d="M1264.63,900.17a23.31,23.31,0,1,1-23.32-23.35A23.1,23.1,0,0,1,1264.63,900.17ZM1241,911.59A11.36,11.36,0,0,0,1252.9,900a11.57,11.57,0,0,0-11.45-11.75c-6.35-.32-11.82,5.21-11.88,11.68C1229.51,906.76,1235.4,911.85,1241,911.59Z" transform="translate(-503.66 -5.15)"/><path class="cls-8" d="M800.57,911.6c-5.92.32-11.79-4.91-11.7-11.78a11.75,11.75,0,0,1,11.68-11.54,11.61,11.61,0,0,1,11.67,11.88C812.09,907.72,805.54,912,800.57,911.6Z" transform="translate(-503.66 -5.15)"/><path class="cls-8" d="M1241,911.59c-5.63.26-11.52-4.83-11.46-11.63.06-6.47,5.53-12,11.88-11.68A11.57,11.57,0,0,1,1252.9,900,11.36,11.36,0,0,1,1241,911.59Z" transform="translate(-503.66 -5.15)"/></svg>