<svg id="_ÎÓÈ_1" data-name="—ÎÓÈ_1" xmlns="http://www.w3.org/2000/svg" viewBox="0 0 4647.23 4348.72"><defs><style>.cls-1{fill:#454545;}.cls-1,.cls-2,.cls-3{fill-rule:evenodd;}.cls-2{fill:#fafafa;}.cls-3{fill:#050505;}</style></defs><path class="cls-1" d="M4242.61,4778.77c159.76,76.83,195.93,261,111.44,386.16-84.12,124.64-255.38,153.24-375,62.39a260.36,260.36,0,0,1-44.44-43,263.92,263.92,0,0,1-32.28-50.37,254.3,254.3,0,0,1-20.33-58.32,261.49,261.49,0,0,1-6.36-59.5,271,271,0,0,1,8.28-61.26,251.93,251.93,0,0,1,21.21-55.89,264.53,264.53,0,0,1,34.8-51.11c12.85-14.91,27.63-27.89,43-39.75-1.65-2.36-2-3.32-2.37-3.32q-1077.95-.24-2155.88-.26c-1.09,0-2.16.94-4.36,2,1.76,5.33,6.89,7.46,10.61,10.56,35.53,29.65,62.08,65.75,78.5,109.09C1966,5075.38,1878.47,5241,1719,5275c-141.66,30.21-281.57-61.14-309.35-203.33-19.12-97.85,10.23-181.57,84-249.27,5.6-5.15,12.6-9,17.26-15.54-5.12-4-9.86-2.37-14.24-2.39-42-.14-84-.59-126,0-36.35.55-68-11.29-96-33.68-26.46-21.22-42.23-49.46-50-82.06a78.38,78.38,0,0,1,1.73-41.51q25.18-82.12,108-104.86c11.74-3.21,23.73-3.44,35.7-3.45q179-.08,358,.06,147,0,294-.11,162,0,324,.05,147,0,294,0h942q147,0,294,0c64,0,128-.92,192,.44,23.65.5,36.79-8.73,46.54-29.3,15.66-33.07,33.28-65.21,50.21-97.67,5.26-10.08,10.18-20.07,11.38-31.71,1.3-12.65-1.7-23.68-9.4-33.66s-16.92-18.82-26.48-27.17c-4-3.5-8.36-6.65-12.17-10.37q-35.72-34.92-71.25-70c-1.43-1.41-2.77-2.9-4.23-4.26-24.32-22.75-48.82-45.3-72.92-68.27-22.66-21.6-44.9-43.63-67.31-65.48-2.38-2.32-4.57-4.85-7-7.14q-36.32-34.31-72.69-68.53c-17.51-16.39-33.45-34.35-51.81-49.94-8.64-7.34-17.2-11.43-28.58-11.52-31.34-.26-62.48-3.64-93.62-7.24-28.45-3.28-57-5.35-85.57-8q-51.75-4.77-103.49-9.6-59.68-5.61-119.38-11.29-66.67-6.25-133.34-12.43-63.68-6-127.33-12.08c-42.45-4-84.91-8-127.34-12.13-49.72-4.87-99.41-10.1-149.14-14.88-34.48-3.3-69-5.88-103.52-9.19-32.5-3.12-64.92-6.94-97.41-10.15-29.84-3-59.71-5.51-89.56-8.28q-57.72-5.34-115.43-10.73c-53.07-4.9-106.16-9.6-159.21-14.71-33.15-3.19-66.22-7.21-99.36-10.48-30.5-3-61.06-5.33-91.57-8.26-54.37-5.21-108.72-10.79-163.1-16-33.17-3.15-66.39-5.7-99.57-8.73-29.85-2.74-59.67-5.81-89.51-8.69-37.8-3.64-75.61-7.16-113.4-10.87-53-5.18-106-10.63-159.09-15.7-32.5-3.11-65.06-5.64-97.57-8.63-25.87-2.38-51.71-5-77.56-7.62-26.42-2.65-50.47-12-72.22-27-15.35-10.6-30.6-21.41-45.24-32.95-31.8-25.05-50.79-57.86-56-98-4.47-34.34-7.88-68.82-11.89-103.22-3.4-29.1-7.11-58.18-10.49-87.28-4.32-37.06-8.35-74.16-12.67-111.22-3.7-31.76-7.79-63.47-11.39-95.24-3.37-29.79-6.11-59.65-9.48-89.44-4.27-37.73-9-75.4-13.34-113.12-3.56-31.1-6.67-62.26-10.27-93.36-3.67-31.75-7.85-63.45-11.52-95.21-4.21-36.4-8-72.85-12.16-109.25-6.26-54.26-12.88-108.48-19.08-162.75-3.47-30.45-6.16-61-9.63-91.42-3.39-29.78-7.54-59.47-11-89.25-4.28-37.06-8-74.18-12.28-111.25-3.54-31.1-7.6-62.15-11.14-93.25-4.22-37.07-8.11-74.16-12.17-111.25-1.18-10.87,1.28-21.27,4.64-31.39,11.33-34.07,31.24-61.63,62.48-80.18a457.12,457.12,0,0,1,68.25-33c19.46-7.54,40-9.92,60.81-10,62.66-.14,125.32-.5,188-.66,48-.12,96,.71,144-.22,90.65-1.78,181.31-.58,272-1q125-.65,250-1,275-.74,550-1.32c102.65-.26,205.32.45,307.95-1.22,92.65-1.51,185.29-.54,277.94-1.16q85-.57,170-.79,177-.43,354-.7c87.31-.21,174.65.29,261.95-1.1s174.57-1,261.85-1.35c85.32-.28,170.63-.39,255.94-.93,30-.19,23.6,3.42,33.29-23.08,8.23-22.5,18.66-44.08,26.59-66.75,9.21-26.37,20.16-52.12,30.4-78.12q21.93-55.71,44-111.37c12.79-32.15,25.94-64.15,38.7-96.31,11.28-28.45,22.22-57,33.34-85.54q16.32-41.85,32.7-83.67c27.56-70,55.85-139.66,82.48-210,12.95-34.17,36.7-56.3,68.58-71.4a76.32,76.32,0,0,1,22.79-7c36.32-4.79,72.6-9.93,108.9-14.85q68.32-9.25,136.66-18.35,67.35-9,134.7-17.92,65.37-8.72,130.73-17.5c33-4.48,66-9.11,99-13.67a67.29,67.29,0,0,1,27.67,1.91c57.51,15.93,92.07,53.54,105.36,111.2,2.26,9.82,1.69,19.81-.47,29.75-13.11,60.27-60.38,104.32-122.95,112.06-70.07,8.66-140,18.33-210,27.43-66.07,8.59-132.15,17-198.21,25.53-24.44,3.17-48.81,6.9-73.28,9.8-8.33,1-13.37,4.88-16.54,12.25-15.53,36.05-32.51,71.49-45.34,108.66-.88,2.52-1.78,5-2.77,7.49q-18.69,46.26-37.39,92.51c-3,7.4-5.46,15-8.29,22.45-3.78,10-7.27,20-11.63,29.75a393.18,393.18,0,0,0-16,40.87,183,183,0,0,1-8.7,22.31,337.21,337.21,0,0,0-16.82,42.69c-2.41,7.59-6,14.81-8.91,22.23q-7.72,19.45-15.33,39c-1.21,3.1-2,6.38-3.22,9.46-12.53,30.8-25.18,61.56-37.67,92.38-3.24,8-5.94,16.25-9,24.33-3.81,9.94-7.5,19.93-11.73,29.69-5,11.61-9.81,23.26-13.76,35.32-3.52,10.72-8.36,21-12.55,31.52-3.7,9.26-7.32,18.56-11,27.83q-7.73,19.48-15.46,39-5.51,13.92-11,27.85c-4.11,10.53-7.92,21.19-12.34,31.59-4.7,11-9.78,21.88-13,33.5a101.7,101.7,0,0,1-3.93,11.32c-12.52,30.81-25.14,61.59-37.64,92.41-3,7.4-5.75,14.9-8.51,22.4-1.61,4.37-2.78,8.91-4.51,13.22-12.16,30.24-24.44,60.43-36.6,90.66-3,7.41-5.74,14.9-8.48,22.39-1.83,5-3.2,10.18-5.2,15.11-12.5,30.82-25.15,61.57-37.66,92.39-3,7.39-5.61,15-8.45,22.41q-6,15.84-12.19,31.64-6.87,17.67-13.84,35.29c-4.16,10.52-8.4,21-12.59,31.5q-5.55,13.9-11,27.83-7.69,19.49-15.38,39c-3.44,8.66-7.5,17.12-10.28,26a358.91,358.91,0,0,1-14.51,37.17c-3.75,8.52-7.35,17.15-10.31,26a384.81,384.81,0,0,1-15.4,39c-3.9,8.43-6.76,17.34-10.16,26q-7.29,18.58-14.69,37.11c-2.94,7.42-6.21,14.72-8.8,22.26a446.64,446.64,0,0,1-18.45,46.35c-3.68,7.79-6.06,16.2-9.14,24.28-3.79,9.95-7.67,19.86-11.56,29.77-5.1,13-10.27,26-15.35,39-1.21,3.1-2,6.34-3.29,9.42q-18.4,45.28-36.85,90.55c-3,7.4-5.59,15-8.43,22.42-4,10.57-8,21.14-12.17,31.67-4.86,12.38-9.83,24.71-14.74,37.08-3.92,9.88-7.78,19.8-11.78,29.66-1.5,3.7-3.5,7.2-4.92,10.92-11.45,29.8-22.79,59.64-34.23,89.45-3.1,8.07-6.47,16-9.65,24.09q-8.07,20.41-16,40.88c-.72,1.85-1,3.88-1.77,5.72-12.24,30.2-24.58,60.37-36.79,90.59-3.49,8.63-6.61,17.42-10,26.11-3.82,9.94-7.7,19.85-11.57,29.76-4.84,12.39-9.73,24.77-14.52,37.17-1.2,3.1-2,6.37-3.21,9.45q-18.37,45.32-36.84,90.58c-2.75,6.78-5.58,13.55-7.87,20.49a388.15,388.15,0,0,1-16.93,42.66c-7.36,15.76-12.41,32.2-13.2,49.87a42.12,42.12,0,0,0,9.75,29.61,220.91,220.91,0,0,0,27.66,28.81c12.7,10.81,25,22,36,34.62a17.16,17.16,0,0,0,1.4,1.43q37.07,35,74.13,69.91c4.84,4.57,9.63,9.19,14.33,13.91,3.76,3.78,7.16,7.93,11,11.59q37,35.05,74.08,70c5.31,5,10.44,10.27,15.7,15.37q13.62,13.21,27.31,26.37c8.16,7.84,16.38,15.61,24.54,23.46,1.92,1.85,3.62,3.92,5.55,5.75q37.71,35.73,75.46,71.42c5.32,5,10.76,10,15.71,15.38a341.42,341.42,0,0,0,31.71,30.44c4.08,3.42,8.35,6.79,11.68,10.89,50.37,62,67.65,130.48,38.74,207-7.49,19.83-18.38,38.41-28.11,57.36-17.63,34.35-35.55,68.55-53.35,102.81q-23,44.3-46,88.61c-5.21,10-10.73,19.95-15.39,30.25-12.32,27.21-28.66,51.09-53.9,68C4244.88,4775.6,4244.21,4776.88,4242.61,4778.77ZM2555.5,2623.29a169,169,0,0,0,2.87-31.52q-.26-69.95-.23-139.88.08-162.85.17-325.72c0-23,1.38-21.08-20.13-20.93-57.29.41-114.56,0-171.86,1.2-66.6,1.47-133.26.36-199.9.39q-7,0-14,.29c-3.1.13-4.71,2-4.88,5.05-.16,2.66-.19,5.32-.19,8q0,239.88.1,479.75c0,21.9-1.38,23.67,22.89,23.69q181.91.15,363.81.57C2540.78,2624.18,2547.38,2623.64,2555.5,2623.29Zm605.82-.26c7.69,3.58,15,3.31,22.38,3.33q174.89.49,349.77,1c34.7.05,30.6,3.77,30.68-31.24q.39-179.91.1-359.8,0-62-.08-123.94c0-10.57-.55-11.16-11.57-11-23.3.27-46.6,1.32-69.9,1.39-75.29.2-150.58,0-225.87.17-28.64,0-57.29.66-85.93.76-11.67,0-12.12,1.25-11.57,12.69.06,1.33,0,2.67,0,4q0,231.82,0,463.65C3159.33,2596.57,3158.05,2609.27,3161.32,2623ZM2048.93,2362.29c0-77.29.09-154.58-.14-231.87,0-7,3.9-15.71-2.15-20.87-5.61-4.76-14.08-1.78-21.25-1.78q-182.94.12-365.87.55c-3.34,0-6.67-.09-10,.06-6.86.32-8.44,1.48-8.56,8.15-.34,18.66-.34,37.32-.44,56-.76,141.28-1.85,282.54-2,423.81,0,24.86-3.71,25.56,24.93,25.7q180.93.85,361.85,1.36c23.32.07,23.52-.13,23.54-23.21Q2049,2481.23,2048.93,2362.29Zm607-.43h0c0,79.94-.21,159.87.14,239.81.1,23.29-2.25,22.85,23,22.94q179.84.66,359.66,1.3a127,127,0,0,0,13.89-1c4.46-.48,7.32-2.75,7.49-7.61.26-7.32.82-14.63.82-21.94q.06-108.87,0-217.75,0-130.85,0-261.7c0-2.66.34-5.43-.31-7.94-.4-1.54-2.27-3.69-3.65-3.83a157.39,157.39,0,0,0-16-.42q-116.91.3-233.82.64c-43.3.09-86.6,0-129.9,0-23.87,0-21.23-1.77-21.28,21.68C2655.78,2204.66,2655.9,2283.26,2655.9,2361.86Zm1383.91-261.5c-9.5,0-16.11,0-22.72,0q-165.93.42-331.85.87c-25.38.07-22.71-2.55-22.73,22.16q-.15,237.88-.05,475.77c0,7.31.67,14.63,1.24,21.93a5.64,5.64,0,0,0,5.06,5.31,183.87,183.87,0,0,0,19.88,1.36q161.94.48,323.86.65c7.17,0,16,3.16,21.19-1.64,6.06-5.63,1.58-15.12,2.47-22.88.38-3.28,0-6.65,0-10q0-230.89,0-461.81C4036.22,2122.12,4036.06,2112.15,4039.81,2100.36ZM3562.27,3699.18c2.6-3,1.9-6.43,1.92-9.67.07-13.32,0-26.64,0-40q0-199.78-.08-399.56c0-24.83.86-21.7-21.29-22.24-.67,0-1.34,0-2,0q-177.8-.42-355.59-.82c-5.33,0-10.67.08-16,.51-8.11.65-9.18,1.69-9.5,9.37q-.54,13-.54,26-.09,177.76-.09,355.54c0,11.32-.14,22.64.07,34,.17,9.34,1.32,10.51,10.05,11.15s17.31.72,25.92,1.55q81.48,7.9,162.93,16,52.65,5.19,105.31,10.27c27.82,2.72,55.62,5.6,83.45,8.19C3552,3700,3557.31,3701.49,3562.27,3699.18ZM1540.37,2363.42h1.29q.85-117.89,1.71-235.77c.13-19.28.87-18.72-18.33-18.64q-159.87.66-319.72,1.34c-8.65,0-17.31.68-25.93,1.39-6.56.54-8.26,2.14-8.38,8.57-.43,24-1.26,48,1.39,71.88,4.26,38.37,8.72,76.72,13.16,115.07q9.3,80.34,18.69,160.67,8.24,71.42,16.34,142.85c1,8.39,1.75,9.16,9.56,9.53,3.33.16,6.66.08,10,.09q138.88.38,277.76.72c4.65,0,9.32-.21,14-.57,4.44-.35,7.43-2.44,7.61-7.37.26-6.66.84-13.3.85-20Q1540.42,2478.32,1540.37,2363.42ZM3060.88,3441.76h.26q0-80.88,0-161.78,0-22-.65-43.94c-.22-7.65-1.57-8.93-9.53-9.46-8.64-.57-17.3-.93-25.95-1q-168.83-.57-337.65-1c-35.65-.11-31.16-.21-31.27,31.52-.31,83.91-.13,167.83-.12,251.74,0,31.3,0,62.6.13,93.9.07,12.52.29,12.54,11.58,13.63q47.7,4.56,95.4,9.11c38.43,3.66,76.87,7.21,115.29,10.91,29.15,2.81,58.29,5.8,87.43,8.65q31.8,3.1,63.62,6c7.29.67,14.6,1.28,21.91,1.59,9.29.4,9.58,0,9.7-10.2,0-1.33-.12-2.66-.12-4Zm-504.58-713c-8.77-2.95-16.05-2.93-23.37-2.95q-179.76-.51-359.52-1.14c-25.91-.1-26-1.15-26,26.62q0,113.86,0,227.72c0,42.61-.06,85.22.2,127.84.08,12.55,1.65,13.9,13.32,15.05,4,.39,8,.29,12,.3q179.76.59,359.52,1.15c4.66,0,9.33.14,14-.16,8.6-.56,10.46-2.08,10.8-10.59.67-16.62,1.13-33.25,1.16-49.88.11-83.86.26-167.73-.06-251.59C2558.14,2783.93,2560,2756.66,2556.3,2728.74Zm-714.17,391.77v1.15c61.31,0,122.62.09,183.93,0,22.73-.05,22.84-.3,22.86-23.49q.1-174.95.1-349.9c0-23.23-.62-24-22.94-24.07q-183-.45-366-.72c-2.67,0-5.34-.08-8,.05-12.72.64-13.88,1.33-14.27,13.62-.62,20-.75,40-.85,60-.51,99.32-1.29,198.64-1.16,298,0,27.62-4.53,25.08,26.31,25.34C1722.14,3120.87,1782.13,3120.51,1842.13,3120.51Zm1521.27,4.28v1c13.32,0,26.65-.06,40,0,44.63.23,89.28,1.35,133.89.48,30.41-.59,26.71,5.18,26.88-26.39.33-63.3.11-126.6.1-189.9,0-54,.15-107.95-.15-161.92-.1-17.07,2.12-19.5-18.39-19.53q-183.9-.24-367.8-.69c-17.85,0-17.9.19-18.37,17.28-.2,7.32-.24,14.65-.25,22q0,84.93,0,169.88c0,55.29-.49,110.59.21,165.88.28,22.11-3,21.74,22.09,21.86C3242.15,3125,3302.78,3124.79,3363.4,3124.79Zm-502.55-.89v.71q87.9,0,175.81,0c6,0,12-.27,17.93-.68,2.87-.2,5-1.91,5.19-5,.5-8.62,1.16-17.27,1.18-25.9q.16-111.84.09-223.69,0-62.91-.43-125.82c-.12-15.31-.72-15.57-15.62-16.2-2-.08-4,0-6,0q-178.78-.6-357.58-1.19c-29.53-.1-25.28.74-25.35,24.77q-.51,173.82,0,347.63c.07,23.49-5,25.41,24.91,25.41ZM2354.1,3224.49v-.72q-90.93,0-181.85,0c-4.66,0-9.34-.08-14,.26-7.55.56-9.59,2.37-10.26,9.38-.5,5.29-.56,10.64-.56,16q-.09,149.86-.08,299.75c0,3.33,0,6.66.13,10,.12,3.84,2.32,6.09,6,6.72,4.58.8,9.2,1.47,13.84,1.92q65.61,6.25,131.23,12.41,57.64,5.48,115.31,11,60.63,5.82,121.26,11.65c4.64.44,9.29.88,14,1.08,7.51.33,8.84-1,9.27-9.19.1-2,.09-4,.09-6q0-167.8-.08-335.61a174.86,174.86,0,0,0-1.54-19.89c-.69-6-2.7-7.89-8.87-8.4-4.64-.39-9.31-.32-14-.32Q2444,3224.48,2354.1,3224.49Zm1310.56-100.67c8,3.54,16.66,3.28,25.27,3.28q50,0,100,.09c35.32.1,70.64.52,105.95.4,22.63-.07,18.67,3.82,26.41-18,2.89-8.15,6.29-16.11,9.46-24.16q8-20.41,16-40.84c2.9-7.44,5.62-14.95,8.6-22.34,11.95-29.6,24.21-59.07,35.89-88.77,13.64-34.65,26.63-69.56,40.34-104.18a50.31,50.31,0,0,0,3.69-19.35c-.12-22.67-.05-45.33-.1-68,0-2.64-.34-5.28-.47-7.93a4.23,4.23,0,0,0-3.85-3.95,125.1,125.1,0,0,0-14-.5c-34.65-.05-69.31,0-104-.1q-111.95-.37-223.89-.86c-8.56,0-17.38-1.3-25.26,3.49C3661.65,2753.32,3661.53,3101.61,3664.66,3123.82Zm-2029,101.28c-.21,13-.5,26.18-.62,39.42-.75,77.26-1.6,154.53-2.1,231.79-.14,21.75-4.45,20.22,21.65,23,43,4.58,86.19,8.21,129.29,12.22q80.56,7.5,161.13,15c31.15,2.94,62.28,6.14,93.43,9.19,2,.2,4,.08,6,.25,2.51.2,3.65-1.66,4.21-3.38s.35-3.95.35-5.94q0-151.91,0-303.8c0-19-.63-19.53-20.79-19.62q-182.88-.81-365.77-1.47C1653.84,3221.72,1645.26,3221.7,1635.66,3225.1Zm-354.28-106.24c2.33.19,4.95.6,7.58.6q115.86.35,231.71.61c2.67,0,5.33-.08,8-.08,4.61,0,7.57-1.75,7.74-6.85.24-7.32.85-14.64.92-22q1-113.82,1.86-227.66c.28-42.61.08-85.22.3-127.83,0-11-2.85-11.54-11.28-12.19-3.31-.26-6.65-.13-10-.15q-84.87-.49-169.75-.95-51.95-.21-103.88,0c-9.61,0-10.41.91-9.47,10.19,3.35,33.1,6.65,66.22,10.43,99.27,6.12,53.54,12.73,107,18.88,160.56,4.18,36.36,7.92,72.77,11.9,109.15C1277,3107.41,1277.07,3113.5,1281.38,3118.86Zm10.23,103.27c0,3.81-.3,7.1,0,10.32,2,19.2,4.22,38.39,6.37,57.57,4.75,42.35,9.37,84.71,14.35,127q2.79,23.79,7,47.42c3.06,17.32,8.36,21.86,26.33,24.39,4.62.65,9.23,1.32,13.87,1.78q64.62,6.34,129.25,12.6c9.28.9,18.61,1.45,27.82,2.85,20.33,3.08,18.77,1.79,18.85-16.16q.49-120.93,1-241.86c0-6.66-.21-13.32-.48-20-.16-4-2.6-5.88-6.39-6.16q-4-.3-8-.31-110.92-.49-221.85-.91C1297.23,3220.7,1294.69,3221.57,1291.61,3222.13Zm2581.55,6.22c-6.78,0-11.41,0-16,0q-78-.12-155.95-.21c-10,0-20,.37-30,.54-4.74.08-7.41,2.31-7.64,7.16-.38,8-1.07,16-1.07,23.94q-.14,191.92-.12,383.85,0,28,0,56c0,3.28-.25,6.7,2.34,9.35,5.42,5.55,21.4,3,23.63-4.41,7.49-24.95,19.42-48.1,28.5-72.4,11.41-30.53,23.3-60.86,35-91.26,1.44-3.72,3.31-7.28,4.79-11,4.18-10.5,8.27-21,12.38-31.56,3.63-9.3,7.16-18.64,10.87-27.9,12.13-30.24,24.44-60.42,36.47-90.69,15.23-38.32,30.27-76.7,45.39-115.05C3866.18,3253.67,3871.24,3242.83,3873.16,3228.35Zm264-672.69c6.18-1.32,6.12-5.06,7.24-8,5.41-14.31,10.78-28.63,16.26-42.91,4.28-11.16,8.67-22.29,13.07-33.42,4.16-10.51,8.42-21,12.6-31.48,3.69-9.27,7.41-18.52,11-27.82,11.78-30.37,23.29-60.85,35.32-91.12,12.28-30.89,25.78-61.32,37.44-92.44,14.46-38.61,29.38-77,45.26-115.06,1.6-3.81,5.17-8,1.52-12.71-29.81-2.35-167.11-1.6-181,.91,2.48,75.16.67,150.3,1.14,225.41C4137.51,2403,4137.15,2478.88,4137.15,2555.66ZM1535.67,5018.77c-2.94,59.45,44.68,131.15,129.7,131.48,83.26.33,131.6-68.47,131.08-130.51-.61-72.52-58.63-130.86-131.12-130.51C1586.54,4889.62,1533.75,4956.08,1535.67,5018.77Zm2732.63,1.42c.26-72.25-58.39-131-130.76-131-71.54,0-130,57.56-130.67,129.1-.65,67,50.51,131.43,129.8,132C4218.06,5150.81,4268.35,5084.72,4268.3,5020.19Z" transform="translate(-904.85 -932.02)"/><path class="cls-2" d="M1535.67,5018.77c-1.92-62.69,50.87-129.15,129.66-129.54,72.49-.35,130.51,58,131.12,130.51.52,62-47.82,130.84-131.08,130.51C1580.35,5149.92,1532.73,5078.22,1535.67,5018.77Zm129.71,65.53c27.91,2.18,64.63-21.72,65.33-64.13.58-34.28-25.06-65.67-65.44-66.66-35.1-.85-65.07,29.51-65.53,64.76C1599.24,5056.78,1632.17,5086.12,1665.38,5084.3Z" transform="translate(-904.85 -932.02)"/><path class="cls-2" d="M4268.3,5020.19c.05,64.53-50.24,130.62-131.63,130.08-79.29-.52-130.45-64.92-129.8-132,.7-71.54,59.13-129.07,130.67-129.1C4209.91,4889.19,4268.56,4947.94,4268.3,5020.19Zm-132.36,64.1c28.28,2.55,66.25-20.43,66.59-64.89.25-34.83-25.36-63.95-64.25-65.89-35.57-1.78-66.29,29.22-66.61,65.53C4071.34,5057.18,4104.39,5085.7,4135.94,5084.29Z" transform="translate(-904.85 -932.02)"/><path class="cls-3" d="M1665.38,5084.3c-33.21,1.82-66.14-27.52-65.64-66,.46-35.25,30.43-65.61,65.53-64.76,40.38,1,66,32.38,65.44,66.66C1730,5062.58,1693.29,5086.48,1665.38,5084.3Z" transform="translate(-904.85 -932.02)"/><path class="cls-3" d="M4135.94,5084.29c-31.55,1.41-64.6-27.11-64.27-65.25.32-36.31,31-67.31,66.61-65.53,38.89,1.94,64.5,31.06,64.25,65.89C4202.19,5063.86,4164.22,5086.84,4135.94,5084.29Z" transform="translate(-904.85 -932.02)"/></svg>