<svg id="Layer_1" data-name="Layer 1" xmlns="http://www.w3.org/2000/svg" viewBox="0 0 836.5 782.77"><defs><style>.cls-1{fill:#f7f7f7;}.cls-1,.cls-2{fill-rule:evenodd;}.cls-2{fill:#fafafa;}</style></defs><path class="cls-1" d="M600.8,692.42c28.75,13.82,35.27,47,20.06,69.5a47.07,47.07,0,0,1-67.5,11.23,46.52,46.52,0,0,1-8-7.74,47.1,47.1,0,0,1-5.81-9.07,45.51,45.51,0,0,1-3.66-10.49,47,47,0,0,1-1.15-10.71,48.83,48.83,0,0,1,1.49-11,45.64,45.64,0,0,1,3.82-10.06,47.16,47.16,0,0,1,6.27-9.2,52.85,52.85,0,0,1,7.73-7.16c-.3-.42-.36-.59-.42-.59q-194,0-388.06-.05c-.2,0-.39.17-.79.35.32,1,1.24,1.35,1.91,1.9a47,47,0,1,1-75.82,45.83c-3.45-17.61,1.84-32.68,15.11-44.87a19,19,0,0,0,3.11-2.79c-.92-.72-1.77-.43-2.56-.43-7.56,0-15.12-.11-22.68,0a26.46,26.46,0,0,1-26.28-20.83,14,14,0,0,1,.31-7.47Q62.41,654,77.31,649.86a24.08,24.08,0,0,1,6.43-.62q32.22,0,64.44,0l52.91,0h333.7c11.52,0,23-.16,34.56.08,4.25.09,6.62-1.57,8.37-5.27,2.82-5.95,6-11.74,9-17.58a15.66,15.66,0,0,0,2-5.71,8.17,8.17,0,0,0-1.69-6.06,35,35,0,0,0-4.77-4.89c-.72-.63-1.5-1.2-2.19-1.87q-6.42-6.29-12.82-12.6c-.26-.26-.5-.52-.76-.77-4.38-4.09-8.79-8.15-13.13-12.29-4.08-3.89-8.08-7.85-12.12-11.78-.43-.42-.82-.88-1.26-1.29Q533.55,563,527,556.88c-3.15-3-6-6.19-9.33-9a7.57,7.57,0,0,0-5.14-2.08,155.86,155.86,0,0,1-16.85-1.3c-5.12-.59-10.27-1-15.41-1.44q-9.3-.86-18.62-1.73l-21.49-2c-8-.75-16-1.48-24-2.24q-11.46-1.07-22.92-2.17c-7.64-.73-15.29-1.43-22.92-2.18-8.95-.88-17.9-1.82-26.85-2.68-6.21-.6-12.43-1.06-18.63-1.66-5.85-.56-11.69-1.24-17.54-1.82-5.37-.54-10.74-1-16.12-1.49-6.92-.64-13.85-1.3-20.77-1.93-9.56-.89-19.11-1.73-28.66-2.65-6-.58-11.92-1.3-17.89-1.89-5.49-.54-11-1-16.48-1.48-9.79-.94-19.57-2-29.36-2.88-6-.56-11.95-1-17.92-1.57-5.37-.49-10.74-1-16.11-1.56-6.81-.66-13.61-1.29-20.41-2-9.55-.93-19.09-1.91-28.64-2.83-5.85-.55-11.71-1-17.56-1.55-4.66-.43-9.31-.9-14-1.37a27.44,27.44,0,0,1-13-4.85c-2.77-1.91-5.51-3.85-8.15-5.93A26.07,26.07,0,0,1,32.18,475c-.8-6.18-1.42-12.39-2.14-18.58-.61-5.24-1.28-10.47-1.89-15.71-.78-6.67-1.5-13.35-2.28-20-.66-5.71-1.4-11.42-2.05-17.14-.6-5.36-1.1-10.74-1.71-16.1-.76-6.79-1.62-13.57-2.4-20.36-.64-5.6-1.2-11.21-1.85-16.81s-1.41-11.42-2.07-17.13C15,326.56,14.36,320,13.6,313.45c-1.12-9.77-2.32-19.53-3.43-29.3-.63-5.48-1.11-11-1.74-16.45s-1.35-10.71-2-16.06c-.77-6.68-1.45-13.36-2.21-20-.64-5.6-1.37-11.19-2-16.79-.75-6.67-1.46-13.34-2.19-20a13.23,13.23,0,0,1,.84-5.65,25.4,25.4,0,0,1,11.25-14.43,82.26,82.26,0,0,1,12.28-5.95A29.94,29.94,0,0,1,35.37,167c11.28,0,22.55-.1,33.83-.12,8.64,0,17.29.12,25.92,0,16.32-.32,32.64-.11,49-.19q22.48-.12,45-.17l99-.24c18.48-.05,37,.08,55.44-.22,16.67-.27,33.35-.1,50-.21q15.3-.1,30.6-.14,31.86-.09,63.72-.13c15.71,0,31.43,0,47.15-.2s31.42-.19,47.13-.24c15.36-.05,30.71-.07,46.07-.17,5.4,0,4.25.62,6-4.15,1.48-4,3.36-7.94,4.79-12,1.66-4.74,3.63-9.38,5.47-14.06q3.94-10,7.91-20.05c2.31-5.78,4.67-11.54,7-17.33,2-5.12,4-10.27,6-15.4s3.91-10,5.89-15.06c5-12.59,10-25.14,14.84-37.8,2.33-6.15,6.61-10.13,12.35-12.85a13.85,13.85,0,0,1,4.1-1.26c6.54-.86,13.07-1.79,19.6-2.67L746.7,9,771,5.73q11.76-1.58,23.53-3.15L812.3.12a12,12,0,0,1,5,.34c10.35,2.87,16.57,9.64,19,20a12.09,12.09,0,0,1-.08,5.35A25.45,25.45,0,0,1,814,46c-12.62,1.56-25.21,3.3-37.81,4.94-11.89,1.55-23.78,3.05-35.68,4.6-4.39.57-8.78,1.24-13.19,1.76a3.39,3.39,0,0,0-3,2.2c-2.8,6.49-5.85,12.87-8.16,19.56-.16.46-.32.91-.5,1.35q-3.37,8.32-6.73,16.65c-.54,1.33-1,2.7-1.5,4-.68,1.79-1.3,3.61-2.09,5.36a71.48,71.48,0,0,0-2.88,7.36,32,32,0,0,1-1.56,4,60.48,60.48,0,0,0-3,7.69c-.43,1.36-1.07,2.66-1.6,4q-1.4,3.49-2.76,7c-.22.56-.36,1.15-.58,1.71-2.26,5.54-4.54,11.08-6.78,16.63-.59,1.44-1.07,2.92-1.63,4.37-.68,1.79-1.35,3.59-2.11,5.35-.9,2.09-1.77,4.19-2.48,6.36-.63,1.93-1.5,3.78-2.26,5.67l-2,5-2.79,7q-1,2.51-2,5c-.74,1.89-1.43,3.81-2.23,5.68a50.06,50.06,0,0,0-2.33,6,16.94,16.94,0,0,1-.7,2Q662.35,215.72,659,224c-.54,1.33-1,2.68-1.53,4-.29.79-.5,1.61-.81,2.38-2.19,5.45-4.4,10.88-6.59,16.32-.54,1.34-1,2.68-1.53,4-.33.9-.57,1.84-.93,2.72-2.25,5.55-4.53,11.09-6.78,16.63-.54,1.33-1,2.69-1.52,4q-1.1,2.85-2.2,5.69-1.23,3.18-2.49,6.35c-.75,1.9-1.51,3.78-2.26,5.67q-1,2.5-2,5-1.38,3.51-2.77,7c-.62,1.56-1.35,3.08-1.85,4.67a64.06,64.06,0,0,1-2.61,6.7c-.67,1.53-1.32,3.08-1.86,4.67a67.15,67.15,0,0,1-2.77,7c-.7,1.52-1.21,3.13-1.83,4.69-.87,2.23-1.76,4.45-2.64,6.68-.53,1.33-1.12,2.65-1.58,4a81.1,81.1,0,0,1-3.33,8.35c-.66,1.4-1.09,2.91-1.64,4.37-.68,1.79-1.38,3.57-2.08,5.35-.92,2.35-1.85,4.68-2.76,7-.22.56-.37,1.14-.6,1.7-2.2,5.43-4.43,10.86-6.63,16.3-.54,1.33-1,2.69-1.52,4-.72,1.9-1.44,3.81-2.19,5.7-.87,2.23-1.77,4.45-2.65,6.68-.71,1.78-1.4,3.56-2.12,5.33-.27.67-.63,1.3-.89,2-2.06,5.37-4.1,10.74-6.16,16.1-.56,1.45-1.16,2.89-1.73,4.34q-1.46,3.68-2.89,7.36c-.13.33-.18.69-.32,1-2.2,5.43-4.42,10.86-6.62,16.3-.63,1.56-1.19,3.14-1.79,4.7-.69,1.79-1.38,3.57-2.08,5.36L561.8,471c-.21.56-.35,1.15-.57,1.7q-3.32,8.16-6.63,16.3c-.5,1.22-1,2.44-1.42,3.69a70.51,70.51,0,0,1-3,7.68,23.65,23.65,0,0,0-2.37,9,7.61,7.61,0,0,0,1.75,5.33,40,40,0,0,0,5,5.18,58.77,58.77,0,0,1,6.48,6.24,3,3,0,0,0,.25.25L574.56,539c.88.82,1.74,1.65,2.58,2.5.68.68,1.29,1.43,2,2.09,4.43,4.2,8.89,8.39,13.33,12.59,1,.91,1.88,1.85,2.83,2.77q2.44,2.39,4.91,4.75l4.42,4.22c.35.33.65.71,1,1q6.79,6.42,13.58,12.85c1,.91,1.94,1.8,2.83,2.77a61.54,61.54,0,0,0,5.71,5.48,15.62,15.62,0,0,1,2.1,2c9.07,11.15,12.18,23.49,7,37.26a99.6,99.6,0,0,1-5.06,10.33c-3.17,6.18-6.39,12.33-9.6,18.5L613.87,674c-.94,1.81-1.93,3.59-2.77,5.45-2.22,4.89-5.16,9.19-9.7,12.24A3.37,3.37,0,0,0,600.8,692.42Zm-303.68-388a30.69,30.69,0,0,0,.51-5.68q0-12.58,0-25.17,0-29.32,0-58.63c0-4.14.25-3.8-3.62-3.77-10.31.07-20.62,0-30.93.22-12,.26-24,.06-36,.07-.84,0-1.68,0-2.51.05a.85.85,0,0,0-.88.91c0,.48,0,1,0,1.44q0,43.17,0,86.35c0,3.94-.25,4.26,4.12,4.26q32.75,0,65.49.11C294.47,304.59,295.66,304.49,297.12,304.43Zm109-.05a8.86,8.86,0,0,0,4,.6q31.49.09,63,.17c6.25,0,5.51.68,5.52-5.62.05-21.59,0-43.17,0-64.76,0-7.44,0-14.87,0-22.31,0-1.9-.1-2-2.09-2-4.19.05-8.38.24-12.58.25-13.55,0-27.1,0-40.65,0-5.16,0-10.32.12-15.47.14-2.1,0-2.18.22-2.08,2.28,0,.24,0,.48,0,.72q0,41.73,0,83.46A29.1,29.1,0,0,0,406.16,304.38ZM205.93,257.45c0-13.91,0-27.83,0-41.74,0-1.26.7-2.83-.39-3.75s-2.53-.33-3.82-.32q-32.92,0-65.86.09c-.6,0-1.2,0-1.8,0-1.23.05-1.52.26-1.54,1.46-.06,3.36-.06,6.72-.08,10.08-.14,25.43-.33,50.85-.35,76.28,0,4.48-.67,4.6,4.49,4.63q32.57.15,65.13.24c4.2,0,4.23,0,4.24-4.17Q205.95,278.85,205.93,257.45Zm109.26-.08h0c0,14.39,0,28.78,0,43.17,0,4.19-.4,4.11,4.14,4.13l64.73.23a23.16,23.16,0,0,0,2.5-.18,1.32,1.32,0,0,0,1.35-1.37c.05-1.32.15-2.64.15-4q0-19.61,0-39.2V213.1a5.66,5.66,0,0,0-.06-1.43c-.07-.28-.4-.67-.65-.69a27.62,27.62,0,0,0-2.88-.08q-21,.06-42.08.12c-7.8,0-15.59,0-23.39,0-4.29,0-3.82-.32-3.83,3.91Q315.16,236.14,315.19,257.37Zm249.1-47.07H560.2l-59.73.16c-4.57,0-4.09-.46-4.09,4q0,42.81,0,85.64c0,1.31.12,2.63.22,3.94a1,1,0,0,0,.91,1,33.11,33.11,0,0,0,3.58.24q29.15.09,58.3.12c1.29,0,2.88.57,3.81-.29,1.09-1,.29-2.73.45-4.12.06-.59,0-1.2,0-1.8q0-41.56,0-83.13A17.56,17.56,0,0,1,564.29,210.3Zm-86,287.79a2.33,2.33,0,0,0,.35-1.74q0-3.6,0-7.19,0-36,0-71.93c0-4.46.16-3.9-3.83-4h-.36l-64-.15c-1,0-1.91,0-2.87.09-1.46.12-1.65.31-1.71,1.69-.06,1.56-.09,3.11-.09,4.67q0,32,0,64c0,2,0,4.08,0,6.11,0,1.68.24,1.9,1.81,2s3.12.13,4.67.28q14.66,1.43,29.32,2.89l19,1.84c5,.5,10,1,15,1.48A5.17,5.17,0,0,0,478.33,498.09ZM114.39,257.65h.24q.15-21.21.3-42.44c0-3.47.16-3.37-3.3-3.35l-57.55.24c-1.55,0-3.11.12-4.66.25-1.18.1-1.49.38-1.51,1.54a99.76,99.76,0,0,0,.25,12.94q1.16,10.36,2.37,20.71c1.11,9.64,2.25,19.28,3.36,28.92q1.48,12.85,2.94,25.72c.18,1.51.32,1.65,1.72,1.71.6,0,1.2,0,1.8,0l50,.13c.84,0,1.68,0,2.51-.11a1.28,1.28,0,0,0,1.37-1.32c0-1.2.16-2.4.16-3.59Q114.41,278.34,114.39,257.65Zm273.69,194.1h.05q0-14.55,0-29.12,0-3.94-.12-7.91c0-1.37-.28-1.6-1.72-1.7s-3.11-.17-4.67-.17l-60.77-.18c-6.42,0-5.61,0-5.63,5.67-.06,15.1,0,30.21,0,45.31,0,5.64,0,11.27,0,16.91,0,2.25,0,2.25,2.08,2.45l17.18,1.64,20.75,2c5.25.51,10.49,1.05,15.74,1.56q5.71.56,11.45,1.08c1.31.13,2.62.24,3.94.29,1.67.07,1.72,0,1.75-1.83,0-.25,0-.48,0-.72Q388.08,469.37,388.08,451.75ZM297.26,323.41a12.22,12.22,0,0,0-4.21-.53l-64.71-.21c-4.66,0-4.68-.2-4.68,4.8q0,20.49,0,41c0,7.68,0,15.34,0,23,0,2.25.29,2.5,2.39,2.7a19.48,19.48,0,0,0,2.16.06l64.71.2c.84,0,1.68,0,2.52,0,1.55-.1,1.88-.38,1.94-1.91.12-3,.21-6,.21-9,0-15.09.05-30.19,0-45.28C297.59,333.34,297.92,328.44,297.26,323.41ZM168.71,393.93v.2c11,0,22.07,0,33.11,0,4.09,0,4.11-.06,4.11-4.23q0-31.5,0-63c0-4.19-.11-4.33-4.13-4.34L136,322.45c-.48,0-1,0-1.44,0-2.29.12-2.5.24-2.57,2.45-.11,3.6-.14,7.2-.16,10.8-.09,17.87-.23,35.75-.2,53.63,0,5-.82,4.51,4.73,4.56C147.11,394,157.91,393.93,168.71,393.93Zm273.83.77v.17c2.4,0,4.8,0,7.19,0,8,0,16.07.24,24.1.08,5.48-.11,4.81.93,4.84-4.75.06-11.39,0-22.79,0-34.18,0-9.72,0-19.43,0-29.15,0-3.07.38-3.51-3.31-3.51q-33.11,0-66.2-.13c-3.21,0-3.22,0-3.31,3.11,0,1.32,0,2.64,0,4q0,15.29,0,30.58c0,9.95-.09,19.91,0,29.86.05,4-.54,3.91,4,3.93C420.71,394.73,431.63,394.7,442.54,394.7Zm-90.46-.16v.13h31.65c1.07,0,2.15-.05,3.22-.12a.93.93,0,0,0,.94-.9c.09-1.55.21-3.11.21-4.66q0-20.14,0-40.27c0-7.55,0-15.1-.08-22.65,0-2.75-.13-2.8-2.81-2.91-.36,0-.72,0-1.08,0l-64.37-.22c-5.31,0-4.55.13-4.56,4.46q-.09,31.29,0,62.57c0,4.23-.9,4.58,4.48,4.58Zm-91.21,18.11v-.14H228.13c-.84,0-1.68,0-2.51,0-1.36.1-1.73.43-1.85,1.69-.09.95-.1,1.92-.1,2.87q0,27,0,54,0,.9,0,1.8a1.18,1.18,0,0,0,1.07,1.21c.82.14,1.66.26,2.49.34l23.62,2.24,20.76,2,21.83,2.1c.83.07,1.67.15,2.51.19,1.35.06,1.59-.19,1.66-1.65,0-.36,0-.72,0-1.08q0-30.21,0-60.41a33,33,0,0,0-.28-3.58c-.13-1.09-.49-1.42-1.6-1.51-.83-.07-1.67-.06-2.51-.06Zm235.89-18.13a11,11,0,0,0,4.55.59c6,0,12,0,18,0,6.36,0,12.71.09,19.07.07,4.07,0,3.36.69,4.75-3.23.52-1.47,1.14-2.9,1.71-4.35,1-2.45,1.93-4.9,2.88-7.35.53-1.34,1-2.69,1.55-4,2.15-5.33,4.36-10.64,6.46-16,2.46-6.24,4.79-12.52,7.26-18.75a9.18,9.18,0,0,0,.67-3.49c0-4.08,0-8.16,0-12.23,0-.48-.06-1-.08-1.43a.76.76,0,0,0-.7-.71,21,21,0,0,0-2.51-.09c-6.24,0-12.48,0-18.72,0l-40.3-.16c-1.54,0-3.13-.23-4.54.63C496.22,327.83,496.2,390.53,496.76,394.52ZM131.55,412.75c0,2.33-.09,4.72-.12,7.1-.13,13.91-.28,27.82-.37,41.72,0,3.92-.8,3.64,3.89,4.14,7.75.83,15.52,1.48,23.28,2.2,9.66.9,19.33,1.78,29,2.7,5.61.53,11.21,1.1,16.82,1.65.35,0,.72,0,1.07.05a.74.74,0,0,0,.76-.61,3.45,3.45,0,0,0,.06-1.07q0-27.35,0-54.68c0-3.42-.12-3.52-3.74-3.53l-65.84-.27A13.55,13.55,0,0,0,131.55,412.75ZM67.78,393.63c.41,0,.89.11,1.36.11l41.71.11,1.44,0c.83,0,1.36-.31,1.39-1.23,0-1.32.15-2.63.16-4q.19-20.49.34-41c0-7.67,0-15.34,0-23,0-2-.51-2.08-2-2.19-.59-.05-1.19,0-1.79,0q-15.28-.09-30.56-.17-9.34,0-18.7,0c-1.73,0-1.87.17-1.7,1.83.6,6,1.2,11.92,1.88,17.87,1.1,9.64,2.29,19.27,3.4,28.91.75,6.54,1.42,13.09,2.14,19.64A5.37,5.37,0,0,0,67.78,393.63Zm1.84,18.59c0,.69-.06,1.28,0,1.86.37,3.45.76,6.91,1.15,10.36.86,7.62,1.69,15.25,2.58,22.87.34,2.85.76,5.7,1.26,8.53.55,3.12,1.5,3.94,4.74,4.39.83.12,1.66.24,2.49.32l23.27,2.27c1.67.16,3.35.26,5,.51,3.66.56,3.38.32,3.39-2.91l.18-43.53c0-1.2,0-2.4-.09-3.6a1.09,1.09,0,0,0-1.15-1.11c-.47,0-1-.05-1.43-.05L71.08,412A9,9,0,0,0,69.62,412.22Zm464.68,1.12h-2.89l-28.07,0c-1.8,0-3.6.07-5.4.1a1.22,1.22,0,0,0-1.37,1.29c-.07,1.43-.19,2.87-.19,4.31q0,34.54,0,69.09v10.08a2.21,2.21,0,0,0,.43,1.68c1,1,3.85.54,4.25-.79,1.35-4.49,3.49-8.66,5.13-13,2.05-5.49,4.19-10.95,6.3-16.42.26-.67.6-1.31.87-2,.75-1.89,1.48-3.78,2.23-5.68.65-1.67,1.28-3.35,1.95-5,2.19-5.44,4.4-10.88,6.57-16.33,2.74-6.89,5.44-13.8,8.17-20.7A26.41,26.41,0,0,0,534.3,413.34Zm47.51-121.09c1.12-.23,1.11-.91,1.31-1.44,1-2.57,1.94-5.15,2.92-7.72.77-2,1.57-4,2.36-6s1.51-3.78,2.27-5.67c.66-1.67,1.33-3.33,2-5,2.12-5.46,4.19-10.95,6.35-16.4s4.64-11,6.74-16.64c2.61-7,5.29-13.86,8.15-20.71.29-.69.93-1.45.27-2.29-5.36-.42-30.08-.29-32.57.17.45,13.53.12,27.05.21,40.57S581.81,278.44,581.81,292.25ZM113.55,735.62a23.07,23.07,0,0,0,23.34,23.66,23.49,23.49,0,1,0,0-47C122.7,712.37,113.2,724.33,113.55,735.62Zm491.87.25a23.53,23.53,0,1,0-23.69,23.42A23.51,23.51,0,0,0,605.42,735.87Z"/><path class="cls-2" d="M113.55,735.62c-.35-11.29,9.15-23.25,23.34-23.32a23.49,23.49,0,1,1,0,47A23.07,23.07,0,0,1,113.55,735.62Zm23.35,11.79c5,.39,11.63-3.91,11.76-11.54a11.74,11.74,0,0,0-11.78-12c-6.32-.16-11.72,5.31-11.8,11.66C125,742.46,130.92,747.74,136.9,747.41Z"/><path class="cls-2" d="M605.42,735.87a23.53,23.53,0,1,1-23.53-23.57A23.31,23.31,0,0,1,605.42,735.87ZM581.6,747.41a11.47,11.47,0,0,0,12-11.68c0-6.27-4.56-11.51-11.56-11.86-6.41-.32-11.93,5.26-12,11.79C570,742.53,575.92,747.66,581.6,747.41Z"/></svg>