<svg id="Layer_1" data-name="Layer 1" xmlns="http://www.w3.org/2000/svg" viewBox="0 0 258.77 255.01"><defs><style>.cls-1{fill:#fff;}.cls-2{fill:#00749c;}</style></defs><rect class="cls-1" x="3.75" width="255.02" height="255.01" rx="90.93"/><path class="cls-2" d="M44.83,144a109.41,109.41,0,0,0,61.64,98.45L54.3,99.49A108.94,108.94,0,0,0,44.83,144Zm183.22-5.51c0-13.52-4.86-22.88-9-30.17-5.55-9-10.74-16.64-10.74-25.65,0-10.06,7.62-19.42,18.37-19.42.48,0,.94.06,1.41.09A109.36,109.36,0,0,0,62.82,83.93c2.57.08,5,.13,7,.13C81.3,84.06,99,82.67,99,82.67c5.9-.34,6.59,8.32.7,9,0,0-5.92.7-12.52,1L127,211.2,151,139.41l-17-46.69c-5.89-.34-11.47-1-11.47-1-5.9-.35-5.2-9.36.69-9,0,0,18.06,1.39,28.81,1.39,11.44,0,29.15-1.39,29.15-1.39,5.9-.35,6.6,8.31.7,9,0,0-5.93.7-12.52,1L208.81,210.3l10.91-36.46c4.73-15.12,8.33-26,8.33-35.35Zm-71.92,15.08-32.82,95.37a109.49,109.49,0,0,0,67.22-1.75,9.75,9.75,0,0,1-.78-1.51l-33.62-92.11Zm94.06-62a83.91,83.91,0,0,1,.73,11.24c0,11.1-2.07,23.58-8.31,39.18l-33.41,96.6a109.39,109.39,0,0,0,41-147Zm-96-75C83.91,16.5,26.7,73.7,26.7,144a127.51,127.51,0,0,0,255,0c0-70.3-57.21-127.5-127.51-127.5Zm0,249.17A121.66,121.66,0,1,1,275.86,144,121.8,121.8,0,0,1,154.21,265.67Z" transform="translate(-26.7 -16.5)"/></svg>