<svg id="Layer_1" data-name="Layer 1" xmlns="http://www.w3.org/2000/svg" viewBox="0 0 255 253.41"><defs><style>.cls-1{fill:#fff;stroke:#fff;stroke-miterlimit:10;stroke-width:0.98px;}.cls-2{fill:#00749c;}</style></defs><circle class="cls-1" cx="127.5" cy="126.71" r="123.13"/><path class="cls-2" d="M18.13,127.5A109.41,109.41,0,0,0,79.77,226L27.6,83A109,109,0,0,0,18.13,127.5ZM201.35,122c0-13.52-4.86-22.88-9-30.17-5.55-9-10.74-16.64-10.74-25.65,0-10.06,7.62-19.42,18.37-19.42.48,0,.94.06,1.41.09A109.37,109.37,0,0,0,36.12,67.43c2.57.08,5,.13,7,.13,11.48,0,29.18-1.39,29.18-1.39,5.9-.34,6.59,8.32.7,9,0,0-5.92.7-12.52,1L100.3,194.7l24-71.79-17-46.69c-5.89-.34-11.47-1-11.47-1-5.9-.35-5.2-9.36.69-9,0,0,18.06,1.39,28.81,1.39,11.44,0,29.15-1.39,29.15-1.39,5.9-.35,6.6,8.31.7,9,0,0-5.93.7-12.52,1L182.11,193.8,193,157.34c4.73-15.12,8.33-26,8.33-35.35Zm-71.92,15.08L96.61,232.44a109.5,109.5,0,0,0,67.22-1.75,10.26,10.26,0,0,1-.78-1.51Zm94.06-62a84.52,84.52,0,0,1,.73,11.24c0,11.1-2.07,23.58-8.31,39.18l-33.41,96.6a109.4,109.4,0,0,0,41-147Zm-96-75C57.21,0,0,57.2,0,127.5a127.51,127.51,0,0,0,255,0C255,57.2,197.79,0,127.49,0Zm0,249.17a177.23,177.23,0,1,0,0-.07Z"/></svg>