<?xml version="1.0" encoding="utf-8"?>
<!-- Generator: Adobe Illustrator 26.0.1, SVG Export Plug-In . SVG Version: 6.00 Build 0)  -->
<svg version="1.1" id="Layer_1" xmlns="http://www.w3.org/2000/svg" xmlns:xlink="http://www.w3.org/1999/xlink" x="0px" y="0px"
	 viewBox="0 0 255 253.4" style="enable-background:new 0 0 255 253.4;" xml:space="preserve">
<style type="text/css">
	.st0{fill:#FFFFFF;stroke:#FFFFFF;stroke-width:0.9813;stroke-miterlimit:10;}
	.st1{fill:#00749C;}
</style>
<g>
	<circle class="st0" cx="127.5" cy="126.7" r="123.1"/>
	<path class="st1" d="M18.1,127.5c0,41.9,23.9,80.1,61.6,98.4L27.6,83C21.3,97,18.1,112.2,18.1,127.5z M201.4,122
		c0-13.5-4.9-22.9-9-30.2c-5.6-9-10.7-16.6-10.7-25.7c0-10.1,7.6-19.4,18.4-19.4c0.5,0,0.9,0.1,1.4,0.1C156.9,6,87.7,9.1,46.9,53.6
		c-4,4.3-7.5,8.9-10.8,13.8c2.6,0.1,5,0.1,7,0.1c11.5,0,29.2-1.4,29.2-1.4c5.9-0.3,6.6,8.3,0.7,9c0,0-5.9,0.7-12.5,1l39.8,118.5
		l24-71.8l-17-46.7c-5.9-0.3-11.5-1-11.5-1c-5.9-0.3-5.2-9.4,0.7-9c0,0,18.1,1.4,28.8,1.4c11.4,0,29.1-1.4,29.1-1.4
		c5.9-0.3,6.6,8.3,0.7,9c0,0-5.9,0.7-12.5,1l39.5,117.6l10.9-36.5C197.8,142.2,201.4,131.3,201.4,122L201.4,122z M129.4,137.1
		l-32.8,95.4c22,6.5,45.6,5.9,67.2-1.8c-0.3-0.5-0.6-1-0.8-1.5L129.4,137.1z M223.5,75.1c0.5,3.7,0.7,7.5,0.7,11.2
		c0,11.1-2.1,23.6-8.3,39.2l-33.4,96.6C233.7,192.3,251.9,127.1,223.5,75.1L223.5,75.1z M127.5,0.1C57.2,0,0,57.2,0,127.5
		c0.9,70.4,58.7,126.8,129.1,125.9c69.2-0.9,125-56.7,125.9-125.9C255,57.2,197.8,0,127.5,0.1L127.5,0.1z M127.5,249.2
		c-67.2,0-121.7-54.5-121.7-121.7C5.8,60.4,60.3,5.9,127.5,5.9c67.2,0,121.6,54.4,121.6,121.6C249.1,194.7,194.7,249.1,127.5,249.2
		L127.5,249.2z"/>
</g>
</svg>
